<svg xmlns="http://www.w3.org/2000/svg" xmlns:xlink="http://www.w3.org/1999/xlink" viewBox="0 0 1845.04 1117.62"><defs><style>.cls-1{fill:#0b2252;opacity:0.2;}.cls-2{fill:#e9f3fc;}.cls-3{fill:url(#linear-gradient);}.cls-4{fill:#daeeff;}.cls-5{fill:#6ac1ff;}.cls-6{fill:#3fb790;}.cls-7{fill:#34916f;}.cls-8{fill:#90dad8;}.cls-9{fill:#fff;}.cls-10{fill:#ffaa9d;}.cls-11{fill:url(#linear-gradient-2);}.cls-12{fill:#ffc400;}.cls-13{fill:url(#linear-gradient-3);}.cls-14{fill:#fff2a6;}.cls-15{fill:#ff9f91;}.cls-16{fill:#14336a;}</style><linearGradient id="linear-gradient" x1="922.52" y1="159.25" x2="922.52" y2="976.97" gradientUnits="userSpaceOnUse"><stop offset="0" stop-color="#e9f3fc"/><stop offset="1" stop-color="#fff" stop-opacity="0"/></linearGradient><linearGradient id="linear-gradient-2" x1="951.23" y1="342.67" x2="942.43" y2="751.68" gradientUnits="userSpaceOnUse"><stop offset="0" stop-color="#3162df"/><stop offset="0.96" stop-color="#173db8"/></linearGradient><linearGradient id="linear-gradient-3" x1="949.21" y1="762.86" x2="949.47" y2="1064.48" gradientUnits="userSpaceOnUse"><stop offset="0" stop-color="#ff8e00"/><stop offset="1" stop-color="#ffcf01"/></linearGradient></defs><g id="Layer_2" data-name="Layer 2"><g id="illustration"><ellipse class="cls-1" cx="1028.65" cy="1103.37" rx="478.75" ry="14.25"/><path class="cls-2" d="M1319,55a36.93,36.93,0,0,1,26.2-10.86H1382a56.14,56.14,0,0,1,109.69,0h9.9a37.08,37.08,0,0,1,37.06,37.05h0a37.07,37.07,0,0,1-37.06,37.05H1345.18a37.06,37.06,0,0,1-37-37h0A36.93,36.93,0,0,1,1319,55Z"/><path class="cls-2" d="M868.52,110.82a34.69,34.69,0,0,0-24.61-10.19H809.28a52.74,52.74,0,0,0-103.06,0h-9.3a34.81,34.81,0,0,0-34.82,34.81h0a34.8,34.8,0,0,0,34.82,34.81h147a34.81,34.81,0,0,0,34.81-34.81h0A34.72,34.72,0,0,0,868.52,110.82Z"/><path class="cls-3" d="M1845,716.34c.58,24.74-1,66.74-20.1,63.43-179.21-31-420.1-59.4-701.86-59.4-622,0-1109.8,138.22-1109.8,138.22C-23,781.2,17.1,558.32,111.51,506.14s176.41,52.18,251,14.91S367.25,154.3,481.72,133.1,668.26,323.88,808.16,323.88s118.71-212,282.31-220.46,159.27,217,257.68,217,58.51-90.43,212.77-93.09C1637,226,1683,303.35,1712.51,363c18,36.39,32.19,74.54,49,111.44,17.17,37.59,37.75,73.53,54.42,111.37,16,36.36,26.21,75.39,28.34,115.12C1844.45,703.7,1844.79,709.33,1845,716.34Z"/><path class="cls-4" d="M415.34,805.68c-17.92-.54-37.38-6.83-37-35.64s21.34-33.28,23.47-54.83,2.24-41.6,13.49-41.81,4.14,9,9.38,19,15.4,22.77,13.43,41.44,11.33,25.82,10.63,41.09S438.54,806.38,415.34,805.68Z"/><path class="cls-5" d="M422,732.14a.78.78,0,0,0-1.1,0,.78.78,0,0,0,0,1.1c.05.05,4.67,4.7,4.2,20.63-.41,13.77-7.55,35.08-9.81,41.51-2.12-5-4.85-10.55-7.16-15.2-1.56-3.15-2.9-5.87-3.64-7.59-2.66-6.26,1.4-19.42,1.44-19.55a.78.78,0,1,0-1.5-.46c-.17.56-4.27,13.84-1.38,20.63.75,1.75,2.11,4.49,3.68,7.66,4.2,8.49,10.55,21.31,10.45,26.3-.13,6.92-1,16.85-1,16.95a.8.8,0,0,0,.72.85H417a.78.78,0,0,0,.78-.72c0-.1.85-10.08,1-17,0-2.23-1-5.7-2.57-9.65,1-2.83,10-28,10.49-43.63C427.16,737.18,422.19,732.34,422,732.14Z"/><path class="cls-4" d="M1434.91,687.62c-15.28-.46-31.87-5.82-31.5-30.38s18.18-28.37,20-46.74,1.91-35.47,11.5-35.65,3.53,7.67,8,16.19,13.12,19.41,11.45,35.33,9.65,22,9.06,35S1454.69,688.22,1434.91,687.62Z"/><path class="cls-5" d="M1440.57,624.93a.67.67,0,0,0-.92,1s4,4,3.58,17.59c-.35,11.74-6.43,29.9-8.36,35.39-1.81-4.28-4.14-9-6.11-13-1.33-2.68-2.47-5-3.1-6.46-2.27-5.34,1.19-16.56,1.22-16.67a.67.67,0,0,0-1.27-.4c-.15.48-3.64,11.8-1.17,17.59.63,1.5,1.79,3.83,3.13,6.53,3.58,7.24,9,18.18,8.91,22.43-.12,5.9-.83,14.36-.83,14.45a.66.66,0,0,0,.6.72h.06a.66.66,0,0,0,.66-.61c0-.08.73-8.59.85-14.54,0-1.9-.86-4.86-2.19-8.22.88-2.42,8.54-23.83,8.94-37.2C1445,629.23,1440.75,625.1,1440.57,624.93Z"/><path class="cls-4" d="M576.91,660.14c-10.52-.32-21.93-4-21.68-20.9s12.51-19.52,13.76-32.15,1.31-24.4,7.92-24.52,2.42,5.27,5.49,11.13,9,13.35,7.88,24.3,6.64,15.14,6.23,24.1S590.51,660.55,576.91,660.14Z"/><path class="cls-5" d="M580.79,617a.45.45,0,0,0-.64,0,.46.46,0,0,0,0,.64s2.74,2.76,2.47,12.1c-.24,8.07-4.43,20.57-5.76,24.34-1.24-2.94-2.84-6.19-4.2-8.92-.91-1.84-1.7-3.44-2.13-4.44-1.56-3.67.82-11.39.84-11.47a.46.46,0,0,0-.87-.27c-.11.33-2.51,8.11-.81,12.1.44,1,1.23,2.63,2.15,4.49,2.47,5,6.19,12.5,6.13,15.42-.08,4.06-.57,9.88-.57,9.94a.46.46,0,0,0,.42.5h0a.46.46,0,0,0,.45-.42c0-.06.5-5.91.58-10a17.1,17.1,0,0,0-1.51-5.66c.61-1.66,5.88-16.39,6.15-25.58C583.84,620,580.92,617.13,580.79,617Z"/><path class="cls-4" d="M1629.34,817c-18.38-.55-38.32-7-37.89-36.53s21.87-34.11,24.06-56.2,2.29-42.65,13.83-42.87,4.24,9.23,9.61,19.47,15.78,23.34,13.77,42.48,11.61,26.47,10.89,42.12S1653.12,817.71,1629.34,817Z"/><path class="cls-5" d="M1636.14,741.61a.8.8,0,0,0-1.1,1.17c0,.05,4.78,4.82,4.3,21.15-.42,14.11-7.74,36-10,42.55-2.18-5.15-5-10.82-7.35-15.59-1.59-3.23-3-6-3.72-7.77-2.73-6.42,1.42-19.91,1.46-20a.79.79,0,0,0-.52-1,.81.81,0,0,0-1,.53c-.18.57-4.37,14.18-1.41,21.15.77,1.8,2.16,4.6,3.76,7.85,4.31,8.7,10.83,21.85,10.72,27-.14,7.09-1,17.28-1,17.38a.79.79,0,0,0,.73.86h.07a.81.81,0,0,0,.8-.74c0-.1.86-10.33,1-17.48,0-2.28-1-5.85-2.64-9.89,1.06-2.9,10.28-28.65,10.75-44.73C1641.45,746.78,1636.35,741.81,1636.14,741.61Z"/><path class="cls-6" d="M1488.49,893.29c12.91,4.31,3.21,22.46,3.21,35.3s6.41,48.12-6.42,54.54-32.08,19.25-32.08,32.08-3.21,28.88-16,35.3-25.66,6.41-25.66,16,6.41,12.83,3.21,22.46-9.63,12.83-6.42,16h-83.42s-16-25.67-12.83-41.71,19.25-16,22.46-28.88,19.25-16,19.25-28.87,6.41-32.09,16-38.5,28.87,0,35.29-12.84,0-25.66,9.63-32.08,28.87,3.21,38.5-6.42S1478.86,890.09,1488.49,893.29Z"/><path class="cls-7" d="M1475.59,958.62a1.61,1.61,0,0,0-2-1.1c-.15.05-14.8,4.24-25.18,4.09,7.24-27.36,22.76-33.05,22.94-33.11a1.6,1.6,0,0,0-1-3c-.82.27-20.22,7.13-26.73,42.94-1.52,8.32-6.87,16.18-14.17,23.74-6.19-6.15-8.11-25.71-8.32-33.12a1.6,1.6,0,0,0-1.6-1.56h0a1.62,1.62,0,0,0-1.56,1.65c0,1.15.87,26.85,9.28,35.31-8.09,7.91-18.17,15.51-28.09,23-10.62,8-20.9,15.76-28.78,23.75-1.25-3.2-1.54-13.44-.54-24.19a1.6,1.6,0,0,0-1.45-1.74,1.64,1.64,0,0,0-1.74,1.45c-.64,6.81-1.6,21.77,1.48,26.85-5.25,5.71-9.19,11.57-11,17.75a1.61,1.61,0,0,0,1.08,2,1.43,1.43,0,0,0,.46.07,1.59,1.59,0,0,0,1.53-1.14c3.93-13.09,18.4-25.11,34.76-37.56,9,8.36,33.14,9.76,34.21,9.82h.08a1.6,1.6,0,0,0,.09-3.2c-.25,0-23.45-1.35-31.79-8.58L1401,1020c20.77-15.65,42.25-31.83,45.73-51,.27-1.47.59-2.83.9-4.2.47,0,.92.05,1.4.05,10.78,0,24.8-4,25.45-4.22A1.6,1.6,0,0,0,1475.59,958.62Z"/><path class="cls-8" d="M1296.27,899.71c-16.73,8.37,0,44.92-3.2,57.75s-12.84,22.46-9.63,35.29,9.63,22.46,9.63,35.3-19.25,25.66-16,48.12,12.84,28.88,12.84,28.88h70.58s6.42-6.42,6.42-19.25-16-25.67-12.84-32.09,16-19.25,12.84-41.71-12.84-22.45-16-35.29,3.2-19.25,0-28.87-19.25-19.25-22.46-25.67S1315.52,890.09,1296.27,899.71Z"/><path class="cls-9" d="M1350.24,1012.38a1.59,1.59,0,0,0-2.26.2c-3.19,3.82-11.37,13.09-16.63,17.28.14-2.23.22-4.44.22-6.63,0-10,0-20.14-.49-29.89a1.34,1.34,0,0,0,0-.2,171.67,171.67,0,0,0-2.74-24.76c-3.24-16.2-18.86-38.19-19.52-39.12a1.62,1.62,0,0,0-2.24-.38,1.6,1.6,0,0,0-.37,2.24c.16.22,15.88,22.37,19,37.88a152.33,152.33,0,0,1,2.4,19.12c-5.83-6-15.64-11-16.15-11.24a1.61,1.61,0,0,0-1.44,2.87c.15.07,14.26,7.22,17.9,14,.46,9.6.47,19.62.47,29.47,0,8.49-1.27,17.67-2.4,25.78-1.07,7.71-2,14.21-1.62,18.75a156,156,0,0,0-16.24-7.51,1.6,1.6,0,1,0-1.19,3c4.31,1.73,15.86,6.66,18.54,9.15,3.61,7.29,9.37,22.36,9.87,32.76a1.6,1.6,0,0,0,1.6,1.52h.08a1.59,1.59,0,0,0,1.52-1.68c-.53-11-6.62-26.9-10.33-34.33-1.56-3.11-.34-11.89,1-21.19.68-4.87,1.37-10.12,1.85-15.4,6.45-3.91,18.91-18.76,19.45-19.41A1.6,1.6,0,0,0,1350.24,1012.38Z"/><path class="cls-10" d="M1118.19,296s12.56-37.65,14.38-37.51,4.83,9.46,4.83,9.46,6.2-15.57,14.06-13.77,12.77,42.78.73,55.48Z"/><path class="cls-10" d="M790.11,293.66S778.82,257.35,777,257.41s-5.29,9.21-5.29,9.21-5.43-15.86-13.37-14.44-14.84,42.1-3.44,55.37Z"/><path class="cls-11" d="M1164,301l-50.53-15.21s-42.24,79.7-71.86,128.12c-14,22.93-28.77,40.33-42,55.08a168.78,168.78,0,0,0-51.46-8.14,160.21,160.21,0,0,0-44.63,6.87c-13-14.47-27.29-31.54-40.9-53.81C833,365.49,790.74,285.79,790.74,285.79L740.2,301s-1.22,36.32,38,151.39c23.2,68,47.64,108.5,64.26,130.69-5,63.88-3.11,135.28.25,143.58,10,24.76,196.24,25.05,211-2.44,4.55-8.47,3.23-69.94-2-128.76,15.47-17.6,45.8-59.64,74.26-143.07C1165.25,337.32,1164,301,1164,301Z"/><polygon class="cls-12" points="638.45 540.59 647.61 545.6 638.45 550.6 633.44 559.76 628.43 550.6 619.28 545.6 628.43 540.59 633.44 531.43 638.45 540.59"/><polygon class="cls-12" points="994.48 253.65 1000.9 257.16 994.48 260.67 990.97 267.09 987.46 260.67 981.04 257.16 987.46 253.65 990.97 247.23 994.48 253.65"/><polygon class="cls-12" points="1290.79 491.13 1299.79 496.04 1290.79 500.96 1285.87 509.96 1280.95 500.96 1271.96 496.04 1280.95 491.13 1285.87 482.13 1290.79 491.13"/><rect class="cls-13" x="667.25" y="615.19" width="564.08" height="491.46" rx="22.66"/><path class="cls-12" d="M1220.94,808.58H677.65a26,26,0,0,1-25.93-28.5L665,638.79A26,26,0,0,1,691,615.19h516.66a26,26,0,0,1,25.93,23.6l13.32,141.29A26,26,0,0,1,1220.94,808.58Z"/><path class="cls-14" d="M912.46,1006.11h73.67a6.17,6.17,0,0,1,6.17,6.17v94.37a0,0,0,0,1,0,0h-86a0,0,0,0,1,0,0v-94.37A6.17,6.17,0,0,1,912.46,1006.11Z"/><path class="cls-15" d="M936,466c1.71-9.09,1.52-18.42,2.28-24.14,0,0,23.45-.42,23.48-.18.35,3,1.93,21.95,2.08,24.18C964.4,474.42,934.14,475.56,936,466Z"/><path class="cls-10" d="M979.69,396.51c-3.05-2.84-20.47-4.37-28.75-4.37-3.41,0-8.92-3.12-13.79-2.62-6.95.72-13.17,5.32-15,7-3,2.83-.22,34,1.53,39.92s10.17,21.16,27.23,21.16,25.48-15.27,27.22-21.16S982.74,399.34,979.69,396.51Z"/><path class="cls-16" d="M981,393.44c2.56-1.34,6.39-14.36-6.63-16.27,0,0,3.83-12.06-10.52-11.68s-40,8.32-43.06,30.29.47,39.79,3.4,48.82c1.46,4.5,9.48,17.74,26.6,17.74s24.09-13.4,25.55-17.9c2.38-7.33,7.19-20.34,5.81-36.71a9.51,9.51,0,0,0,2.75-.89C994.7,401.86,978.48,394.78,981,393.44Zm-14.51,48.15c-6.64-3-9.18-4.42-15.81-4.42s-8.8.64-15.44,3.65c-7.39,3.34-14.49-25.74-8.35-34.26s8.23-8.93,10.19-15.49c0,0,10.88,9.63,22.19,8.52,0,0,3.63-.7,3.21-5.31a49.61,49.61,0,0,0,12.22,12.28C979.49,410,973.93,444.94,966.53,441.59Z"/></g></g></svg>