<svg xmlns="http://www.w3.org/2000/svg" xmlns:xlink="http://www.w3.org/1999/xlink" viewBox="0 0 1845.04 1117.62"><defs><style>.cls-1{fill:url(#linear-gradient);}.cls-15,.cls-2{fill:#0b2252;}.cls-2{opacity:0.2;}.cls-3{fill:#e9f3fc;}.cls-4{fill:#daeeff;}.cls-5{fill:#6ac1ff;}.cls-6{fill:#3fb790;}.cls-7{fill:#34916f;}.cls-8{fill:#90dad8;}.cls-9{fill:#fff;}.cls-10{fill:#e0e9f3;}.cls-11{fill:url(#linear-gradient-2);}.cls-12{fill:#14336a;}.cls-13{fill:url(#linear-gradient-3);}.cls-14{fill:#ffaa9d;}.cls-16{fill:url(#linear-gradient-4);}.cls-17{fill:url(#linear-gradient-5);}.cls-18{fill:url(#linear-gradient-6);}.cls-19{fill:#ff9f91;}.cls-20{fill:url(#linear-gradient-7);}</style><linearGradient id="linear-gradient" x1="922.52" y1="162.25" x2="922.52" y2="722.39" gradientUnits="userSpaceOnUse"><stop offset="0" stop-color="#e9f3fc"/><stop offset="1" stop-color="#fff" stop-opacity="0"/></linearGradient><linearGradient id="linear-gradient-2" x1="1201.29" y1="659.67" x2="1201.29" y2="550.56" gradientUnits="userSpaceOnUse"><stop offset="0" stop-color="#f2c43c"/><stop offset="0.76" stop-color="#ffac00"/></linearGradient><linearGradient id="linear-gradient-3" x1="1201.29" y1="763.67" x2="1201.29" y2="709.11" xlink:href="#linear-gradient-2"/><linearGradient id="linear-gradient-4" x1="2347.16" y1="1073.52" x2="2342.78" y2="777" gradientTransform="translate(-1634.64)" gradientUnits="userSpaceOnUse"><stop offset="0" stop-color="#14336d"/><stop offset="0.97" stop-color="#0e2253"/></linearGradient><linearGradient id="linear-gradient-5" x1="-6068.16" y1="412.33" x2="-6101.17" y2="532.72" gradientTransform="matrix(-1, 0, 0, 1, -5427.39, 0)" gradientUnits="userSpaceOnUse"><stop offset="0" stop-color="#3162df"/><stop offset="0.96" stop-color="#173db8"/></linearGradient><linearGradient id="linear-gradient-6" x1="-6063.42" y1="434.32" x2="-6290.81" y2="640.06" xlink:href="#linear-gradient-5"/><linearGradient id="linear-gradient-7" x1="-2729.27" y1="-4548.99" x2="-2910.81" y2="-4384.74" gradientTransform="matrix(-0.14, -0.99, -0.99, 0.14, -4141.45, -1568.21)" xlink:href="#linear-gradient-5"/></defs><g id="Layer_2" data-name="Layer 2"><g id="illustration"><path class="cls-1" d="M1845,719.33c.58,24.75-1,66.75-20.1,63.43-179.21-31-420.1-59.4-701.86-59.4-622,0-1109.8,138.22-1109.8,138.22C-23,784.19,17.1,561.31,111.51,509.13s176.41,52.18,251,14.91,4.79-366.75,119.26-387.95S668.26,326.87,808.16,326.87s118.71-212,282.31-220.46,159.27,217,257.68,217,58.51-90.43,212.77-93.09c76.12-1.31,122.09,76,151.59,135.59,18,36.4,32.19,74.55,49,111.44,17.17,37.6,37.75,73.54,54.42,111.37,16,36.36,26.21,75.39,28.34,115.13C1844.45,706.7,1844.79,712.32,1845,719.33Z"/><ellipse class="cls-2" cx="922.52" cy="1103.37" rx="559.34" ry="14.25"/><path class="cls-3" d="M1293.44,55a36.92,36.92,0,0,1,26.2-10.86h36.85a56.14,56.14,0,0,1,109.69,0h9.9a37.06,37.06,0,0,1,37.05,37.05h0a37.06,37.06,0,0,1-37.05,37.05H1319.64a37.06,37.06,0,0,1-37.05-37h0A36.88,36.88,0,0,1,1293.44,55Z"/><path class="cls-3" d="M843,110.82a34.69,34.69,0,0,0-24.62-10.19H783.74a52.74,52.74,0,0,0-103.06,0h-9.31a34.81,34.81,0,0,0-34.81,34.81h0a34.8,34.8,0,0,0,34.81,34.81h147a34.81,34.81,0,0,0,34.82-34.81h0A34.72,34.72,0,0,0,843,110.82Z"/><path class="cls-4" d="M361.46,794.82c-17.93-.55-37.39-6.84-37-35.64S345.83,725.9,348,704.35s2.23-41.6,13.49-41.82,4.13,9,9.38,19,15.39,22.77,13.43,41.45,11.32,25.82,10.62,41.08S384.66,795.52,361.46,794.82Z"/><path class="cls-5" d="M368.09,721.28a.78.78,0,0,0-1.1,0,.8.8,0,0,0,0,1.11s4.67,4.69,4.2,20.63c-.41,13.77-7.55,35.07-9.81,41.51-2.12-5-4.86-10.55-7.17-15.21-1.55-3.15-2.9-5.86-3.63-7.58-2.67-6.26,1.39-19.42,1.43-19.55a.77.77,0,0,0-.51-1,.78.78,0,0,0-1,.51c-.18.56-4.27,13.84-1.38,20.63.75,1.76,2.1,4.5,3.67,7.66,4.2,8.49,10.56,21.32,10.46,26.31-.14,6.92-1,16.85-1,16.95a.77.77,0,0,0,.71.84h.07a.79.79,0,0,0,.78-.72c0-.1.84-10.08,1-17,.05-2.23-1-5.71-2.57-9.65,1-2.84,10-28,10.49-43.64C373.28,726.32,368.3,721.47,368.09,721.28Z"/><path class="cls-4" d="M1586.82,721.54c-15.29-.46-31.87-5.82-31.51-30.38s18.19-28.37,20-46.74,1.9-35.47,11.5-35.65,3.52,7.67,8,16.19,13.13,19.41,11.45,35.33,9.66,22,9.06,35S1606.6,722.14,1586.82,721.54Z"/><path class="cls-5" d="M1592.47,658.85a.67.67,0,0,0-.94,0,.66.66,0,0,0,0,.94s4,4,3.58,17.59c-.35,11.74-6.44,29.9-8.37,35.39-1.8-4.28-4.14-9-6.1-13-1.33-2.68-2.48-5-3.1-6.46-2.27-5.34,1.18-16.56,1.22-16.67a.66.66,0,0,0-.44-.83.65.65,0,0,0-.83.43c-.15.48-3.64,11.8-1.18,17.59.64,1.5,1.79,3.83,3.13,6.53,3.59,7.24,9,18.18,8.92,22.43-.12,5.9-.83,14.36-.84,14.45a.66.66,0,0,0,.61.72h.06a.66.66,0,0,0,.66-.61c0-.08.72-8.59.84-14.54,0-1.9-.86-4.86-2.19-8.22.88-2.42,8.54-23.83,8.94-37.2C1596.9,663.15,1592.65,659,1592.47,658.85Z"/><path class="cls-4" d="M513.54,654.47c-10.51-.31-21.92-4-21.67-20.89s12.51-19.52,13.76-32.15,1.31-24.4,7.91-24.52S516,582.18,519,588s9,13.35,7.87,24.3,6.64,15.14,6.24,24.09S527.14,654.89,513.54,654.47Z"/><path class="cls-5" d="M517.43,611.35a.46.46,0,1,0-.63.67s2.74,2.76,2.46,12.1c-.24,8.07-4.42,20.57-5.75,24.34-1.24-2.94-2.85-6.19-4.2-8.92-.91-1.84-1.7-3.44-2.13-4.44-1.56-3.67.81-11.39.84-11.47a.46.46,0,0,0-.3-.57.46.46,0,0,0-.58.3c-.1.33-2.5,8.11-.81,12.1.44,1,1.24,2.63,2.16,4.49,2.46,5,6.19,12.5,6.13,15.42-.08,4.06-.57,9.88-.58,9.94a.47.47,0,0,0,.42.5h0a.46.46,0,0,0,.46-.42c0-.06.49-5.91.58-10a17.55,17.55,0,0,0-1.51-5.66c.6-1.66,5.88-16.39,6.15-25.58C520.47,614.31,517.55,611.47,517.43,611.35Z"/><path class="cls-4" d="M1551,1033.18c-18.38-.56-38.33-7-37.89-36.53s21.87-34.12,24.06-56.21,2.29-42.64,13.83-42.86,4.23,9.22,9.61,19.46,15.78,23.34,13.77,42.49,11.6,26.46,10.89,42.11S1574.8,1033.9,1551,1033.18Z"/><path class="cls-5" d="M1557.82,957.8a.78.78,0,0,0-1.12,0,.8.8,0,0,0,0,1.13s4.79,4.82,4.31,21.15c-.42,14.12-7.74,36-10.06,42.55-2.17-5.14-5-10.81-7.34-15.59-1.6-3.22-3-6-3.73-7.77-2.73-6.42,1.43-19.91,1.47-20a.8.8,0,0,0-1.53-.48c-.18.58-4.38,14.19-1.41,21.15.76,1.8,2.15,4.61,3.76,7.85,4.31,8.7,10.82,21.85,10.72,27-.14,7.1-1,17.28-1,17.38a.81.81,0,0,0,.74.87h.06a.79.79,0,0,0,.8-.73c0-.11.87-10.34,1-17.48,0-2.29-1-5.85-2.63-9.89,1.06-2.91,10.27-28.66,10.75-44.73C1563.14,963,1558,958,1557.82,957.8Z"/><path class="cls-6" d="M613,893.29c12.92,4.31,3.21,22.46,3.21,35.3s6.42,48.12-6.42,54.54-32.08,19.25-32.08,32.08-3.21,28.88-16,35.3-25.67,6.41-25.67,16,6.42,12.83,3.21,22.46-9.63,12.83-6.42,16H449.35s-16-25.67-12.83-41.71,19.25-16,22.46-28.88,19.25-16,19.25-28.87,6.42-32.09,16-38.5,28.88,0,35.29-12.84,0-25.66,9.63-32.08,28.88,3.21,38.5-6.42S603.36,890.09,613,893.29Z"/><path class="cls-7" d="M600.09,958.62a1.61,1.61,0,0,0-2-1.1c-.16.05-14.8,4.24-25.19,4.09,7.24-27.36,22.77-33.05,22.94-33.11a1.6,1.6,0,0,0-1-3c-.83.27-20.23,7.13-26.74,42.94-1.51,8.32-6.86,16.18-14.17,23.74-6.18-6.15-8.11-25.71-8.31-33.12a1.61,1.61,0,0,0-1.61-1.56h0a1.61,1.61,0,0,0-1.56,1.65c0,1.15.87,26.85,9.28,35.31-8.1,7.91-18.17,15.51-28.09,23-10.62,8-20.9,15.76-28.78,23.75-1.26-3.2-1.54-13.44-.54-24.19a1.6,1.6,0,0,0-1.45-1.74,1.64,1.64,0,0,0-1.75,1.45c-.63,6.81-1.59,21.77,1.49,26.85-5.25,5.71-9.2,11.57-11.05,17.75a1.6,1.6,0,0,0,1.07,2,1.51,1.51,0,0,0,.46.07,1.61,1.61,0,0,0,1.54-1.14c3.93-13.09,18.39-25.11,34.76-37.56,8.94,8.36,33.13,9.76,34.2,9.82h.09a1.6,1.6,0,0,0,.08-3.2c-.24,0-23.44-1.35-31.79-8.58,1.19-.9,2.39-1.81,3.6-2.71,20.77-15.65,42.25-31.83,45.73-51,.27-1.47.58-2.83.9-4.2.46,0,.91.05,1.39.05,10.78,0,24.81-4,25.45-4.22A1.62,1.62,0,0,0,600.09,958.62Z"/><path class="cls-8" d="M420.77,899.71c-16.73,8.37,0,44.92-3.21,57.75s-12.83,22.46-9.63,35.29,9.63,22.46,9.63,35.3-19.25,25.66-16,48.12,12.83,28.88,12.83,28.88h70.59s6.41-6.42,6.41-19.25-16-25.67-12.83-32.09,16-19.25,12.83-41.71-12.83-22.45-16-35.29,3.21-19.25,0-28.87-19.25-19.25-22.46-25.67S440,890.09,420.77,899.71Z"/><path class="cls-9" d="M474.73,1012.38a1.58,1.58,0,0,0-2.25.2c-3.19,3.82-11.38,13.09-16.64,17.28.14-2.23.22-4.44.22-6.63,0-10,0-20.14-.48-29.89,0-.07,0-.13,0-.2a170.23,170.23,0,0,0-2.75-24.76c-3.24-16.2-18.85-38.19-19.51-39.12a1.63,1.63,0,0,0-2.25-.38,1.61,1.61,0,0,0-.37,2.24c.16.22,15.88,22.37,19,37.88a150.5,150.5,0,0,1,2.4,19.12c-5.83-6-15.63-11-16.15-11.24a1.6,1.6,0,1,0-1.43,2.87c.14.07,14.25,7.22,17.9,14,.45,9.6.46,19.62.46,29.47,0,8.49-1.27,17.67-2.39,25.78-1.07,7.71-2,14.21-1.62,18.75a156.9,156.9,0,0,0-16.25-7.51,1.6,1.6,0,0,0-1.19,3c4.31,1.73,15.86,6.66,18.55,9.15,3.61,7.29,9.36,22.36,9.86,32.76a1.6,1.6,0,0,0,1.61,1.52h.07A1.6,1.6,0,0,0,463,1105c-.53-11-6.62-26.9-10.34-34.33-1.55-3.11-.33-11.89,1-21.19.67-4.87,1.36-10.12,1.85-15.4,6.45-3.91,18.9-18.76,19.45-19.41A1.6,1.6,0,0,0,474.73,1012.38Z"/><line class="cls-9" x1="970.81" y1="1106.21" x2="970.81" y2="608.49"/><rect class="cls-10" x="953.78" y="608.49" width="34.05" height="497.72"/><line class="cls-9" x1="1431.78" y1="1106.21" x2="1431.78" y2="608.49"/><rect class="cls-10" x="1414.76" y="608.49" width="34.05" height="497.72"/><rect class="cls-11" x="929.48" y="561.4" width="543.63" height="109.11"/><polygon class="cls-12" points="986.44 561.4 941.4 670.51 929.48 670.51 929.48 630.19 957.87 561.4 986.44 561.4"/><polygon class="cls-12" points="1045.84 561.4 1000.8 670.51 972.24 670.51 1017.28 561.4 1045.84 561.4"/><polygon class="cls-12" points="1105.25 561.4 1060.21 670.51 1031.64 670.51 1076.68 561.4 1105.25 561.4"/><polygon class="cls-12" points="1164.65 561.4 1119.61 670.51 1091.04 670.51 1136.09 561.4 1164.65 561.4"/><polygon class="cls-12" points="1224.07 561.4 1179.03 670.51 1150.46 670.51 1195.51 561.4 1224.07 561.4"/><polygon class="cls-12" points="1283.47 561.4 1238.43 670.51 1209.87 670.51 1254.91 561.4 1283.47 561.4"/><polygon class="cls-12" points="1342.88 561.4 1297.84 670.51 1269.27 670.51 1314.31 561.4 1342.88 561.4"/><polygon class="cls-12" points="1402.28 561.4 1357.24 670.51 1328.67 670.51 1373.72 561.4 1402.28 561.4"/><polygon class="cls-12" points="1461.69 561.4 1416.65 670.51 1388.09 670.51 1433.14 561.4 1461.69 561.4"/><polygon class="cls-12" points="1473.11 608.49 1473.11 670.51 1447.5 670.51 1473.11 608.49"/><rect class="cls-13" x="929.48" y="714.53" width="543.63" height="54.56"/><polygon class="cls-12" points="963.92 714.53 941.4 769.09 929.48 769.09 929.48 728.76 935.35 714.53 963.92 714.53"/><polygon class="cls-12" points="1023.32 714.53 1000.8 769.09 972.24 769.09 994.76 714.53 1023.32 714.53"/><polygon class="cls-12" points="1082.73 714.53 1060.21 769.09 1031.64 769.09 1054.16 714.53 1082.73 714.53"/><polygon class="cls-12" points="1142.13 714.53 1119.61 769.09 1091.04 769.09 1113.57 714.53 1142.13 714.53"/><polygon class="cls-12" points="1201.55 714.53 1179.03 769.09 1150.46 769.09 1172.98 714.53 1201.55 714.53"/><polygon class="cls-12" points="1260.95 714.53 1238.43 769.09 1209.87 769.09 1232.39 714.53 1260.95 714.53"/><polygon class="cls-12" points="1320.36 714.53 1297.84 769.09 1269.27 769.09 1291.79 714.53 1320.36 714.53"/><polygon class="cls-12" points="1379.76 714.53 1357.24 769.09 1328.67 769.09 1351.2 714.53 1379.76 714.53"/><polygon class="cls-12" points="1439.17 714.53 1416.65 769.09 1388.09 769.09 1410.62 714.53 1439.17 714.53"/><polygon class="cls-12" points="1473.11 714.53 1473.11 769.09 1447.5 769.09 1470.02 714.53 1473.11 714.53"/><polygon class="cls-14" points="592.92 1054.47 587.45 1082.3 680.88 1082.3 686.84 1054.47 592.92 1054.47"/><path class="cls-15" d="M587.45,1082.3,583,1104a2.2,2.2,0,0,0,2.16,2.64H689.91a1.72,1.72,0,0,0,1.55-2.47l-10.58-21.88Z"/><polygon class="cls-14" points="734.82 1054.47 729.35 1082.3 822.77 1082.3 828.74 1054.47 734.82 1054.47"/><path class="cls-15" d="M729.35,1082.3,724.92,1104a2.2,2.2,0,0,0,2.16,2.64H831.8a1.72,1.72,0,0,0,1.56-2.47l-10.59-21.88Z"/><path class="cls-16" d="M583.75,619.8s27.64,202.49,18.94,293.44-18.39,151.9-18.39,151.9H690.73s28.06-114.17,30-181.9c0,0,17.41,89,6.77,181.9H831s28.47-324.53-31.51-447.41Z"/><path class="cls-17" d="M719.65,306.39S619.33,322.33,582.21,409.16s-21.34,117.11-7.7,130.9,41.22,26.63,41.22,26.63Z"/><path class="cls-18" d="M820.08,658.73C809.25,673.19,579.77,664,574.49,627s40.06-268.86,88.23-301.35c45.06-30.39,76.46-24.53,105.51-17.62s61.2,64.25,49.31,113.89S794.8,475,796.15,524.66C797.8,585,831.21,643.85,820.08,658.73Z"/><path class="cls-14" d="M808.31,243.52l4.63,33.15-5,.46s-.56,28-20.51,26.06c-5.73-.56-13.43-4.39-15.36-3.19-2.3,1.42-2.41,9.08-2.7,11.32-1.07,8.58-31.24,3.79-27.58-5.32,3.47-8.65,8.78-20.54,7-23.44-6.27-10.09-11-36.5,14.68-48.72C783.92,224.11,806.66,232.18,808.31,243.52Z"/><path class="cls-19" d="M741.81,306c3.47-8.65,8.78-20.54,7-23.44,0,0,13.39,15.89,24.08,17.22l.06,0a1.87,1.87,0,0,0-.85.2c-2.3,1.42-2.41,9.08-2.7,11.32C768.32,319.9,738.15,315.11,741.81,306Z"/><path class="cls-12" d="M765.42,265.4c-12.77-.59-1.54,26.32-15.44,27.1s-27.25-28.14-20-52.63,26.62-25.59,45.35-24.7,42.23,6.38,43.94,20.24c4.12,33.37-38.84,10.29-40.2,20.65-1,8-1.37,30.83,6.74,30.35s15.47-8.14,22-7.23c3.78.53,19.28,43-6.84,47.77-25.85,4.68-35.29-17.48-32.14-36.92C771.85,271.53,771.65,265.68,765.42,265.4Z"/><path class="cls-14" d="M784,687.43s45.49,10.07,62.88,9.33,25-1.35,24.69-5.42S837,674.53,836.37,670.5s5.74-6.5,5.08-11-31.67-3.6-34.18-8.38S782.49,680.44,784,687.43Z"/><path class="cls-20" d="M817.6,645.21,788.51,692.3s-119.06-20.78-155.13-126-8.3-214.11,58.91-232.79c53.13-14.75,41.94,88.91,36.14,126.94S716.81,569.59,817.6,645.21Z"/></g></g></svg>