<svg xmlns="http://www.w3.org/2000/svg" viewBox="0 0 200 200"><defs><style>.cls-1{fill:#ededed;}.cls-2{fill:#55cd6c;}.cls-3{fill:#fefefe;}</style></defs><title>ico-wa</title><g id="Layer_2" data-name="Layer 2"><g id="Layer_1-2" data-name="Layer 1"><path class="cls-1" d="M0,200l13.79-50A100.88,100.88,0,0,1,0,99.31C0,44.83,44.83,0,99.66,0S200,44.83,200,99.31,154.48,200,99.66,200c-17.25,0-33.8-5.52-48.63-13.79Z"/><path class="cls-2" d="M53.79,168.28,56.9,170A81.87,81.87,0,0,0,100,182.76c45.17,0,82.76-37.59,82.76-83.45s-37.59-82.07-83.1-82.07A82.12,82.12,0,0,0,17.24,99.31,83.49,83.49,0,0,0,30,143.79l2.07,3.11-7.93,29Z"/><path class="cls-3" d="M73.1,53.1l-6.55-.34A7.83,7.83,0,0,0,61,54.83c-3.1,2.76-8.27,7.93-9.65,14.83C49,80,52.76,92.41,61.72,104.83s26.21,32.41,56.56,41c9.65,2.76,17.24,1,23.44-2.76a20.32,20.32,0,0,0,9-13.1l1-4.83a3.45,3.45,0,0,0-1.72-3.79l-21.72-10a3.29,3.29,0,0,0-4.14,1l-8.62,11a2.7,2.7,0,0,1-2.76.69c-5.86-2.07-25.52-10.35-36.21-31a2.62,2.62,0,0,1,.35-2.76L85.17,81a4.21,4.21,0,0,0,.69-3.44l-10-22.42A3,3,0,0,0,73.1,53.1"/></g></g></svg>