<svg xmlns="http://www.w3.org/2000/svg" viewBox="0 0 200 200"><defs><style>.cls-1{fill:#ededed;}.cls-2{fill:#55cd6c;}</style></defs><title>ico-telp</title><g id="Layer_2" data-name="Layer 2"><g id="Layer_1-2" data-name="Layer 1"><circle class="cls-1" cx="100" cy="100" r="100"/><path class="cls-2" d="M76.2,78.37,46.63,48.79,58.08,37.32a4.53,4.53,0,0,1,6.39,0l23,23.06a4.55,4.55,0,0,1,0,6.43l-5,5-4.7,4.69A13,13,0,0,0,76.2,78.37Zm24.32,48.18c-4.84-4.16-9.48-8.59-14-13.09s-8.91-9.15-13.08-14A14.54,14.54,0,0,1,71.15,85L40.8,54.62c-7.06,7.26-6.16,25.26,1.58,41.08a112.92,112.92,0,0,0,12.09,18.89A167.18,167.18,0,0,0,68.93,131.1,161.47,161.47,0,0,0,85.4,145.62a113.27,113.27,0,0,0,18.86,12.06c15.84,7.73,33.85,8.58,41.1,1.51L115,128.84A14.63,14.63,0,0,1,100.52,126.55Zm62.17,9-23-23a4.59,4.59,0,0,0-6.43,0h0l-5.06,5.06-4.67,4.68a13.34,13.34,0,0,1-1.87,1.56l29.56,29.57q5.73-5.75,11.47-11.45A4.51,4.51,0,0,0,162.69,135.51Z"/></g></g></svg>