<?xml version="1.0" encoding="utf-8"?>
<!-- Generator: Adobe Illustrator 17.0.0, SVG Export Plug-In . SVG Version: 6.00 Build 0)  -->
<!DOCTYPE svg PUBLIC "-//W3C//DTD SVG 1.1//EN" "http://www.w3.org/Graphics/SVG/1.1/DTD/svg11.dtd">
<svg version="1.1" id="Layer_1" xmlns="http://www.w3.org/2000/svg" xmlns:xlink="http://www.w3.org/1999/xlink" x="0px" y="0px"
	 width="20.625px" height="20.625px" viewBox="0 0 20.625 20.625" enable-background="new 0 0 20.625 20.625" xml:space="preserve">
<path fill="#B7B7B7" d="M10.312,0C4.617,0,0,4.617,0,10.312s4.617,10.313,10.312,10.313s10.313-4.618,10.313-10.313
	S16.007,0,10.312,0z M15.812,11.812h-4v4h-3v-4h-4v-3h4v-4h3v4h4V11.812z"/>
<polygon fill="#FFFFFF" points="15.812,11.812 11.812,11.812 11.812,15.812 8.812,15.812 8.812,11.812 4.812,11.812 4.812,8.812 
	8.812,8.812 8.812,4.812 11.812,4.812 11.812,8.812 15.812,8.812 "/>
</svg>
