<svg xmlns="http://www.w3.org/2000/svg" width="216.407" height="200.587" viewBox="0 0 216.407 200.587"><defs><style>.a{fill:#f2f2f2;}.b{fill:#de8e68;}.c{fill:#74d5de;}.d{fill:#fed385;}.e,.f{fill:none;stroke:#fed385;stroke-miterlimit:10;stroke-width:3px;}.f{stroke-linecap:round;}</style></defs><g transform="translate(0.013 4.419)"><g transform="translate(-0.013 -4.419)"><path class="a" d="M152.632,13.42c25.282,3.581,57,17.184,62.761,37.221,5.763,20.09-14.422,46.565-33.637,67.747C162.547,139.62,144.326,155.561,122,166.3,99.682,177,73.308,182.564,55.556,172.478c-17.7-10.016-26.721-35.66-37.224-58.244C7.794,91.6-4.25,71.977,1.455,58.221c5.717-13.7,29.182-21.544,46.832-26.475s29.433-7.009,44.8-11.212C108.4,16.274,127.3,9.839,152.632,13.42Z" transform="translate(0.013 -7.222)"/><path class="b" d="M223.231,35.51c-4.054,0-5.321,6.333-5.321,8.865,0,4.3,4.56,22.038,8.865,22.038s8.868-17.491,8.868-19.5S230.322,35.51,223.231,35.51Z" transform="translate(-151.039 -23.258)"/><rect class="c" width="77.652" height="136.332" rx="9" transform="translate(83.235 0) rotate(11.1)"/><path class="d" d="M371.577,15.729l-.77,3.925a3.7,3.7,0,0,1-4.336,2.912L340.2,17.411a3.7,3.7,0,0,1-2.912-4.336l.786-3.925" transform="translate(-233.737 -4.986)"/><line class="e" x2="83.047" y2="16.297" transform="translate(53.731 119.973)"/><circle class="d" cx="3.078" cy="3.078" r="3.078" transform="translate(92.257 131.591)"/><path class="b" d="M199.538,147a8.552,8.552,0,0,0-8.868,8.359c0,14.183,8.107,25.834,11.66,25.834,7.6,0,10.384-4.054,10.384-6.84C212.708,172.312,211.7,147,199.538,147Z" transform="translate(-132.158 -100.537)"/><path class="b" d="M169.865,244.827c1.519,1.519,13.17,13.931,13.17,22.542,0,5.83-1.267,10.384-11.906,10.384-5.066,0-19.249-20.01-19.249-28.114,0-4.56,2.786-15.2,10.639-15.2,2.28,0,7.346,4.054,8.1,5.066a28.367,28.367,0,0,0,2.479,2.28c-.319,1.648-2.08,10.316-2.08,10.316" transform="translate(-105.271 -161.145)"/><path class="f" d="M209.355,267.026a69.686,69.686,0,0,0-5.885-6.576" transform="translate(-141.03 -179.174)"/><path class="b" d="M189.424,287.342c-.758,2.028-1.273,21.612,1.006,32.5-1.534,7.852-7.6,33.447-7.6,33.447h54.979L243.382,331s33.926-29.651,37.218-34.966,11.019-36.347,10.909-39.259c-.089-2.025-36.982-33.183-37.995-34.451s-18.829,16.57,10.807,37.1c-.255,2.532-.239,13.713-.239,13.713s-20.614,7.085-22.707,8.613-6.1,12.3-6.821,14.711C231.752,295.916,189.424,287.342,189.424,287.342Z" transform="translate(-126.724 -152.704)"/><path class="f" d="M337.31,472.949c.69-2.639,4.038-12.118,4.87-14.379" transform="translate(-233.801 -316.5)"/></g></g></svg>