<svg xmlns="http://www.w3.org/2000/svg" width="211.983" height="183.944" viewBox="0 0 211.983 183.944"><g transform="translate(-47.991 -208.72)"><path d="M121.773,379.358c-23.245-6.54-43.534-19.015-57.27-39.328A95.68,95.68,0,0,1,48.54,294.1c-1.323-16.936-.614-34.6,6.14-50.459,6.729-15.8,21.631-26.984,39.205-25.6,14.805,1.164,29.351,8.045,43.272,12.81,13.794,4.722,27.981,8.71,42.677,8.71,18.89,0,38.8-6.128,56.161,5.616,37.611,25.388,26.417,85-2.277,112.142C204.416,385.033,160.026,390.121,121.773,379.358Z" transform="translate(0 1.256)" fill="#acdee8"/><g transform="translate(106.263 208.72)"><path d="M166.228,391.131l-43.2,1.533c-3.721,0-6.818-2.456-7.131-5.649L99.293,215.393c-.348-3.592,2.944-6.673,7.131-6.673l43.2,1.533c3.721,0,6.818,2.456,7.131,5.65l16.609,168.552C173.709,388.049,170.418,391.131,166.228,391.131Z" transform="translate(-99.268 -208.72)" fill="#516a7d"/><g transform="translate(6.036)"><path d="M171.539,391.131l-43.2,1.533c-3.721,0-6.818-2.456-7.13-5.649L104.6,215.393c-.348-3.592,2.944-6.673,7.13-6.673l43.2,1.533c3.721,0,6.818,2.456,7.13,5.65l16.609,168.552C179.017,388.049,175.724,391.131,171.539,391.131Z" transform="translate(-104.579 -208.72)" fill="#8ba7ba"/></g><g transform="translate(7.222)"><path d="M172.583,391.131l-43.192,1.531c-3.721,0-6.818-2.456-7.13-5.649L105.648,215.393c-.348-3.592,2.946-6.673,7.131-6.673l43.2,1.533c3.722,0,6.818,2.456,7.131,5.65l16.609,168.552C180.062,388.049,176.769,391.131,172.583,391.131Z" transform="translate(-105.623 -208.72)" fill="#2a3942"/></g><g transform="translate(10.786 3.065)"><path d="M174.8,386.694a3.835,3.835,0,0,1-2.647,1l-43.2,1.533a3.446,3.446,0,0,1-3.582-2.841l-2.411-24.934L108.77,214.769a2.788,2.788,0,0,1,.935-2.35,3.821,3.821,0,0,1,2.647-1l43.2,1.533a3.446,3.446,0,0,1,3.582,2.841l8.221,83.438,8.39,85.118A2.816,2.816,0,0,1,174.8,386.694Z" transform="translate(-108.759 -211.417)" fill="#e8d127"/></g><g transform="translate(20.043 71.911)"><path d="M165.391,281.187l-45.873,47.876L116.9,302.1,164.366,272Z" transform="translate(-116.905 -271.999)" fill="#fff74d"/></g><g transform="translate(24.991 90.878)"><path d="M173.094,376.153a3.835,3.835,0,0,1-2.647,1l-43.2,1.533a3.446,3.446,0,0,1-3.582-2.841l-2.411-24.934c10.341-14.715,32.174-45.2,44.386-62.223l8.39,85.118A2.816,2.816,0,0,1,173.094,376.153Z" transform="translate(-121.259 -288.689)" fill="#fff74d"/></g><g transform="translate(25.74 3.066)"><path d="M121.918,211.418l2.238,3.455a2.393,2.393,0,0,0,1.733.773l18.143.227a2.4,2.4,0,0,0,1.894-.891l2.046-3.564Z" transform="translate(-121.918 -211.418)" fill="#2a3942"/></g></g><g transform="translate(136.816 351.645)"><ellipse cx="5.176" cy="8.584" rx="5.176" ry="8.584" transform="translate(0 0.828) rotate(-4.588)" fill="#48b59d"/></g><g transform="translate(151.678 350.399)"><ellipse cx="5.175" cy="8.582" rx="5.175" ry="8.582" transform="translate(0 0.828) rotate(-4.588)" fill="#48b59d"/></g><g transform="translate(166.779 349.395)"><path d="M162.882,340.659c.378,4.725-1.623,8.74-4.472,8.969s-5.466-3.416-5.845-8.141,1.623-8.74,4.472-8.969S162.5,335.935,162.882,340.659Z" transform="translate(-152.52 -332.508)" fill="#48b59d"/></g><g transform="translate(128.959 242.959)"><ellipse cx="18.003" cy="29.857" rx="18.003" ry="29.857" transform="translate(0 2.844) rotate(-4.531)" fill="#effffb"/></g><g transform="translate(134.529 318.572)"><path d="M125.438,309.986a1.277,1.277,0,0,1-.069-2.553l36.788-2.046a1.278,1.278,0,0,1,.141,2.551l-36.788,2.046Z" transform="translate(-124.141 -305.385)" fill="#effffb"/></g><g transform="translate(125.346 227.659)"><path d="M154.141,228.963H154.1l-36.788-1.023a1.277,1.277,0,1,1,.041-2.555h.03l36.788,1.023a1.277,1.277,0,0,1-.034,2.555Z" transform="translate(-116.06 -225.386)" fill="#effffb"/></g><g transform="translate(134.535 327.9)"><path d="M125.436,318.7a1.277,1.277,0,0,1-.087-2.552l36.788-2.555a1.278,1.278,0,0,1,.177,2.549L125.526,318.7Z" transform="translate(-124.146 -313.593)" fill="#effffb"/></g><g transform="translate(184.695 358.118)"><path d="M207.524,340.378c.018.115-.026.274-.024.453,0,.351,0,.7.007,1.049l.067,11.051q.015,3.237.034,6.478.034,5.2.059,10.4c0,.8.007,1.594.01,2.384q-7.715.037-15.433.082c-.715.006-1.431.006-2.147.01l-9.031.052-10.706.059-.323,0c-.523,0-1.052.009-1.58.008q-.024-5.4-.056-10.8-.049-8.617-.094-17.226c-.01-1.32-.012-2.64-.024-3.96a6.569,6.569,0,0,0,1.139,0c1.036-.008,2.072-.015,3.106-.015q4.995-.029,9.991-.053,5.92-.037,11.845-.067l9.617-.05c.911-.007,1.835-.015,2.752-.016a2.434,2.434,0,0,1,.649-.006A.2.2,0,0,1,207.524,340.378Z" transform="translate(-168.285 -340.184)" fill="#d49f55"/><g transform="translate(0.238 0.141)"><rect width="31.458" height="39.525" transform="translate(0 31.458) rotate(-89.756)" fill="#d49f55"/><rect width="19.447" height="5.606" transform="matrix(0.004, -1, 1, 0.004, 17.017, 19.518)" fill="#f0cd9c"/></g><path d="M208.075,340.565c.018.115-.025.274-.025.453,0,.351,0,.7.007,1.049l.066,11.051q.017,3.237.035,6.478.032,5.2.058,10.4c0,.8.007,1.594.011,2.384q-7.715.039-15.434.082c-.714.007-1.431.007-2.144.012l-9.032.051-10.707.06-2.472-.207,35-3.657,3.842-28.325Z" transform="translate(-168.264 -340.156)" fill="#d1773b"/><rect width="6.013" height="6.013" transform="translate(31.416 28.941) rotate(-89.757)" fill="#4a6570"/><rect width="0.932" height="6.013" transform="translate(23.477 25.05) rotate(-89.756)" fill="#4a6570"/><rect width="0.932" height="6.013" transform="translate(23.467 27.232) rotate(-89.757)" fill="#4a6570"/></g><g transform="translate(187.339 346.682)"><path d="M171.669,343.594a21.853,21.853,0,0,1,5.307-1.19,8.591,8.591,0,0,0,3,.407,14.28,14.28,0,0,0,2.555-1.185,17.827,17.827,0,0,1,4.122-.952,9.983,9.983,0,0,1,5.5.328,1.392,1.392,0,0,0,.851.152c.927-.253.649-2.763.447-3.4a12.073,12.073,0,0,0-2.614-3.8,10.68,10.68,0,0,0-7.78-3.825,12.815,12.815,0,0,0-8.925,3.142c-2.447,2.386-4.472,7.491-3.038,10.78C171.031,343.918,171.264,343.762,171.669,343.594Z" transform="translate(-170.612 -330.121)" fill="#1b9acc"/><path d="M179.984,340.929a11.893,11.893,0,0,0-2.357.358,3.209,3.209,0,0,0,2.435-.342Z" transform="translate(-169.655 -328.647)" fill="#d64238"/><path d="M178.09,333.273a11.726,11.726,0,0,1,6.624-2.983,8.765,8.765,0,0,0-1.661-.159,12.815,12.815,0,0,0-8.925,3.142c-2.447,2.386-4.472,7.491-3.038,10.78-.058-.132.176-.292.581-.455a19.672,19.672,0,0,1,3-.843C174.126,339.536,175.944,335.364,178.09,333.273Z" transform="translate(-170.612 -330.121)" fill="#fff200" opacity="0.52" style="isolation:isolate"/><path d="M188.47,339.39a7.733,7.733,0,0,1,1.25.369,1.392,1.392,0,0,0,.851.152.881.881,0,0,0,.532-.693A13.535,13.535,0,0,0,188.47,339.39Z" transform="translate(-168.176 -328.881)" fill="#d64238"/><path d="M184.674,332.224a4.636,4.636,0,0,1,4.739,2.577,13.575,13.575,0,0,1,1.24,5.6c-.034-.449-8.759.755-9.331.8C180.21,338.387,181.162,333,184.674,332.224Z" transform="translate(-169.211 -329.839)" fill="#fff"/><path d="M179.646,341.874a4.687,4.687,0,0,1-.6-.057,1.454,1.454,0,0,1-1.267-1.207c-.128-2.1,5.672-2.984,7.008-3.151a26.457,26.457,0,0,1,9.8.8,3.044,3.044,0,0,1,1.855,1.032c1.521,2.211-2.65,1.876-3.624,1.846-2.783-.091-5.562-.1-8.342.057C182.988,341.275,181.184,341.913,179.646,341.874Z" transform="translate(-169.635 -329.14)" fill="#54c5ed"/><path d="M192.877,339.695c-2.783-.09-5.562-.1-8.342.057a33.009,33.009,0,0,0-7.247,1.711c2.5.013,4.793-.418,7.247-.53,2.781-.158,5.559-.148,8.342-.057.949.031,4.929.348,3.729-1.68C195.879,339.892,193.569,339.717,192.877,339.695Z" transform="translate(-169.701 -328.883)" fill="#1b9acc"/></g><g transform="translate(143.459 259.64)"><path d="M134.84,284.894a2.843,2.843,0,0,1-2.647-3.873l9.993-25.684a2.841,2.841,0,0,1,5.3,2.061l-9.993,25.683A2.844,2.844,0,0,1,134.84,284.894Z" transform="translate(-131.999 -253.527)" fill="red"/></g><g transform="translate(137.11 264.662)"><path d="M149.1,277.3a2.482,2.482,0,0,1-1.431-.456L127.5,262.648a2.613,2.613,0,0,1-.647-3.585,2.489,2.489,0,0,1,3.512-.66L150.535,272.6a2.615,2.615,0,0,1,.647,3.587A2.511,2.511,0,0,1,149.1,277.3Z" transform="translate(-126.412 -257.946)" fill="red"/></g></g></svg>