<svg xmlns="http://www.w3.org/2000/svg" width="201.881" height="200" viewBox="0 0 201.881 200"><g transform="translate(-2.12 -6)"><g transform="translate(62.771 6)"><path d="M439.258,135.225V219.3c0,6.144-4.544,11.124-10.148,11.124H369.488c-5.6,0-10.148-4.98-10.148-11.124V52.464c0-6.142,4.542-11.122,10.147-11.124h59.623c5.6,0,10.147,4.979,10.148,11.123v82.763" transform="translate(-354.496 -35.878)" fill="#fff"/><rect width="39.861" height="9.952" rx="4.976" transform="translate(24.872 1.456)" fill="#f3f3f3"/><path d="M402.919,6H342.683C334.572,6.006,328,13.177,328,22.021V189.979c0,8.844,6.572,16.016,14.683,16.021h60.236c8.114,0,14.692-7.173,14.692-16.021V22.021C417.612,13.173,411.034,6,402.919,6Zm9.842,99.351v83.635c0,6.112-4.544,11.066-10.148,11.066H342.992c-5.6,0-10.148-4.954-10.148-11.066V23.022c0-6.11,4.542-11.064,10.147-11.066h59.623c5.6,0,10.147,4.953,10.148,11.064Z" transform="translate(-328 -6)" fill="#f3f3f3"/><rect width="65.522" height="32.086" transform="translate(12.042 22.15)" fill="#f3f3f3"/><rect width="87.414" height="3.019" transform="translate(15.708 87.695)" fill="#f3f3f3"/><rect width="87.414" height="3.019" transform="translate(15.708 96.363)" fill="#f3f3f3"/><rect width="87.414" height="3.019" transform="translate(15.708 105.03)" fill="#f3f3f3"/><rect width="87.414" height="3.019" transform="translate(15.708 113.698)" fill="#f3f3f3"/><rect width="87.414" height="3.019" transform="translate(15.708 122.366)" fill="#f3f3f3"/><rect width="87.414" height="3.019" transform="translate(15.708 131.034)" fill="#f3f3f3"/><rect width="87.414" height="3.019" transform="translate(15.708 139.702)" fill="#f3f3f3"/><rect width="87.414" height="3.019" transform="translate(15.708 148.37)" fill="#f3f3f3"/><rect width="60.816" height="3.019" transform="translate(32.881 166.232)" fill="#f3f3f3"/><rect width="67.043" height="3.019" transform="translate(32.881 172.578)" fill="#f3f3f3"/><rect width="9.87" height="3.134" transform="translate(11.66 78.809)" fill="#f3f3f3"/><rect width="9.87" height="3.134" transform="translate(23.969 78.809)" fill="#f3f3f3"/><rect width="9.87" height="3.134" transform="translate(37.105 78.809)" fill="#f3f3f3"/><circle cx="6.561" cy="6.561" r="6.561" transform="translate(16.263 163.937)" fill="#f3f3f3"/><rect width="81.284" height="6.444" transform="translate(15.708 65.695)" fill="#e2e2e2"/></g><g transform="translate(2.12 17.283)"><rect width="5.734" height="5.116" transform="translate(54.009 173.733) rotate(-53.17)" fill="#de8e68"/><rect width="6.243" height="4.066" transform="translate(43.343 178.889)" fill="#de8e68"/><path d="M106.544,629.41S93.93,672.485,93.93,673.359,129.135,703,129.788,703s3.362-5.255,3.362-6.169-8.38-7.827-8.38-7.827Z" transform="translate(-79.74 -527.751)" fill="#56cad8"/><path d="M194.864,702.866l3.915-78.026c-1.839,1.32-11.311,4.019-23.239.706.828,6.85,12.519,77.743,12.519,77.743h6.767Z" transform="translate(-148.736 -523.887)" fill="#74d5de"/><path d="M42.127,413.8c-1.578-.864-18.334-11.947-21.076-11.947s-2.516,1.617-2.516,2.105.337,3.719,8,5.709c.675.827,11.87,12.172,15.213,13.524C41.787,419.62,42.127,413.8,42.127,413.8Z" transform="translate(-15.994 -346.454)" fill="#de8e68"/><path d="M176.031,259.11c-20.8,0-13.5,55.633-12.354,57.233s22.365,2.692,23.669-1.371C188.211,312.283,192.651,259.11,176.031,259.11Z" transform="translate(-136.874 -227.195)" fill="#fed385"/><path d="M11.237,388.71,2.12,382.766,7.1,380.01l8.893,5.6Z" transform="translate(-2.12 -328.758)" fill="#333"/><path d="M258.081,403.843c-.039,1.546,1.284,12.029,3.187,17.068-.72,3.709-4.678,24.471-4.678,24.471l2.782,3.6s10.179-21.617,10.694-25-.72-20.141-.927-20.963S258.081,403.843,258.081,403.843Z" transform="translate(-213.42 -346.144)" fill="#de8e68"/><path d="M260.753,293.325c6.209-.136,7.955,16.363,6.909,17.828s-12.107,2.583-13.363,1.187S254.182,293.469,260.753,293.325Z" transform="translate(-211.133 -256.59)" fill="#fed892"/><path d="M230.033,206.54H223.12V217.4c0,1.391,6.913,1.309,6.913,0Z" transform="translate(-185.753 -186.828)" fill="#d37c59"/><ellipse cx="11.199" cy="6.515" rx="11.199" ry="6.515" transform="translate(31.672 25.452) rotate(-86.74)" fill="#de8e68"/><path d="M147,90.283c0-1.082.618-2.318.618-3.555,0-1.082-.464-2.318-.464-3.864,0-2.627,2.628-3.864,4.019-3.864,2.628,0,3.246,1.855,7.419,1.855,2.473,0,3.555-.618,4.946-.618,4.328,0,4.946,5.41,4.946,6.028,0,2.628,3.555,2.782,3.555,5.564,0,2.627-2.782,5.719-4.946,5.719s-4.173-2.009-4.173-2.628c0-1.391.309-1.7.309-2.628,0-3.246-7.073-4.019-8.154-4.019a19.6,19.6,0,0,0-.964,5.1,6.89,6.89,0,0,1-2.473.464C150.864,93.838,147,92.91,147,90.283Z" transform="translate(-124.608 -79)" fill="#fd8369"/><circle cx="1.623" cy="1.623" r="1.623" transform="translate(43.358 17.311)" fill="#de8e68"/><path d="M205.157,1152.42h-6.635l-10.661,4.212v1.6h17.3Z" transform="translate(-156.288 -969.925)"/><path d="M333.268,1083.69l-3.654,4.878-2.774,10.157,1.178.883,9.524-12.717Z" transform="translate(-271.834 -911.818)"/><path d="M714.272,706.1c-.981,0-1.442,2.512-1.442,4.59a104.269,104.269,0,0,0,1.723,18.7c.212,0,.427-.014.644-.014,2.955,0,5.351.83,5.351,1.855s-2.346,1.836-5.255,1.855c.045.2.088.406.135.609,2.849.042,5.124.855,5.124,1.855,0,.892-1.819,1.637-4.241,1.813,5.232,20.275,15.235,36.28,21.981,43.74h8.759v-7.385C747.048,760.843,724.875,706.1,714.272,706.1Z" transform="translate(-590.796 -592.588)" fill="#56cad8"/><path d="M896.11,673.528c-5.794,0-6.411,6.216-10.332,6.216-1.513,0-1.932-1.6-1.932-3.108,0-2.576,4.162-12.141,4.511-18.283a6.8,6.8,0,0,1-1.236.111c-2.742,0-4.966-1.594-4.966-3.555s2.224-3.555,4.966-3.555c.124,0,.246,0,.366.011-1.312-4.524-4.382-9.246-11.128-9.246-11.088,0-14.113,19.657-15.793,27.637-1.04,4.946-12.107,22.681-12.107,35.808,0,11.57,3.555,21.439,4.482,21.439h11.148c0-3.555,6.913-10.122,8.558-11.92,11.379-12.437,30.139-18.094,30.139-32.643C902.794,679.24,901.982,673.528,896.11,673.528Z" transform="translate(-700.906 -538.497)" fill="#74d5de"/></g></g></svg>