<svg xmlns="http://www.w3.org/2000/svg" xmlns:xlink="http://www.w3.org/1999/xlink" width="213.165" height="184.57" viewBox="0 0 213.165 184.57"><defs><clipPath id="a"><path d="M211.687,348.959a3.369,3.369,0,0,1-2.329.881l-38.01,1.349a3.032,3.032,0,0,1-3.152-2.5l-2.122-21.941c9.1-12.949,28.312-39.773,39.058-54.754l7.383,74.9A2.477,2.477,0,0,1,211.687,348.959Z" transform="translate(-166.074 -271.994)" fill="none"/></clipPath></defs><g transform="translate(-55.356 -78.129)"><path d="M129.252,241.212c-29.684-7.247-59.625-24.8-67.369-56.806C55.172,154.981,50.01,123.491,65.5,96.131c8.776-13.938,24.263-20.649,40.782-17.036,28.393,6.711,52.656,21.166,81.565,21.166,19.1,0,39.234-6.195,56.786,5.679,20.649,13.938,24.779,38.717,23.746,61.432a69.693,69.693,0,0,1-2.882,15.82c-6.193,20.434-21.33,37.939-39.885,49.063a94.788,94.788,0,0,1-14.472,7.092c-17.615,7.524-37.232,9.073-55.974,7.027A155.066,155.066,0,0,1,129.252,241.212Z" transform="translate(0)" fill="#acdee8"/><ellipse cx="53.35" cy="3.762" rx="53.35" ry="3.762" transform="translate(147.165 255.174)" fill="#9dbdcf"/><g transform="translate(90.524 98.24)"><path d="M182.4,277.6l-38.01,1.349c-3.274,0-6-2.161-6.275-4.971L123.5,122.958c-.306-3.161,2.591-5.872,6.275-5.872l38.01,1.349c3.274,0,6,2.161,6.275,4.972l14.615,148.319C188.983,274.888,186.087,277.6,182.4,277.6Z" transform="translate(-123.481 -117.086)" fill="#516a7d"/><g transform="translate(5.308)"><path d="M192.685,277.6l-38.011,1.349c-3.274,0-6-2.161-6.274-4.971L133.785,122.958c-.306-3.161,2.591-5.872,6.274-5.872l38.011,1.349c3.274,0,6,2.161,6.274,4.972l14.615,148.319C199.265,274.888,196.368,277.6,192.685,277.6Z" transform="translate(-133.763 -117.086)" fill="#8ba7ba"/></g><g transform="translate(6.352)"><path d="M194.707,277.6,156.7,278.947c-3.274,0-6-2.161-6.274-4.971L135.807,122.958c-.306-3.161,2.592-5.872,6.275-5.872l38.01,1.349c3.275,0,6,2.161,6.275,4.972l14.615,148.319C201.288,274.888,198.391,277.6,194.707,277.6Z" transform="translate(-135.785 -117.086)" fill="#2a3942"/></g><g transform="translate(9.486 2.698)"><path d="M199.971,276.548a3.369,3.369,0,0,1-2.329.881l-38.01,1.349a3.032,3.032,0,0,1-3.152-2.5l-2.122-21.941-12.49-129.076a2.458,2.458,0,0,1,.823-2.068,3.367,3.367,0,0,1,2.329-.881l38.01,1.349a3.032,3.032,0,0,1,3.152,2.5l7.234,73.422,7.383,74.9A2.477,2.477,0,0,1,199.971,276.548Z" transform="translate(-141.856 -122.312)" fill="#e8d127"/></g><g transform="translate(17.638 63.28)"><path d="M200.309,247.751,159.943,289.88l-2.3-23.725,41.764-26.489Z" transform="translate(-157.647 -239.667)" fill="#fff74d"/></g><g transform="translate(21.988 79.969)"><path d="M211.687,348.959a3.369,3.369,0,0,1-2.329.881l-38.01,1.349a3.032,3.032,0,0,1-3.152-2.5l-2.122-21.941c9.1-12.949,28.312-39.773,39.058-54.754l7.383,74.9A2.477,2.477,0,0,1,211.687,348.959Z" transform="translate(-166.074 -271.994)" fill="#fff74d"/></g><g transform="translate(22.647 2.698)"><path d="M167.351,122.312l1.969,3.04a2.108,2.108,0,0,0,1.525.68l15.965.2a2.107,2.107,0,0,0,1.667-.784l1.8-3.136Z" transform="translate(-167.351 -122.312)" fill="#2a3942"/></g><g transform="translate(26.883 125.769)"><ellipse cx="4.554" cy="7.552" rx="4.554" ry="7.552" transform="matrix(0.997, -0.08, 0.08, 0.997, 0, 0.728)" fill="#48b59d"/></g><g transform="translate(39.961 124.673)"><ellipse cx="4.554" cy="7.552" rx="4.554" ry="7.552" transform="translate(0 0.728) rotate(-4.588)" fill="#48b59d"/></g><g transform="translate(53.249 123.789)"><path d="M235.748,364.052c.333,4.158-1.428,7.691-3.935,7.892s-4.81-3.006-5.143-7.164,1.428-7.691,3.935-7.892S235.415,359.895,235.748,364.052Z" transform="translate(-226.63 -356.88)" fill="#48b59d"/></g><g transform="translate(19.969 30.138)"><g transform="translate(0 0)"><ellipse cx="15.84" cy="26.27" rx="15.84" ry="26.27" transform="matrix(0.997, -0.079, 0.079, 0.997, 0, 2.494)" fill="#effffb"/></g><g transform="translate(8.479 15.939)"><path d="M179.158,222.188l7.594,8.754a2.334,2.334,0,0,0,3.93-.663l8.275-20.7a2.337,2.337,0,0,0-.016-1.771l-.013-.033a2.334,2.334,0,0,0-4.319.039l-6.956,17.418-4.921-6.044a2.334,2.334,0,0,0-4.137,1.3h0A2.334,2.334,0,0,0,179.158,222.188Z" transform="translate(-178.587 -206.343)" fill="#48b59d"/></g></g><g transform="translate(24.888 96.666)"><path d="M172.815,308.387a1.124,1.124,0,0,1-.061-2.247l32.372-1.8a1.124,1.124,0,0,1,.124,2.245l-32.372,1.8Z" transform="translate(-171.692 -304.339)" fill="#effffb"/></g><g transform="translate(16.802 16.667)"><path d="M189.525,152.519h-.032l-32.372-.9a1.124,1.124,0,1,1,.062-2.247l32.372.9a1.124,1.124,0,0,1-.03,2.248Z" transform="translate(-156.028 -149.372)" fill="#effffb"/></g><g transform="translate(24.887 104.874)"><path d="M172.814,324.735a1.124,1.124,0,0,1-.077-2.246l32.372-2.248a1.124,1.124,0,1,1,.156,2.243l-32.372,2.248Z" transform="translate(-171.691 -320.239)" fill="#effffb"/></g></g><g transform="translate(112.512 108.762)"><g transform="translate(0 1.766)"><g transform="translate(44.606)"><path d="M254.931,161.238s-2.118-7.284-2.24-8.462-.784-5,1.12-6.124.781-4.5,2.8-5.171c2.217-.739,4.982-.61,7.278-.533,2.846.1,6.524,1.4,7.731,4.3.893,2.143-.2,6.028-.688,8.248Z" transform="translate(-252.48 -140.888)" fill="#4d3426"/><path d="M254.567,152.778c-.123-1.178-.785-5,1.12-6.124s.781-4.5,2.8-5.171a13.733,13.733,0,0,1,3.892-.579,17.517,17.517,0,0,0-5.768.579c-2.023.675-.9,4.047-2.8,5.171s-1.243,4.946-1.12,6.124,2.24,8.462,2.24,8.462l1.646-.8C256.026,158.523,254.664,153.716,254.567,152.778Z" transform="translate(-252.48 -140.889)" fill="#fff200" opacity="0.52" style="mix-blend-mode:overlay;isolation:isolate"/><g transform="translate(0.833 4.497)"><path d="M270.54,165.338a3.179,3.179,0,0,1-1.189,2.032c-1.747,1.274-4.646.157-5.465,2.747-.176.564-.534,1.341-.7,2.1a2.246,2.246,0,0,0,.145,1.7c.14.218.4.443.34.728s-.4.443-.643.534a3.8,3.8,0,0,1-1.589.121c-2.262-.173-6.669-1.214-7.283-3.9a4.319,4.319,0,0,1,.261-2.17c.8-2.675,2.571-6.311,2.146-9.136a7.661,7.661,0,0,1-1.027-.675,2.012,2.012,0,0,1-.42-1.344,3.271,3.271,0,0,1,1.851-2.486c1.629-.765,2.266,1.4,2.8,2.557.188.406.412.922.934.71a1.476,1.476,0,0,0,1.061-1.365,3.787,3.787,0,0,1,.03-1.522c.449-1.165,1.868-1.71,2.627-2.638a3.017,3.017,0,0,0,.558-2.129c.018-.613.691-.843,1.183-1.031.91-.345,2.487-.91,3.415-.315.588.383.788,1.219,1.025,1.832.267.7.631,1.371.837,2.092C272.287,156.871,271.213,162.275,270.54,165.338Z" transform="translate(-254.094 -149.599)" fill="#ffb980"/></g><g transform="translate(0.833 4.497)"><path d="M258.009,166.8c.177-2.358.373-4.233.418-4.736a2.316,2.316,0,0,0-.327-1.779c-1.069-1.193-2.95,2.007-2.987,2.836a2.012,2.012,0,0,0,.42,1.344,7.662,7.662,0,0,0,1.027.675c.425,2.825-1.344,6.461-2.146,9.136a4.319,4.319,0,0,0-.261,2.17c.425,1.861,2.672,2.931,4.764,3.471C257.319,179.506,257.618,171.986,258.009,166.8Z" transform="translate(-254.094 -154.642)" fill="#fff200" opacity="0.52" style="mix-blend-mode:overlay;isolation:isolate"/><path d="M275.286,153.783c-.206-.722-.57-1.389-.837-2.092-.236-.613-.436-1.45-1.025-1.832-.871-.558-2.315-.094-3.241.25.119,4.008.674,8.01-2.189,10.873-.9,1.349-4.046-.45-4.5.9a20.945,20.945,0,0,0-.727,12.994,14.983,14.983,0,0,0,2.519.428,3.8,3.8,0,0,0,1.589-.121c.243-.091.582-.255.643-.534s-.2-.51-.339-.728a2.244,2.244,0,0,1-.146-1.7c.17-.764.528-1.54.7-2.1.819-2.59,3.718-1.474,5.465-2.748a3.179,3.179,0,0,0,1.189-2.032C275.068,162.275,276.141,156.871,275.286,153.783Z" transform="translate(-257.948 -149.599)" fill="#ffb980"/></g><path d="M276.275,183.51l.117,0a8.7,8.7,0,0,1-2.9.826,2.661,2.661,0,0,0-2.054,1.8c-.217.7-.487,1.441-.73,2.1-.59-.5-.636-1.51-.781-2.217a11.223,11.223,0,0,1-.221-2.009c-.041-1.959,1.65-1.174,2.915-.962A26.64,26.64,0,0,0,276.275,183.51Z" transform="translate(-260.813 -161.119)" fill="#ff7657"/><path d="M272.022,166.608a33.921,33.921,0,0,0-6.945.507.177.177,0,0,0-.046-.193c-.594-.542-1.185-1.14-1.825-1.624-.665-.5-1.434-.908-2.139-1.355.325.771.8.973,1.4,1.466q1.1.9,2.236,1.763l-.229.037a6.247,6.247,0,0,0-.52,3.013,10.389,10.389,0,0,0,.175,1.435c.068.355.346.823.186,1.176a7.042,7.042,0,0,1-1.658-1.2,24.025,24.025,0,0,1-4.529-4.84,10.693,10.693,0,0,1,.5,1.208,7.363,7.363,0,0,0,.971,1.239c.532.615,1.109,1.171,1.653,1.769a7.338,7.338,0,0,0,1.228,1.139,8.9,8.9,0,0,0,1.055.633c.153.077.949.294.995.432.088.264.15.421.15.421a4.611,4.611,0,0,0,6.11.805c3.451-2.315,2.909-6.645,2.909-6.645S274.183,166.907,272.022,166.608Z" transform="translate(-255.213 -152.042)" fill="#48b59d"/><path d="M265.929,166.991c-.329.046-.622.089-.853.124a.177.177,0,0,0-.046-.193c-.594-.542-1.185-1.14-1.825-1.624-.665-.5-1.434-.908-2.139-1.354.325.771.8.973,1.4,1.466q1.1.9,2.236,1.763l-.229.037a6.247,6.247,0,0,0-.52,3.013,10.389,10.389,0,0,0,.175,1.435c.068.355.346.823.186,1.176a7.042,7.042,0,0,1-1.658-1.2,24.025,24.025,0,0,1-4.529-4.84,10.653,10.653,0,0,1,.5,1.208,7.363,7.363,0,0,0,.971,1.239c.532.615,1.109,1.171,1.653,1.769a7.338,7.338,0,0,0,1.228,1.139,8.9,8.9,0,0,0,1.055.633c.153.077.949.294.995.432.088.264.15.421.15.421a5.2,5.2,0,0,0,3.115,1.639A12.65,12.65,0,0,1,265.929,166.991Z" transform="translate(-255.213 -152.042)" fill="#fff200" opacity="0.52" style="mix-blend-mode:overlay;isolation:isolate"/></g><g transform="translate(44.816 22.461)"><path d="M264.591,190.957a2.408,2.408,0,0,1-2.475,1.143,4.29,4.29,0,0,1-1.107-.626c-.622-.418-1.243-.831-1.885-1.217a18.955,18.955,0,0,0-3.75-1.854c-.574-.194-1.169-.272-1.76-.413-.418-.1-.736-.25-.726-.731a7.376,7.376,0,0,1,.34-1.609,1.845,1.845,0,0,1,.548-1.065c.642-.475,1.708.068,2.308.35a44.8,44.8,0,0,1,3.906,2.293,16.372,16.372,0,0,0,3.42,1.5c.685.23,1.509.543,1.457,1.41A1.66,1.66,0,0,1,264.591,190.957Z" transform="translate(-252.888 -184.398)" fill="#1b9acc"/></g><g transform="translate(0 67.681)"><g clip-path="url(#a)"><g transform="translate(15.065 65.127)"><path d="M212.322,409.271c-1.668-1.1-1.5-3.378-2.228-5a11.477,11.477,0,0,0-4.525-4.907c-2.126-1.235-5.417-1.807-7.6-.358-1.741,1.156-3.887,4.248-1.944,6.07a41.589,41.589,0,0,0,15.14,9.107c1.147.352,3.361,1.494,4.177.066a3.372,3.372,0,0,0,.314-3.246C214.941,409.834,213.384,409.971,212.322,409.271Z" transform="translate(-195.257 -398.152)" fill="#3c464f"/></g><path d="M198.907,406.236c-1.944-1.822.2-4.914,1.944-6.07a6.508,6.508,0,0,1,4.946-.655c-.076-.047-.151-.1-.228-.145-2.126-1.235-5.417-1.807-7.6-.358-1.741,1.156-3.887,4.248-1.944,6.07a42.227,42.227,0,0,0,14.291,8.828A43.6,43.6,0,0,1,198.907,406.236Z" transform="translate(-180.192 -333.025)" fill="#fff200" opacity="0.52" style="mix-blend-mode:overlay;isolation:isolate"/></g></g><g transform="translate(17.946 78.624)"><path d="M237.989,316.842c-.647,2.7-.629,5.494-2.652,7.7a11.1,11.1,0,0,1-1.668,1.439c-.419.31-.846.607-1.254.917a31.449,31.449,0,0,0-2.784,2.351,39.777,39.777,0,0,0-4.568,5.328,74.92,74.92,0,0,1-5.071,6.542,30.613,30.613,0,0,1-2.814,2.581,8.5,8.5,0,0,0-1.744,1.758c-.36.558-.495,1.219-.832,1.785-.422.7-1.241,1-1.749,1.623a2.629,2.629,0,0,0-.62,2.064c.108.684.6,1.547-.162,2.014a7.861,7.861,0,0,1-2.37.647,5.2,5.2,0,0,1-3.7-.027,8.233,8.233,0,0,1-3.12-3.2,6.031,6.031,0,0,0-1.313-1.263,2.1,2.1,0,0,1-.724-1.587,4.208,4.208,0,0,1,.9-2.751,18.31,18.31,0,0,1,2.626-2.518c.94-.823,1.875-1.664,2.77-2.54a40.31,40.31,0,0,0,4.9-5.867c1.488-2.154,2.841-4.4,4.338-6.551a29.423,29.423,0,0,1,4.978-5.566c1.74-1.488,3.916-2.891,4.973-5a22.349,22.349,0,0,0,1.029-2.94c1.241-3.62.252-7.747-.05-11.529-.252-3.138-.4-6.632,1.605-9.064.719.176,1.443.346,2.162.521a3.823,3.823,0,0,1,1.983.144,5.234,5.234,0,0,1,1.254.639c.755.184,1.506.364,2.262.548l-.522.994a17.47,17.47,0,0,1,4.02,7.23,16.533,16.533,0,0,1,.558,3.017C240.983,310.142,238.875,313.146,237.989,316.842Z" transform="translate(-200.837 -293.192)" fill="#345480"/></g><path d="M205.578,353.069a6.031,6.031,0,0,0-1.313-1.264,2.1,2.1,0,0,1-.724-1.587,4.209,4.209,0,0,1,.9-2.752,18.369,18.369,0,0,1,2.626-2.518c.94-.823,1.875-1.664,2.77-2.54a40.28,40.28,0,0,0,4.9-5.868c1.488-2.154,2.841-4.4,4.339-6.55a29.419,29.419,0,0,1,4.977-5.567c1.74-1.488,3.916-2.891,4.973-5a22.255,22.255,0,0,0,1.029-2.94c1.241-3.619.252-7.747-.049-11.528-.252-3.139-.4-6.632,1.6-9.065.719.176,1.443.346,2.163.522a3.818,3.818,0,0,1,1.983.144,5.235,5.235,0,0,1,1.254.639l.019,0c-.31-.4-.633-.792-.978-1.162l.522-.994c-.756-.184-1.506-.364-2.262-.548a5.234,5.234,0,0,0-1.254-.639,3.823,3.823,0,0,0-1.983-.144c-.72-.175-1.443-.346-2.162-.521-2.006,2.432-1.857,5.926-1.605,9.064.3,3.781,1.291,7.909.05,11.529a22.349,22.349,0,0,1-1.029,2.94c-1.057,2.108-3.233,3.511-4.973,5a29.423,29.423,0,0,0-4.978,5.566c-1.5,2.149-2.851,4.4-4.338,6.551a40.31,40.31,0,0,1-4.9,5.867c-.895.877-1.83,1.717-2.77,2.54a18.31,18.31,0,0,0-2.626,2.518,4.208,4.208,0,0,0-.9,2.751,2.1,2.1,0,0,0,.724,1.587,6.031,6.031,0,0,1,1.313,1.263,8.471,8.471,0,0,0,2.983,3.12C205.768,353.351,205.674,353.211,205.578,353.069Z" transform="translate(-182.891 -214.568)" fill="#fff200" opacity="0.52" style="mix-blend-mode:overlay;isolation:isolate"/><path d="M265.49,320.914c-.647,2.7-.629,5.494-2.652,7.7a11.1,11.1,0,0,1-1.668,1.439c-.593-4.051,1.2-6.627,1.163-10.6-.037-4.031-3.556-5.864-4.018-9.346-.149-1.12-.283-2.239-.418-3.359-.328-2.8-.755-6.146,2.855-4.856a9.571,9.571,0,0,1,1.506.692,18.742,18.742,0,0,1,5.319,4.752,16.532,16.532,0,0,1,.558,3.017C268.485,314.215,266.376,317.218,265.49,320.914Z" transform="translate(-210.393 -218.64)" fill="#294873"/><g transform="translate(45.673 77.313)"><path d="M254.547,292.877a9.588,9.588,0,0,0,.982,3.639,10.589,10.589,0,0,0,1.922,2.439c1.008,1,2.125,1.875,3.112,2.893a15.775,15.775,0,0,1,2.345,3.3c1.514,2.679,2.919,5.436,4.689,7.963.794,1.128,1.813,2.068,2.616,3.185a22.7,22.7,0,0,1,.925,2.094c.465.793,1.185,1.347,1.43,2.271a3.45,3.45,0,0,1-.052,1.953c-.188.569-.475,1.1-.674,1.671a12.385,12.385,0,0,0-.5,1.88c-.219,1.159-.344,2.334-.465,3.5-.366,3.5-.736,7-1.086,10.5-.151,1.488-.282,2.982-.35,4.48a12.94,12.94,0,0,0,.125,3.421c.193.867.653,1.468.329,2.376a21.163,21.163,0,0,1-1.18,2.057,10.016,10.016,0,0,0-.668,3.081,3.787,3.787,0,0,0,.063,2.271c.407.653,1.493.449,2.115.35a21.387,21.387,0,0,0,3.984-.982,16.48,16.48,0,0,0,3.248-1.634,7.732,7.732,0,0,0,2.679-2.309,6.115,6.115,0,0,0,.418-2.762,34.258,34.258,0,0,1,.653-3.7c.418-2.825-.052-5.718.334-8.553.2-1.488.6-2.935.851-4.413a28.388,28.388,0,0,0,.225-4.214,8.623,8.623,0,0,1,.533-3,12.382,12.382,0,0,0,1.128-3.076,18.49,18.49,0,0,0-.235-3.833,21.133,21.133,0,0,0-.8-4.152c-.454-1.384-1.264-2.616-1.8-3.969-.611-1.54-1.081-3.139-1.6-4.716-.95-2.9-2.146-5.713-3.258-8.553-.533-1.363-.992-2.757-1.556-4.115a5.43,5.43,0,0,0-1.232-1.984,4.323,4.323,0,0,1-1.091-1.6" transform="translate(-254.547 -290.652)" fill="#40628f"/></g><path d="M272.914,355.588a10.014,10.014,0,0,1,.669-3.081,21.277,21.277,0,0,0,1.18-2.057c.324-.909-.136-1.509-.329-2.376a12.943,12.943,0,0,1-.125-3.421c.068-1.5.2-2.992.349-4.48.35-3.5.721-7,1.087-10.5.12-1.17.245-2.345.465-3.5a12.265,12.265,0,0,1,.5-1.88c.2-.569.486-1.1.674-1.671a3.454,3.454,0,0,0,.052-1.953c-.246-.924-.966-1.478-1.431-2.271a22.564,22.564,0,0,0-.924-2.094c-.8-1.117-1.823-2.057-2.616-3.185-1.77-2.527-3.175-5.285-4.689-7.963a15.774,15.774,0,0,0-2.345-3.3c-.987-1.018-2.1-1.9-3.112-2.893a10.573,10.573,0,0,1-1.921-2.439,9.569,9.569,0,0,1-.982-3.639l13.58-1.663a4.989,4.989,0,0,1-.275-.562l-18.168,2.225a9.588,9.588,0,0,0,.982,3.639,10.574,10.574,0,0,0,1.922,2.439c1.008,1,2.125,1.875,3.112,2.893a15.775,15.775,0,0,1,2.345,3.3c1.514,2.679,2.919,5.436,4.689,7.963.794,1.128,1.812,2.068,2.616,3.185a22.56,22.56,0,0,1,.925,2.094c.465.793,1.185,1.347,1.43,2.271a3.45,3.45,0,0,1-.052,1.953c-.188.569-.475,1.1-.674,1.671a12.385,12.385,0,0,0-.5,1.88c-.219,1.159-.344,2.334-.465,3.5-.366,3.5-.736,7-1.086,10.5-.151,1.488-.282,2.982-.35,4.48a12.94,12.94,0,0,0,.125,3.421c.193.867.653,1.468.329,2.376a21.163,21.163,0,0,1-1.18,2.057,10.016,10.016,0,0,0-.668,3.081,3.787,3.787,0,0,0,.063,2.271c.407.653,1.493.449,2.115.35a23.673,23.673,0,0,0,2.648-.565A4.683,4.683,0,0,1,272.914,355.588Z" transform="translate(-208.874 -213.339)" fill="#fff200" opacity="0.52" style="mix-blend-mode:overlay;isolation:isolate"/><g transform="translate(39.357 25.438)"><path d="M247.772,190.164c-.5.5-.981,1.008-1.446,1.535a15.866,15.866,0,0,0-3.775,7.843,23.929,23.929,0,0,0,.439,8.742c.611,3.107,1.295,6.2,1.89,9.316.559,2.93.966,5.88,1.264,8.851.3,3.055-.336,5.8-.316,8.847.013,2.115-.9,4.07-.761,6.167.1,1.477.3,3.671,1.712,4.465a6.712,6.712,0,0,0,2.508.644c4.65.569,7.131,1.255,11.621-.34,2.109-.742,4.549-.866,6.539-1.923.738-.392,1.2-.592,1.4-1.437.082-.348-.11-2.045-.67-2.032.842-.02,1.309-1.11,1.037-1.907-.4-1.169-1.3-1.558-1.622-2.783a31.9,31.9,0,0,1-.5-5.006l-.721-7.682c-.517-4.021-1.008-8.052-1.608-12.063a83.306,83.306,0,0,0-2.319-12.2,16.041,16.041,0,0,0-2.971-5.452Z" transform="translate(-242.312 -190.164)" fill="#54c5ed"/></g><path d="M253.282,246.575a6.713,6.713,0,0,1-2.508-.644c-1.415-.794-1.613-2.988-1.712-4.465-.141-2.1.774-4.052.761-6.167-.019-3.05.622-5.792.317-8.847-.3-2.971-.705-5.922-1.264-8.851-.6-3.112-1.279-6.209-1.89-9.316a23.929,23.929,0,0,1-.439-8.742,15.867,15.867,0,0,1,3.776-7.843c.176-.2.358-.394.539-.589l-3.09-.946c-.5.5-.981,1.008-1.446,1.535a15.866,15.866,0,0,0-3.775,7.843,23.929,23.929,0,0,0,.439,8.742c.611,3.107,1.295,6.2,1.89,9.316.559,2.93.966,5.88,1.264,8.851.3,3.055-.336,5.8-.316,8.847.013,2.115-.9,4.07-.761,6.167.1,1.477.3,3.671,1.712,4.465a6.712,6.712,0,0,0,2.508.644c3.309.405,5.522.865,8.14.524C256.184,246.972,254.859,246.768,253.282,246.575Z" transform="translate(-202.956 -164.726)" fill="#fff200" opacity="0.52" style="mix-blend-mode:overlay;isolation:isolate"/><path d="M249.883,239.918c.511,2.386,1.094,4.91,2.81,6.645a12.931,12.931,0,0,0,4.719,2.632l11.708,4.513-.344-7.6A37.635,37.635,0,0,1,250.9,231.892c-.733-1.1-2.52-5.077-2.878-1.71C247.707,233.187,249.253,236.98,249.883,239.918Z" transform="translate(-205.699 -183.445)" fill="#43b7d6"/><path d="M268.491,217.84c.64,4.467-.647,9.113.452,13.489-.183-.729-1.6-1.867-2.061-2.533a22.982,22.982,0,0,1-1.718-2.9,24.142,24.142,0,0,1-2.145-6.5,23.831,23.831,0,0,1-.233-6.837c.15-1.342.817-5.7,2.6-3.141A20.922,20.922,0,0,1,268.491,217.84Z" transform="translate(-212.79 -173.658)" fill="#43b7d6"/><g transform="translate(59.461 139.972)"><path d="M281.531,416.954a8.55,8.55,0,0,0-.016,4.235c.366,1.259,1.682,1.248,2.773,1.3,3.937.178,7.9.094,11.838.068,2.146-.016,4.3.01,6.444-.1.976-.052,2.721.042,3.358-.93a3.926,3.926,0,0,0-.021-3.055,1.5,1.5,0,0,0-1.118-1.118,17.836,17.836,0,0,0-2.527-.3,8.187,8.187,0,0,1-3.917-1.274c-1.383-.966-2.444-2.277-3.953-3.076-.439-.23-.883-.444-1.327-.663" transform="translate(-281.256 -412.03)" fill="#3c464f"/></g><g transform="translate(61.109 42.056)"><path d="M318.926,222.516c.021.1-.01.242,0,.4.02.308.037.612.056.921l.583,9.707q.168,2.843.338,5.69.276,4.567.545,9.133c.042.7.082,1.4.123,2.094q-6.778.4-13.557.805c-.628.039-1.257.073-1.885.111l-7.933.474-9.405.561-.283.017c-.46.028-.925.058-1.388.082q-.278-4.744-.562-9.491-.452-7.568-.9-15.131c-.072-1.16-.137-2.319-.209-3.479a5.741,5.741,0,0,0,1-.057c.91-.056,1.82-.111,2.728-.16q4.388-.263,8.777-.522,5.2-.314,10.405-.621l8.448-.5c.8-.05,1.612-.1,2.418-.145a2.151,2.151,0,0,1,.569-.036A.18.18,0,0,1,318.926,222.516Z" transform="translate(-284.449 -222.356)" fill="#d49f55"/><g transform="translate(0.322 0.23)"><rect width="34.78" height="27.682" transform="translate(0 1.729) rotate(-2.849)" fill="#d49f55"/><rect width="4.932" height="17.108" transform="matrix(0.999, -0.05, 0.05, 0.999, 14.906, 0.987)" fill="#f0cd9c"/></g><path d="M321.006,222.877c.021.1-.009.242,0,.4.019.308.036.613.055.921l.583,9.707q.168,2.843.338,5.69.276,4.567.545,9.133c.042.7.082,1.4.123,2.094q-6.777.4-13.557.805c-.627.039-1.257.073-1.884.112l-7.934.474-9.405.561-2.182-.064,30.579-4.875,2.031-25.071Z" transform="translate(-286.017 -222.555)" fill="#d1773b"/><rect width="5.291" height="5.291" transform="translate(28.704 20.507) rotate(-2.85)" fill="#4a6570"/><rect width="5.291" height="0.82" transform="translate(21.766 21.93) rotate(-2.849)" fill="#4a6570"/><rect width="5.291" height="0.82" transform="translate(21.861 23.848) rotate(-2.85)" fill="#4a6570"/></g><g transform="translate(43.827 45.352)"><path d="M286.554,247.823c-.744.015-1.48.248-2.242.266-1.74.042-3.272-.921-4.783-1.653-5.168-2.5-10.647-4.873-15.456-8.035-1.2-.792-5.053-9.542-4.4-9.662l-8.7,1.609c1.2,4.053,1.629,11.714,6.206,13.621,3.595,1.5,7.143,3.187,10.789,4.544,3.86,1.437,7.987,1.954,11.859,3.351,3.029,1.092,5.36,4.289,8.724,4.324a13.21,13.21,0,0,0,1.974-.179l2.072-.294a2.826,2.826,0,0,0,1.04-.287.958.958,0,0,0,.519-.884c-.337.054-1.281-.992-1.731-1.146-1-.341-1.836-.675-2.206-1.686.511,1.531,2.6,1.029,3.664.564-1.714-1.451-4.29-3.754-6.488-4.359A2.9,2.9,0,0,0,286.554,247.823Z" transform="translate(-250.972 -228.74)" fill="#ffb980"/></g><g transform="translate(43.827 45.352)" opacity="0.52" style="mix-blend-mode:overlay;isolation:isolate"><path d="M332.314,273.825a2.068,2.068,0,0,0,.353.476l.078-.025A1.336,1.336,0,0,1,332.314,273.825Z" transform="translate(-290.323 -250.551)" fill="#fff200"/><path d="M319.355,265.972a6.04,6.04,0,0,0,.761-.077c-.1-.032-.193-.065-.288-.092a2.9,2.9,0,0,0-.84-.1,6.824,6.824,0,0,0-.971.109A5.069,5.069,0,0,0,319.355,265.972Z" transform="translate(-283.406 -246.622)" fill="#fff200"/><path d="M282.434,251.864c-3.872-1.4-8-1.914-11.859-3.351-3.646-1.357-7.194-3.048-10.789-4.544-4.577-1.907-5-9.567-6.205-13.621l6.056-1.12c-.059-.293-.057-.472.031-.488l-8.7,1.609c1.2,4.053,1.629,11.714,6.206,13.621,3.595,1.5,7.143,3.187,10.789,4.544,3.86,1.437,7.987,1.954,11.859,3.351,3.029,1.092,5.36,4.289,8.724,4.324a10.866,10.866,0,0,0,1.557-.121C287.285,255.483,285.136,252.839,282.434,251.864Z" transform="translate(-250.972 -228.74)" fill="#fff200"/></g><g transform="translate(40.381 28.83)"><path d="M257.358,203.552c.078.365.152.726.225,1.091.507,2.611-.026,5.258-.01,7.885.005.715.078,1.425.146,2.136a4.324,4.324,0,0,1,.031,1.039c-.136.877-1.2.6-1.817.491a11.483,11.483,0,0,0-6.888.674,6.417,6.417,0,0,1-1.4.647c-.433.089-.564-.235-.652-.606-.266-1.139-.365-2.3-.674-3.442-.381-1.425-.846-2.825-1.237-4.245a23,23,0,0,1-.648-3.907c-.322-3.266-.4-7.342,3.557-8.453C251.328,195.926,256.668,200.331,257.358,203.552Z" transform="translate(-244.296 -196.734)" fill="#27aae1"/><path d="M257.358,203.552c.078.365.152.726.225,1.091.507,2.611-.026,5.258-.01,7.885.005.715.078,1.425.146,2.136a4.324,4.324,0,0,1,.031,1.039c-.136.877-1.2.6-1.817.491a11.483,11.483,0,0,0-6.888.674,6.417,6.417,0,0,1-1.4.647c-.433.089-.564-.235-.652-.606-.266-1.139-.365-2.3-.674-3.442-.381-1.425-.846-2.825-1.237-4.245a23,23,0,0,1-.648-3.907c-.322-3.266-.4-7.342,3.557-8.453C251.328,195.926,256.668,200.331,257.358,203.552Z" transform="translate(-244.296 -196.734)" fill="#1b9acc"/></g><g transform="translate(40.381 28.83)" opacity="0.52" style="mix-blend-mode:overlay;isolation:isolate"><path d="M248.9,216.91c-.266-1.139-.365-2.3-.674-3.442-.382-1.425-.846-2.825-1.238-4.245a23.048,23.048,0,0,1-.647-3.907c-.322-3.266-.4-7.342,3.557-8.453.026-.007.053-.011.078-.018a4.2,4.2,0,0,0-1.982.018c-3.96,1.111-3.879,5.187-3.557,8.453a23,23,0,0,0,.648,3.907c.391,1.421.856,2.82,1.237,4.245.308,1.139.407,2.3.674,3.442.089.371.219.694.652.606a4.973,4.973,0,0,0,1.26-.574C248.9,216.931,248.9,216.921,248.9,216.91Z" transform="translate(-244.296 -196.736)" fill="#fff200"/></g></g><path d="M252.538,149.315a19.254,19.254,0,0,1,4.67-1.047,7.546,7.546,0,0,0,2.638.358,12.469,12.469,0,0,0,2.248-1.043,15.721,15.721,0,0,1,3.627-.838,8.792,8.792,0,0,1,4.84.289,1.224,1.224,0,0,0,.749.134c.816-.223.571-2.431.393-2.991a10.627,10.627,0,0,0-2.3-3.342,9.4,9.4,0,0,0-6.846-3.366,11.28,11.28,0,0,0-7.854,2.765c-2.153,2.1-3.935,6.592-2.673,9.486C251.977,149.6,252.182,149.463,252.538,149.315Z" transform="translate(-207.452 -137.468)" fill="#1b9acc"/><g transform="translate(44.155)"><path d="M267.271,158.382a10.52,10.52,0,0,0-2.074.315,3.358,3.358,0,0,0,1.224.043,3.306,3.306,0,0,0,.919-.344Z" transform="translate(-258.181 -147.583)" fill="#d64238"/><path d="M258.188,140.233a10.321,10.321,0,0,1,5.829-2.625,7.735,7.735,0,0,0-1.462-.14,11.28,11.28,0,0,0-7.854,2.765c-2.153,2.1-3.935,6.592-2.673,9.486-.051-.116.155-.257.511-.4a17.479,17.479,0,0,1,2.643-.742C254.7,145.744,256.3,142.073,258.188,140.233Z" transform="translate(-251.607 -137.468)" fill="#fff200" opacity="0.52" style="mix-blend-mode:overlay;isolation:isolate"/><path d="M286.2,155.216a6.951,6.951,0,0,1,1.1.325,1.224,1.224,0,0,0,.749.134c.237-.065.383-.3.468-.61A11.939,11.939,0,0,0,286.2,155.216Z" transform="translate(-268.341 -145.977)" fill="#d64238"/></g><path d="M274.84,141.451a4.081,4.081,0,0,1,4.17,2.268,11.946,11.946,0,0,1,1.091,4.932c-.03-.395-7.708.664-8.211.705C270.912,146.874,271.749,142.135,274.84,141.451Z" transform="translate(-217.077 -139.361)" fill="#fff"/><path d="M267.129,155.38a3.884,3.884,0,0,1-.532-.05,1.278,1.278,0,0,1-1.115-1.062c-.113-1.845,4.991-2.626,6.167-2.773a23.3,23.3,0,0,1,8.621.7,2.685,2.685,0,0,1,1.632.908c1.338,1.946-2.332,1.651-3.189,1.624-2.449-.08-4.894-.089-7.341.05C270.07,154.853,268.482,155.415,267.129,155.38Z" transform="translate(-214.164 -144.184)" fill="#54c5ed"/><path d="M278.259,155.47c-2.449-.079-4.894-.089-7.341.05a29.057,29.057,0,0,0-6.377,1.506c2.2.011,4.218-.368,6.377-.466,2.447-.139,4.892-.13,7.341-.05.835.027,4.337.306,3.281-1.478C280.9,155.644,278.868,155.49,278.259,155.47Z" transform="translate(-213.709 -145.965)" fill="#1b9acc"/><path d="M257.166,291.773a24.1,24.1,0,0,0,14.866-.377,8.476,8.476,0,0,0,3.53-2.762,67.109,67.109,0,0,1-7.2,2.087C265.325,291.319,260.2,292.683,257.166,291.773Z" transform="translate(-210.141 -210.597)" fill="#43b7d6"/><path d="M328.793,278.771a27.646,27.646,0,0,0-3.005-.888c-.256-.056-.459.335-.189.449a28.269,28.269,0,0,0,3.029,1.039C329.014,279.484,329.168,278.9,328.793,278.771Z" transform="translate(-243.185 -205.393)" fill="#ff7657"/><path d="M324.564,280.63a17.427,17.427,0,0,0-2.912-.82.175.175,0,0,0-.093.338,17.028,17.028,0,0,0,2.826.908C324.622,281.1,324.824,280.741,324.564,280.63Z" transform="translate(-241.234 -206.326)" fill="#ff7657"/></g></g></svg>