<svg xmlns="http://www.w3.org/2000/svg" viewBox="0 0 159 53.15"><defs><style>.cls-1{fill:#b1b3b6;}.cls-2{fill:#fff;}</style></defs><g id="Layer_2" data-name="Layer 2"><g id="Layer_1-2" data-name="Layer 1"><path class="cls-1" d="M146.34,0H11.21L10,0A18.37,18.37,0,0,0,7.33.25a9.07,9.07,0,0,0-2.53.84A8.45,8.45,0,0,0,2.65,2.65,8.33,8.33,0,0,0,1.09,4.81,8.74,8.74,0,0,0,.26,7.34,17,17,0,0,0,0,10c0,.4,0,.81,0,1.22V41.93c0,.42,0,.81,0,1.23a17,17,0,0,0,.24,2.66,8.74,8.74,0,0,0,.83,2.53,8.23,8.23,0,0,0,1.56,2.14A8.25,8.25,0,0,0,4.8,52.06a9.07,9.07,0,0,0,2.53.84,17.06,17.06,0,0,0,2.66.23l1.22,0H147.78l1.22,0a16.85,16.85,0,0,0,2.66-.23,9.25,9.25,0,0,0,2.54-.84,8.25,8.25,0,0,0,2.15-1.57,8.46,8.46,0,0,0,1.56-2.14,8.74,8.74,0,0,0,.83-2.53,19.78,19.78,0,0,0,.25-2.66V41.93c0-.48,0-1,0-1.45V12.67c0-.49,0-1,0-1.45V10a19.78,19.78,0,0,0-.25-2.66,8.74,8.74,0,0,0-.83-2.53,8.57,8.57,0,0,0-1.56-2.16,8.45,8.45,0,0,0-2.15-1.56,9.25,9.25,0,0,0-2.54-.84A18.13,18.13,0,0,0,149,0l-1.22,0Z"/><path d="M11.22,52,10,52a17.29,17.29,0,0,1-2.48-.21A8,8,0,0,1,5.33,51a7.27,7.27,0,0,1-1.85-1.35,7.19,7.19,0,0,1-1.36-1.86,7.69,7.69,0,0,1-.72-2.2,17.16,17.16,0,0,1-.22-2.49c0-.28,0-1.22,0-1.22V11.22s0-.92,0-1.19A17,17,0,0,1,1.4,7.54a7.69,7.69,0,0,1,.72-2.2A7.15,7.15,0,0,1,3.47,3.48,7.47,7.47,0,0,1,5.33,2.12a7.79,7.79,0,0,1,2.2-.72A17.16,17.16,0,0,1,10,1.18l1.2,0H147.77l1.21,0a16.68,16.68,0,0,1,2.47.22,7.81,7.81,0,0,1,2.22.72,7.42,7.42,0,0,1,3.21,3.22,7.62,7.62,0,0,1,.72,2.19,18.16,18.16,0,0,1,.23,2.51v1.18c0,.5,0,1,0,1.45V40.48c0,.48,0,1,0,1.43s0,.83,0,1.23a16.18,16.18,0,0,1-.22,2.47,7.55,7.55,0,0,1-.72,2.21,7.16,7.16,0,0,1-1.35,1.85A7.26,7.26,0,0,1,153.67,51a7.84,7.84,0,0,1-2.22.74A17.05,17.05,0,0,1,149,52l-1.19,0H11.22Z"/><path class="cls-2" d="M32.91,27A6.57,6.57,0,0,1,36,21.46a6.74,6.74,0,0,0-5.3-2.87c-2.23-.23-4.4,1.33-5.53,1.33s-2.91-1.31-4.8-1.27a7.07,7.07,0,0,0-5.94,3.63c-2.57,4.45-.65,11,1.81,14.58,1.23,1.76,2.67,3.73,4.55,3.66s2.53-1.18,4.76-1.18,2.85,1.18,4.77,1.14,3.22-1.77,4.41-3.55a14.34,14.34,0,0,0,2-4.11A6.36,6.36,0,0,1,32.91,27Z"/><path class="cls-2" d="M29.28,16.22a6.44,6.44,0,0,0,1.48-4.63,6.58,6.58,0,0,0-4.26,2.2A6.19,6.19,0,0,0,25,18.26a5.42,5.42,0,0,0,4.3-2Z"/><path class="cls-2" d="M50.57,34h5L53.1,26.77H53L50.57,34Zm5.64,2.06H49.92l-1.51,4.46H45.74l6-16.5h2.77l6,16.5H57.72l-1.51-4.46Z"/><path class="cls-2" d="M70.75,34.51c0-2.44-1.25-4-3.18-4s-3.15,1.63-3.15,4,1.27,4,3.15,4,3.18-1.59,3.18-4Zm2.54,0c0,3.73-2,6.14-5,6.14a4.08,4.08,0,0,1-3.78-2.11h-.06v6H62v-16h2.39v2h.05a4.26,4.26,0,0,1,3.83-2.12c3,0,5.06,2.41,5.06,6.14Z"/><path class="cls-2" d="M84,34.51c0-2.44-1.25-4-3.17-4s-3.16,1.63-3.16,4,1.27,4,3.16,4S84,37,84,34.51Zm2.54,0c0,3.73-2,6.14-5,6.14a4.08,4.08,0,0,1-3.78-2.11h-.06v6H75.2v-16h2.39v2h0a4.26,4.26,0,0,1,3.83-2.12c3,0,5.06,2.41,5.06,6.14Z"/><path class="cls-2" d="M95.28,35.92c.19,1.64,1.78,2.71,4,2.71s3.58-1.07,3.58-2.55c0-1.28-.91-2-3-2.57L97.63,33c-3-.74-4.44-2.15-4.44-4.45,0-2.85,2.48-4.8,6-4.8s5.88,1.95,6,4.8h-2.49c-.15-1.65-1.51-2.64-3.5-2.64s-3.35,1-3.35,2.47c0,1.16.87,1.85,3,2.38l1.82.44c3.39.8,4.79,2.16,4.79,4.58,0,3.08-2.45,5-6.37,5-3.65,0-6.13-1.89-6.28-4.88Z"/><path class="cls-2" d="M110.74,25.64v2.85H113v2h-2.29v6.63c0,1,.46,1.51,1.47,1.51.25,0,.65,0,.81-.06v1.95a7.5,7.5,0,0,1-1.37.11c-2.44,0-3.39-.92-3.39-3.25V30.45h-1.75v-2h1.75V25.64Z"/><path class="cls-2" d="M123.25,34.51c0-2.6-1.19-4.13-3.19-4.13s-3.19,1.54-3.19,4.13,1.19,4.12,3.19,4.12,3.19-1.52,3.19-4.12Zm-8.89,0c0-3.79,2.23-6.17,5.7-6.17s5.71,2.38,5.71,6.17-2.21,6.16-5.71,6.16-5.7-2.37-5.7-6.16Z"/><path class="cls-2" d="M127.8,28.49h2.36v2.05h.06a2.86,2.86,0,0,1,2.89-2.17,3.67,3.67,0,0,1,.85.09v2.31a3.49,3.49,0,0,0-1.11-.15,2.49,2.49,0,0,0-2.58,2.77v7.13H127.8v-12Z"/><path class="cls-2" d="M137,33.4h6a2.9,2.9,0,0,0-2.95-3.06A3.05,3.05,0,0,0,137,33.4ZM145.34,37c-.33,2.18-2.46,3.68-5.18,3.68-3.5,0-5.67-2.34-5.67-6.11s2.18-6.22,5.57-6.22,5.42,2.29,5.42,5.94v.84H137v.15a3.13,3.13,0,0,0,3.24,3.41A2.72,2.72,0,0,0,143,37Z"/><path class="cls-2" d="M48.63,18.41h1.49c1.66,0,2.62-1,2.62-2.85s-1-2.84-2.62-2.84H48.63v5.69Zm1.63-6.81c2.35,0,3.73,1.45,3.73,3.94s-1.37,4-3.73,4H47.4V11.6Z"/><path class="cls-2" d="M59.81,16.53c0-1.29-.58-2.05-1.6-2.05s-1.61.76-1.61,2.05.58,2.06,1.61,2.06,1.6-.75,1.6-2.06Zm-4.43,0c0-1.92,1.08-3.1,2.83-3.1S61,14.61,61,16.53,60,19.64,58.21,19.64s-2.83-1.17-2.83-3.11Z"/><polygon class="cls-2" points="68.53 19.53 67.3 19.53 66.06 15.12 65.97 15.12 64.74 19.53 63.53 19.53 61.88 13.55 63.08 13.55 64.15 18.11 64.23 18.11 65.47 13.55 66.6 13.55 67.83 18.11 67.92 18.11 68.99 13.55 70.17 13.55 68.53 19.53 68.53 19.53"/><path class="cls-2" d="M71.56,13.55h1.13v.95h.09a1.79,1.79,0,0,1,1.79-1.07,2,2,0,0,1,2.07,2.23v3.87H75.46V16c0-1-.42-1.44-1.29-1.44A1.37,1.37,0,0,0,72.74,16v3.5H71.56v-6Z"/><polygon class="cls-2" points="78.52 11.21 79.7 11.21 79.7 19.53 78.52 19.53 78.52 11.21 78.52 11.21"/><path class="cls-2" d="M85.77,16.53c0-1.29-.58-2.05-1.61-2.05s-1.6.76-1.6,2.05.58,2.06,1.6,2.06,1.61-.75,1.61-2.06Zm-4.43,0c0-1.92,1.08-3.1,2.82-3.1S87,14.61,87,16.53s-1.08,3.11-2.83,3.11-2.82-1.17-2.82-3.11Z"/><path class="cls-2" d="M92.07,17.33v-.5l-1.46.09c-.82,0-1.19.33-1.19.86s.46.85,1.1.85a1.41,1.41,0,0,0,1.55-1.3Zm-3.84.51c0-1.08.8-1.7,2.22-1.79L92.07,16v-.52c0-.63-.41-1-1.22-1-.66,0-1.12.24-1.25.67H88.46c.12-1,1.09-1.69,2.44-1.69s2.35.75,2.35,2v4.09H92.11v-.84H92a2,2,0,0,1-1.8.94,1.81,1.81,0,0,1-2-1.79Z"/><path class="cls-2" d="M96,16.53c0,1.27.6,2,1.6,2s1.61-.78,1.61-2-.62-2-1.61-2-1.6.77-1.6,2Zm-1.22,0c0-1.89,1-3.08,2.49-3.08a2,2,0,0,1,1.83,1.05h.09V11.21h1.18v8.32H99.26v-1h-.1a2.05,2.05,0,0,1-1.87,1.05c-1.53,0-2.49-1.2-2.49-3.1Z"/><path class="cls-2" d="M106.49,16.53c0,1.27.6,2,1.6,2s1.61-.78,1.61-2-.62-2-1.61-2-1.6.77-1.6,2Zm-1.22,0c0-1.89,1-3.08,2.49-3.08a2,2,0,0,1,1.83,1.05h.09V11.21h1.18v8.32h-1.13v-1h-.09a2.08,2.08,0,0,1-1.88,1.05c-1.52,0-2.49-1.2-2.49-3.1Z"/><path class="cls-2" d="M112.82,13.55H114v6h-1.18v-6Zm-.18-1.77a.73.73,0,0,1,.77-.73.73.73,0,1,1,0,1.45.74.74,0,0,1-.77-.72Z"/></g></g></svg>