<svg xmlns="http://www.w3.org/2000/svg" width="48" height="48" viewBox="0 0 48 48">
  <path id="icon-tw-white" d="M208.271,0a24,24,0,1,0,24,24,24,24,0,0,0-24-24m10.654,20.487c.008.194.012.39.012.586a14.257,14.257,0,0,1-21.875,12.049h0a9.609,9.609,0,0,0,7.345-2.1,4.93,4.93,0,0,1-4.6-3.493,4.573,4.573,0,0,0,2.206-.092,4.753,4.753,0,0,1-3.953-4.965,5.14,5.14,0,0,0,2.16.644c-3.815-3.356-1.425-6.62-1.425-6.62a15.062,15.062,0,0,0,10.266,5.19,5,5,0,0,1,8.524-4.549c.253-.071.5-.148.733-.226a17.373,17.373,0,0,0,2.428-1.012c-.244,1.462-2.047,2.69-2.176,2.776l-.007,0h.009a11.565,11.565,0,0,0,2.83-.734,11.206,11.206,0,0,1-2.478,2.543" transform="translate(-184.271)" fill="#fff"/>
</svg>
