<svg width="40" height="40" viewBox="0 0 40 40" fill="none" xmlns="http://www.w3.org/2000/svg">
<rect width="40" height="40" rx="5" fill="#1D9BF0"/>
<path d="M31.706 13.2009C30.871 13.5729 29.974 13.8242 29.031 13.9378C30.004 13.3525 30.7319 12.4314 31.079 11.3463C30.1648 11.8921 29.1643 12.2763 28.121 12.4822C27.4194 11.7292 26.4901 11.23 25.4773 11.0623C24.4646 10.8946 23.4251 11.0677 22.5202 11.5547C21.6154 12.0416 20.8958 12.8153 20.4732 13.7555C20.0505 14.6958 19.9485 15.7499 20.183 16.7544C18.3307 16.6609 16.5186 16.1769 14.8644 15.3339C13.2102 14.4909 11.7508 13.3077 10.581 11.861C10.181 12.5546 9.951 13.3588 9.951 14.2152C9.95055 14.9862 10.1394 15.7454 10.5009 16.4254C10.8623 17.1054 11.3852 17.6853 12.023 18.1135C11.2833 18.0898 10.5599 17.8889 9.913 17.5274V17.5877C9.91293 18.6691 10.285 19.7172 10.9662 20.5541C11.6473 21.3911 12.5956 21.9654 13.65 22.1796C12.9638 22.3663 12.2443 22.3937 11.546 22.26C11.8435 23.1904 12.423 24.0041 13.2034 24.587C13.9837 25.1699 14.9259 25.493 15.898 25.5109C14.2478 26.813 12.2099 27.5194 10.112 27.5163C9.74038 27.5164 9.36908 27.4946 9 27.4509C11.1295 28.8273 13.6083 29.5577 16.14 29.5549C24.71 29.5549 29.395 22.4198 29.395 16.2317C29.395 16.0306 29.39 15.8276 29.381 15.6265C30.2923 14.9641 31.0789 14.1437 31.704 13.204L31.706 13.2009Z" fill="white"/>
</svg>
