<?xml version="1.0" standalone="no"?>
<!DOCTYPE svg PUBLIC "-//W3C//DTD SVG 20010904//EN"
 "http://www.w3.org/TR/2001/REC-SVG-20010904/DTD/svg10.dtd">
<svg version="1.0" xmlns="http://www.w3.org/2000/svg"
 width="2000.000000pt" height="2000.000000pt" viewBox="0 0 2000.000000 2000.000000"
 preserveAspectRatio="xMidYMid meet">
<metadata>
Created by potrace 1.14, written by Peter Selinger 2001-2017
</metadata>
<g transform="translate(0.000000,2000.000000) scale(0.100000,-0.100000)"
fill="#000000" stroke="none">
<path d="M9618 19995 c-2 -1 -68 -6 -148 -10 -80 -3 -161 -8 -180 -10 -19 -2
-73 -6 -120 -10 -203 -16 -345 -32 -580 -65 -207 -29 -218 -31 -465 -76 -245
-44 -804 -179 -905 -218 -19 -8 -39 -14 -45 -15 -35 -5 -272 -79 -463 -145
-229 -80 -573 -216 -759 -301 -43 -20 -109 -50 -148 -68 -231 -105 -775 -389
-783 -409 -2 -4 -8 -8 -13 -8 -10 0 -214 -121 -314 -185 -114 -73 -345 -227
-415 -276 -88 -61 -450 -331 -471 -351 -8 -7 -34 -29 -59 -48 -39 -30 -299
-249 -385 -325 -308 -271 -731 -706 -1010 -1040 -27 -33 -54 -65 -60 -71 -5
-6 -23 -29 -40 -50 -16 -21 -41 -52 -55 -69 -14 -16 -39 -48 -55 -70 -16 -22
-32 -42 -35 -45 -33 -27 -374 -507 -500 -705 -45 -71 -93 -146 -105 -165 -13
-19 -53 -87 -90 -150 -37 -63 -82 -140 -100 -170 -129 -216 -381 -729 -509
-1035 -37 -88 -71 -169 -76 -180 -48 -106 -207 -558 -282 -805 -21 -69 -25
-82 -58 -200 -64 -229 -180 -725 -203 -875 -3 -16 -15 -86 -27 -155 -24 -145
-27 -159 -35 -220 -3 -25 -8 -56 -10 -70 -11 -70 -29 -218 -40 -335 -4 -33 -8
-71 -10 -85 -2 -14 -7 -70 -11 -125 -3 -55 -8 -118 -10 -140 -26 -277 -25
-1115 1 -1400 2 -22 6 -76 10 -120 10 -130 16 -198 20 -230 2 -16 6 -50 9 -75
10 -89 18 -155 21 -170 1 -8 6 -46 10 -85 5 -38 9 -72 10 -75 6 -25 16 -84 21
-125 3 -27 7 -57 9 -65 8 -45 35 -189 40 -215 2 -16 7 -41 10 -55 3 -14 12
-59 20 -100 8 -41 26 -124 40 -185 15 -60 28 -119 31 -130 2 -11 6 -29 8 -40
51 -232 197 -712 316 -1040 152 -418 378 -922 585 -1305 31 -58 66 -123 78
-145 12 -22 27 -47 33 -55 6 -8 25 -40 41 -70 16 -30 48 -86 71 -124 23 -37
42 -70 42 -72 0 -3 9 -17 19 -32 10 -15 40 -61 67 -102 143 -226 311 -473 326
-478 4 -2 8 -8 8 -13 0 -9 263 -364 280 -379 3 -3 23 -27 45 -55 36 -46 305
-365 330 -391 5 -6 55 -60 110 -120 190 -207 525 -536 740 -725 28 -24 52 -46
55 -49 8 -9 250 -211 330 -275 125 -102 346 -265 520 -387 224 -156 369 -249
605 -390 278 -166 735 -405 995 -520 480 -213 934 -378 1415 -512 173 -48 442
-115 570 -141 119 -25 118 -25 145 -30 14 -2 70 -13 125 -24 55 -11 116 -22
135 -25 19 -3 44 -7 55 -10 11 -2 40 -7 65 -10 25 -3 54 -8 65 -10 11 -2 45
-7 75 -12 30 -4 57 -8 60 -9 3 -1 37 -5 75 -9 39 -5 77 -9 85 -11 8 -1 47 -6
85 -9 39 -4 81 -9 95 -11 14 -3 52 -7 85 -9 33 -3 89 -7 125 -11 253 -23 432
-30 835 -30 336 0 595 7 725 20 19 2 71 6 115 9 89 7 177 16 215 21 14 2 57 7
95 11 39 3 79 8 90 10 11 2 43 6 70 10 60 6 348 50 425 64 30 5 69 12 85 15
71 12 98 17 235 46 171 36 446 101 545 129 69 20 206 59 295 85 207 61 699
233 825 289 17 7 113 48 215 91 293 123 775 364 1060 530 500 292 931 592
1370 955 63 52 120 99 126 105 6 5 35 31 65 57 90 77 100 86 204 181 130 118
507 497 610 612 44 49 87 96 95 105 22 22 239 278 280 329 19 24 55 69 80 100
240 295 586 800 794 1158 159 274 373 685 468 898 14 33 38 86 52 118 133 297
295 729 386 1027 18 58 38 123 46 145 53 158 179 668 229 935 3 14 7 36 10 50
2 14 6 36 9 50 2 14 13 77 25 140 11 63 23 138 27 165 3 28 8 59 10 70 2 11 6
41 9 66 3 25 8 56 10 70 5 23 10 67 20 169 5 45 12 113 20 180 3 19 7 76 11
125 3 50 7 108 10 130 12 114 19 379 19 710 0 390 -7 567 -29 825 -4 36 -9 94
-11 130 -3 36 -8 81 -11 100 -2 19 -7 58 -9 85 -3 28 -10 86 -16 130 -6 44
-13 96 -15 115 -3 19 -9 62 -14 95 -5 33 -12 78 -15 100 -6 43 -22 134 -30
175 -3 14 -8 41 -11 60 -4 19 -8 44 -10 55 -2 11 -7 36 -10 55 -14 75 -26 131
-63 295 -18 77 -35 149 -38 160 -2 11 -8 36 -13 55 -75 332 -285 965 -462
1390 -138 334 -380 830 -519 1065 -10 16 -30 52 -44 80 -15 27 -39 67 -53 90
-15 22 -32 49 -38 60 -136 243 -585 892 -750 1085 -12 14 -66 79 -119 145 -54
66 -101 122 -104 125 -3 3 -21 23 -40 45 -180 212 -560 605 -771 798 -41 38
-91 83 -110 101 -70 64 -378 325 -459 389 -20 15 -43 34 -53 42 -132 109 -521
385 -751 534 -155 100 -453 281 -462 281 -3 0 -26 13 -52 29 -138 84 -589 312
-832 420 -495 220 -1037 410 -1551 543 -137 35 -148 38 -180 44 -14 2 -32 7
-40 10 -8 3 -35 9 -60 14 -25 5 -88 19 -140 30 -126 27 -141 30 -170 35 -14 2
-50 9 -80 15 -70 14 -87 18 -130 24 -19 3 -73 12 -120 20 -47 8 -110 17 -140
21 -30 4 -62 9 -70 10 -16 3 -92 13 -150 20 -19 2 -64 7 -100 10 -36 4 -76 8
-90 11 -14 2 -54 6 -90 9 -36 3 -85 8 -109 10 -24 3 -90 7 -145 11 -56 3 -121
8 -146 10 -51 5 -927 14 -932 9z"/>
</g>
</svg>
