<svg width="40" height="40" viewBox="0 0 40 40" fill="none" xmlns="http://www.w3.org/2000/svg">
<rect width="40" height="40" rx="5" fill="#0166FF"/>
<path d="M15.9971 19.8668C17.1301 18.7279 19.1061 18.7279 20.2391 19.8668L20.9461 20.5775L22.3601 19.1561L21.6531 18.4455C20.7101 17.4965 19.4541 16.9728 18.1181 16.9728C16.7821 16.9728 15.5261 17.4965 14.5831 18.4455L12.4611 20.5775C11.5254 21.5211 11 22.7991 11 24.1315C11 25.4638 11.5254 26.7418 12.4611 27.6854C12.925 28.1524 13.4761 28.5226 14.0827 28.7748C14.6894 29.027 15.3396 29.1562 15.9961 29.155C16.6528 29.1564 17.3032 29.0273 17.9101 28.7751C18.5169 28.5229 19.0682 28.1525 19.5321 27.6854L20.2391 26.9747L18.8251 25.5534L18.1181 26.264C17.5546 26.828 16.7918 27.1446 15.9966 27.1446C15.2015 27.1446 14.4387 26.828 13.8751 26.264C13.3136 25.6978 12.9983 24.931 12.9983 24.1315C12.9983 23.332 13.3136 22.5651 13.8751 21.9989L15.9971 19.8668Z" fill="white"/>
<path d="M19.5321 13.4696L18.8251 14.1803L20.2391 15.6016L20.9461 14.891C21.5096 14.327 22.2724 14.0104 23.0676 14.0104C23.8628 14.0104 24.6256 14.327 25.1891 14.891C25.7506 15.4572 26.0659 16.224 26.0659 17.0235C26.0659 17.823 25.7506 18.5899 25.1891 19.1561L23.0671 21.2882C21.9341 22.4271 19.9581 22.4271 18.8251 21.2882L18.1181 20.5775L16.7041 21.9989L17.4111 22.7095C18.3541 23.6585 19.6101 24.1822 20.9461 24.1822C22.2821 24.1822 23.5381 23.6585 24.4811 22.7095L26.6031 20.5775C27.5388 19.6339 28.0642 18.3559 28.0642 17.0235C28.0642 15.6912 27.5388 14.4132 26.6031 13.4696C25.6647 12.5285 24.3932 12 23.0676 12C21.742 12 20.4706 12.5285 19.5321 13.4696Z" fill="white"/>
</svg>
