<?xml version="1.0" encoding="utf-8"?>
<!-- Generator: Adobe Illustrator 25.0.0, SVG Export Plug-In . SVG Version: 6.00 Build 0)  -->
<svg version="1.1" id="Layer_1" xmlns="http://www.w3.org/2000/svg" xmlns:xlink="http://www.w3.org/1999/xlink" x="0px" y="0px"
	 viewBox="0 0 264 280" style="enable-background:new 0 0 264 280;" xml:space="preserve">
<style type="text/css">
	.st0{fill-rule:evenodd;clip-rule:evenodd;fill:#E6E6E6;}
	.st1{filter:url(#Adobe_OpacityMaskFilter);}
	.st2{fill-rule:evenodd;clip-rule:evenodd;fill:#FFFFFF;}
	.st3{mask:url(#mask-2_1_);}
	.st4{fill-rule:evenodd;clip-rule:evenodd;fill:#65C9FF;}
	.st5{display:none;}
	.st6{display:inline;fill-rule:evenodd;clip-rule:evenodd;fill:#E6E6E6;}
	.st7{clip-path:url(#SVGID_2_);}
	.st8{fill-rule:evenodd;clip-rule:evenodd;fill:#D0C6AC;}
	.st9{filter:url(#Adobe_OpacityMaskFilter_1_);}
	.st10{mask:url(#mask-6_1_);}
	.st11{fill-rule:evenodd;clip-rule:evenodd;fill:#FFDBB4;}
	.st12{filter:url(#Adobe_OpacityMaskFilter_2_);}
	.st13{mask:url(#mask-6_2_);fill-rule:evenodd;clip-rule:evenodd;fill-opacity:0.1;}
	.st14{filter:url(#Adobe_OpacityMaskFilter_3_);}
	.st15{mask:url(#react-mask-294_1_);}
	.st16{fill-rule:evenodd;clip-rule:evenodd;fill:#3C4F5C;}
	.st17{filter:url(#Adobe_OpacityMaskFilter_4_);}
	.st18{opacity:0.6;mask:url(#react-mask-294_2_);}
	.st19{fill-rule:evenodd;clip-rule:evenodd;fill-opacity:0.16;}
	.st20{fill-opacity:0.6;}
	.st21{fill-rule:evenodd;clip-rule:evenodd;fill-opacity:0.6;}
	.st22{fill-rule:evenodd;clip-rule:evenodd;fill:#4A312C;}
</style>
<g id="Circle" transform="translate(12.000000, 40.000000)">
	<g id="Circle-Background">
		<circle id="path-1_1_" class="st0" cx="120" cy="120" r="120"/>
	</g>
	<defs>
		<filter id="Adobe_OpacityMaskFilter" filterUnits="userSpaceOnUse" x="0" y="0" width="240" height="240">
			<feColorMatrix  type="matrix" values="1 0 0 0 0  0 1 0 0 0  0 0 1 0 0  0 0 0 1 0"/>
		</filter>
	</defs>
	<mask maskUnits="userSpaceOnUse" x="0" y="0" width="240" height="240" id="mask-2_1_">
		<g class="st1">
			<circle id="path-1_2_" class="st2" cx="120" cy="120" r="120"/>
		</g>
	</mask>
	<g id="Color_x2F_Palette_x2F_Blue-01" class="st3">
		<rect id="_xD83D__xDD8D_Color" class="st4" width="240" height="240"/>
	</g>
</g>
<g id="Mask">
</g>
<g id="Mask_1_">
</g>
<g id="Circle-Background_1_" class="st5">
	<circle id="path-1_4_" class="st6" cx="132" cy="160" r="120"/>
</g>
<g>
	<defs>
		<path id="SVGID_1_" d="M189,179.4c16-18.4,26.1-44.7,26.1-73.9c0-55.6-36.3-100.6-81.2-100.6c-44.8,0-81.2,45-81.2,100.6
			c0,28.5,9.6,54.2,24.9,72.5c-19.8,10.1-36.5,25.6-48.1,44.5C50.6,257,88.6,280,132,280s81.4-23,102.5-57.5
			C223.4,204.4,207.7,189.5,189,179.4z"/>
	</defs>
	<clipPath id="SVGID_2_">
		<use xlink:href="#SVGID_1_"  style="overflow:visible;"/>
	</clipPath>
	<g class="st7">
		<g>
			<path id="path-5_1_" class="st8" d="M156,180.6V199h4l0,0c39.8,0,72,32.2,72,72v9H32v-9c0-39.8,32.2-72,72-72l0,0h4v-18.4
				c-17.2-8.2-29.6-24.9-31.7-44.7C70.5,135.1,66,130.1,66,124v-14c0-5.9,4.3-10.9,10-11.8V92l0,0c0-30.9,25.1-56,56-56l0,0l0,0
				c30.9,0,56,25.1,56,56v6.2c5.7,1,10,5.9,10,11.8v14c0,6.1-4.5,11.1-10.3,11.9C185.6,155.7,173.2,172.4,156,180.6z"/>
		</g>
		<defs>
			<filter id="Adobe_OpacityMaskFilter_1_" filterUnits="userSpaceOnUse" x="0" y="36" width="264" height="244">
				<feColorMatrix  type="matrix" values="1 0 0 0 0  0 1 0 0 0  0 0 1 0 0  0 0 0 1 0"/>
			</filter>
		</defs>
		<mask maskUnits="userSpaceOnUse" x="0" y="36" width="264" height="244" id="mask-6_1_">
			<g class="st9">
				<path id="path-5_2_" class="st2" d="M156,180.6V199h4l0,0c39.8,0,72,32.2,72,72v9H32v-9c0-39.8,32.2-72,72-72l0,0h4v-18.4
					c-17.2-8.2-29.6-24.9-31.7-44.7C70.5,135.1,66,130.1,66,124v-14c0-5.9,4.3-10.9,10-11.8V92l0,0c0-30.9,25.1-56,56-56l0,0l0,0
					c30.9,0,56,25.1,56,56v6.2c5.7,1,10,5.9,10,11.8v14c0,6.1-4.5,11.1-10.3,11.9C185.6,155.7,173.2,172.4,156,180.6z"/>
			</g>
		</mask>
		<g id="Skin_x2F__xD83D__xDC76__xD83C__xDFFD_-03-Brown" class="st10">
			<g id="Color" transform="translate(-32.000000, 0.000000)">
				<rect x="32" y="36" class="st11" width="264" height="244"/>
			</g>
		</g>
		<defs>
			<filter id="Adobe_OpacityMaskFilter_2_" filterUnits="userSpaceOnUse" x="76" y="115" width="112" height="79">
				<feColorMatrix  type="matrix" values="1 0 0 0 0  0 1 0 0 0  0 0 1 0 0  0 0 0 1 0"/>
			</filter>
		</defs>
		<mask maskUnits="userSpaceOnUse" x="76" y="115" width="112" height="79" id="mask-6_2_">
			<g class="st12">
				<path id="path-5_3_" class="st2" d="M156,180.6V199h4l0,0c39.8,0,72,32.2,72,72v9H32v-9c0-39.8,32.2-72,72-72l0,0h4v-18.4
					c-17.2-8.2-29.6-24.9-31.7-44.7C70.5,135.1,66,130.1,66,124v-14c0-5.9,4.3-10.9,10-11.8V92l0,0c0-30.9,25.1-56,56-56l0,0l0,0
					c30.9,0,56,25.1,56,56v6.2c5.7,1,10,5.9,10,11.8v14c0,6.1-4.5,11.1-10.3,11.9C185.6,155.7,173.2,172.4,156,180.6z"/>
			</g>
		</mask>
		<path id="Neck-Shadow" class="st13" d="M188,115v23c0,30.9-25.1,56-56,56s-56-25.1-56-56v-23v15c0,30.9,25.1,56,56,56
			s56-25.1,56-56V115z"/>
		<g id="Clothes">
			<path id="react-path-293_1_" class="st0" d="M166,199.3c37,3,66,34,66,71.8v8.9H32v-8.9c0-38.1,29.6-69.3,67-71.8
				c0,0.4,0,0.7,0,1.1c0,11.9,15,21.5,33.5,21.5s33.5-9.6,33.5-21.5C166,200,166,199.6,166,199.3z"/>
		</g>
		<defs>
			<filter id="Adobe_OpacityMaskFilter_3_" filterUnits="userSpaceOnUse" x="0" y="170" width="264" height="110">
				<feColorMatrix  type="matrix" values="1 0 0 0 0  0 1 0 0 0  0 0 1 0 0  0 0 0 1 0"/>
			</filter>
		</defs>
		<mask maskUnits="userSpaceOnUse" x="0" y="170" width="264" height="110" id="react-mask-294_1_">
			<g class="st14">
				<path id="react-path-293_2_" class="st2" d="M166,199.3c37,3,66,34,66,71.8v8.9H32v-8.9c0-38.1,29.6-69.3,67-71.8
					c0,0.4,0,0.7,0,1.1c0,11.9,15,21.5,33.5,21.5s33.5-9.6,33.5-21.5C166,200,166,199.6,166,199.3z"/>
			</g>
		</mask>
		<g id="Color_x2F_Palette_x2F_Gray-01" class="st15">
			<rect id="_xD83D__xDD8D_Color_1_" y="170" class="st16" width="264" height="110"/>
		</g>
		<defs>
			<filter id="Adobe_OpacityMaskFilter_4_" filterUnits="userSpaceOnUse" x="92.9" y="174.9" width="79.3" height="53.8">
				<feColorMatrix  type="matrix" values="1 0 0 0 0  0 1 0 0 0  0 0 1 0 0  0 0 0 1 0"/>
			</filter>
		</defs>
		<mask maskUnits="userSpaceOnUse" x="92.9" y="174.9" width="79.3" height="53.8" id="react-mask-294_2_">
			<g class="st17">
				<path id="react-path-293_3_" class="st2" d="M166,199.3c37,3,66,34,66,71.8v8.9H32v-8.9c0-38.1,29.6-69.3,67-71.8
					c0,0.4,0,0.7,0,1.1c0,11.9,15,21.5,33.5,21.5s33.5-9.6,33.5-21.5C166,200,166,199.6,166,199.3z"/>
			</g>
		</mask>
		<g id="Shadowy" class="st18">
			<g id="Hola-_xD83D__xDC4B__xD83C__xDFFC_" transform="translate(92.000000, 4.000000)">
				<ellipse class="st19" cx="40.5" cy="197.8" rx="39.6" ry="26.9"/>
			</g>
		</g>
		<g id="Mouth_x2F_Twinkle" transform="translate(2.000000, 52.000000)">
			<path id="Mouth" class="st20" d="M116,98c0,5.4,6.2,9,14,9s14-3.6,14-9c0-1.1-0.9-2-2-2c-1.3,0-1.9,0.9-2,2
				c-1.2,2.9-4.3,4.7-10,5c-5.7-0.3-8.8-2.1-10-5c-0.1-1.1-0.7-2-2-2C116.9,96,116,96.9,116,98z"/>
		</g>
		<g id="Nose_x2F_Default" transform="translate(28.000000, 40.000000)">
			<path id="Nose" class="st19" d="M92,90c0,4.4,5.4,8,12,8l0,0c6.6,0,12-3.6,12-8"/>
		</g>
		<g id="Eyes_x2F_Wink-_xD83D__xDE09_" transform="translate(0.000000, 8.000000)">
			<circle id="Eye" class="st21" cx="106" cy="104" r="6"/>
			<path id="Winky-Wink" class="st21" d="M146.6,107c1.6-3.9,5.5-6.9,10.4-7.2c4.8-0.3,9.1,2,11.2,5.6c0.6,1.1-0.1,2.1-0.9,1.4
				c-2.6-1.9-6.2-3-10-2.7c-3.7,0.3-7,1.7-9.3,3.9C147.1,108.8,146.1,108.1,146.6,107z"/>
		</g>
		<g id="Eyebrow_x2F_Natural_x2F_Raised-Excited-Natural">
			<path id="Eye-Browse-Reddit" class="st21" d="M98.8,83.6l0.9-0.4c5.2-2.1,13.2-1.2,18,1.1c0.6,0.3,0.2,1.2-0.4,1.1
				c-14.9-1.2-25,8.1-28.4,14.4c-0.1,0.2-0.4,0.2-0.5,0C86.2,94.6,92.9,85.9,98.8,83.6z"/>
			<path id="Eye-Browse-Reddit_1_" class="st21" d="M165.2,83.6l-0.9-0.4c-5.2-2.1-13.2-1.2-18,1.1c-0.6,0.3-0.2,1.2,0.4,1.1
				c14.9-1.2,25,8.1,28.4,14.4c0.1,0.2,0.4,0.2,0.5,0C177.8,94.6,171.1,85.9,165.2,83.6z"/>
		</g>
		<path class="st19" d="M157.5,29.6c0,0-23.7-22.4-61.4,1.4c-37.7,23.9-25.5,69.6-25.5,69.6c1.6-1.9,8.5-2,8.5-2
			c17.8-2.1,21.6-18.6,29.9-36.1c2.4-2.9,5.4-6.1,9.3-8.8c-4,5.4-7,11.9-9.3,17.1c-3.2,7.4-6.2,14.3-11.1,20.7
			C95.6,94.5,93.4,97,91,99c2.8-1,5.3-2.3,7.6-3.7c5.6-3.6,10.7-8.4,14.3-14.1c4.1-6.4,6.4-13.8,9.9-20.5
			c4.9-9.3,16.6-14.5,26.3-10.3c2.1,1.4,3.3,2.5,3.3,2.5c3.2-1.3,6.1-1.7,8.8-1.4c5.2,4.9,20.5,20.6,20.6,38.5
			c0,0,1.7-15.9-11.2-34.2c13.7,12,17.2,42.8,17.2,42.8c5.6,1,8.6,5.5,8.6,5.5C206.7,26.4,157.5,29.6,157.5,29.6z"/>
		<path class="st22" d="M157.5,27.6c0,0-23.7-22.4-61.4,1.4c-37.7,23.9-25.5,71.6-25.5,71.6c1.6-1.9,5.5-2.4,5.5-2.4
			c17.8-2.1,24.7-20.1,32.9-37.6c2.4-2.9,5.4-6.1,9.3-8.8c-4,5.4-7,11.9-9.3,17.1c-3.2,7.4-6.2,14.3-11.1,20.7
			C95.6,92.5,93.4,95,91,97c2.8-1,5.3-2.3,7.6-3.7c5.6-3.6,10.7-8.4,14.3-14.1c4.1-6.4,6.4-13.8,9.9-20.5
			c4.9-9.3,16.6-14.5,26.3-10.3c2.1,1.4,3.3,2.5,3.3,2.5c3.2-1.3,6.1-1.7,8.8-1.4c5.2,4.9,20.5,20.6,20.6,38.5
			c0,0,1.7-15.9-11.2-34.2c13.7,12,17.4,44.4,17.4,44.4c5.6,1,8.4,5.9,8.4,5.9C206.7,26.4,157.5,27.6,157.5,27.6z"/>
	</g>
</g>
</svg>
