<svg xmlns="http://www.w3.org/2000/svg" width="48" height="48" viewBox="0 0 48 48">
  <g id="icon-ig-white" transform="translate(-1389.574 -960)">
    <path id="Path_11" data-name="Path 11" d="M415.9,46.114a4.248,4.248,0,1,0,4.248,4.248,4.248,4.248,0,0,0-4.248-4.248" transform="translate(997.67 933.638)" fill="#fff"/>
    <path id="Path_12" data-name="Path 12" d="M412.677,30.967H401.813a5.3,5.3,0,0,0-5.3,5.3V47.135a5.3,5.3,0,0,0,5.3,5.3h10.864a5.3,5.3,0,0,0,5.3-5.3V36.271a5.3,5.3,0,0,0-5.3-5.3m-5.432,17.688A6.952,6.952,0,1,1,414.2,41.7a6.96,6.96,0,0,1-6.952,6.952m6.966-12.186a1.666,1.666,0,1,1,1.666-1.666,1.666,1.666,0,0,1-1.666,1.666" transform="translate(1006.329 942.297)" fill="#fff"/>
    <path id="icon-ig-white-2" data-name="icon-ig-white" d="M389.542,0a24,24,0,1,0,24,24,24,24,0,0,0-24-24m13.44,29.432a8.017,8.017,0,0,1-8.008,8.008H384.109a8.017,8.017,0,0,1-8.008-8.008V18.568a8.017,8.017,0,0,1,8.008-8.008h10.865a8.017,8.017,0,0,1,8.008,8.008Z" transform="translate(1024.032 959.999)" fill="#fff"/>
  </g>
</svg>
