<svg xmlns="http://www.w3.org/2000/svg" width="62" height="62.151" viewBox="0 0 62 62.151"><g transform="translate(-1 -0.849)"><path d="M61,19H48.7a32.424,32.424,0,0,0,.3-4.357V6.1L47.123,5.9A37.7,37.7,0,0,1,32.5,1.132L32,.849l-.5.283A37.723,37.723,0,0,1,16.878,5.9L15,6.1v8.538A32.424,32.424,0,0,0,15.3,19H3a2,2,0,0,0-2,2v2a2,2,0,0,0,2,2H9.538L2.968,41.893l.767,4.6A2.991,2.991,0,0,0,6.694,49H17.305a2.99,2.99,0,0,0,2.959-2.507l.767-4.6L14.462,25h2.257a32.287,32.287,0,0,0,9.534,14.167L25.065,57H21.618a1.99,1.99,0,0,0-1.789,1.1l-.553,1.1A2.649,2.649,0,0,0,19,60.382,2.621,2.621,0,0,0,21.618,63H42.382a2.619,2.619,0,0,0,2.342-3.789l-.553-1.1A1.989,1.989,0,0,0,42.382,57H38.935L37.746,39.167A32.276,32.276,0,0,0,47.28,25h2.257l-6.57,16.894.767,4.6A2.993,2.993,0,0,0,46.694,49H57.305a2.99,2.99,0,0,0,2.959-2.507l.767-4.6L54.462,25H61a2,2,0,0,0,2-2V21a2,2,0,0,0-2-2ZM47,7.9v6.747A30.577,30.577,0,0,1,46.662,19H38.993a5.516,5.516,0,0,0-1.984-4.128L33,11.531V3.669A39.666,39.666,0,0,0,46.9,7.885ZM35,27H29a2,2,0,0,1,0-4h6a2,2,0,0,1,0,4Zm-8-7.877a3.522,3.522,0,0,1,1.271-2.714L32,13.3l3.729,3.107a3.5,3.5,0,0,1,.556,4.822A3.947,3.947,0,0,0,35,21H29a3.953,3.953,0,0,0-1.286.231A3.494,3.494,0,0,1,27,19.123Zm-10-4.48V7.9l.1-.011A39.667,39.667,0,0,0,31,3.669v7.862l-4.009,3.341A5.513,5.513,0,0,0,25.007,19H17.338A30.577,30.577,0,0,1,17,14.643ZM3,21H25.345a5.438,5.438,0,0,0,.7,1.331,4.011,4.011,0,0,0-.486.669H3ZM17.306,47H6.694a1,1,0,0,1-.986-.835L5.181,43H18.82l-.527,3.165A1,1,0,0,1,17.306,47Zm1.232-6H5.462l6.222-16h.632Zm.3-16H25a3.986,3.986,0,0,0,1.97,3.427l-.547,8.207A30.28,30.28,0,0,1,18.838,25Zm24.1,35.1a.619.619,0,0,1-.553.9H21.618A.618.618,0,0,1,21,60.382a.612.612,0,0,1,.065-.276L21.618,59H42.382ZM27.069,57l1.867-28.006c.022,0,.042.006.064.006h6c.022,0,.042-.006.064-.006L36.931,57ZM37.578,36.634l-.547-8.207A3.987,3.987,0,0,0,39,25h6.162A30.29,30.29,0,0,1,37.578,36.634ZM57.306,47H46.694a1,1,0,0,1-.986-.835L45.181,43H58.82l-.527,3.165A1,1,0,0,1,57.306,47Zm1.232-6H45.462l6.222-16h.632ZM61,23H38.444a4.011,4.011,0,0,0-.486-.669,5.438,5.438,0,0,0,.7-1.331H61Z" fill="#afa939"/><path d="M31,49h2v2H31Z" fill="#afa939"/><path d="M31,43h2v2H31Z" fill="#afa939"/><path d="M31,37h2v2H31Z" fill="#afa939"/><path d="M31,31h2v2H31Z" fill="#afa939"/></g></svg>