<svg xmlns="http://www.w3.org/2000/svg" width="54" height="62" viewBox="0 0 54 62"><g transform="translate(-5 -1)"><path d="M23,23a6,6,0,1,0-6,6A6.006,6.006,0,0,0,23,23ZM13,23a4,4,0,1,1,4,4A4,4,0,0,1,13,23Z" fill="#afa939"/><circle cx="1" cy="1" r="1" transform="translate(29 19)" fill="#afa939"/><path d="M25,12.764h2v4.472H25Z" transform="translate(-3.963 13.211) rotate(-26.565)" fill="#afa939"/><path d="M29,12.764h2v4.472H29Z" transform="translate(-3.541 15) rotate(-26.565)" fill="#afa939"/><path d="M53,31H46.9A5.009,5.009,0,0,0,42,27H39v2h3a3,3,0,0,1,3,3v2a4.95,4.95,0,0,0,1.114,3.107A4,4,0,0,0,43,41v2.478a21.54,21.54,0,0,0-11.28-8.006l-.888-.266-.64-2.563A7.013,7.013,0,0,0,34.921,27H35a3.983,3.983,0,0,0,3.384-6.111C41.372,19.62,43,17.914,43,16c0-2.471-2.6-4.317-6.279-5.494L35.3,3.412A3.008,3.008,0,0,0,32.36,1H19.64A3.006,3.006,0,0,0,16.7,3.411L15.28,10.506C11.595,11.683,9,13.529,9,16a3.372,3.372,0,0,0,.124.86A9.979,9.979,0,0,0,14,32.539v5.023a4.008,4.008,0,0,0-1.063.869A15.452,15.452,0,0,0,5,51.944V55.5A7.508,7.508,0,0,0,12.5,63H37V59.907A7.787,7.787,0,0,0,51,55.2V44.414l.879-.879a3.79,3.79,0,0,0,.295-5.053A4.992,4.992,0,0,0,55,34V33A2,2,0,0,0,53,31ZM31.146,37.388c.051.015.1.037.149.053l-1.713,4-2.06-1.545,2.763-2.763ZM25.781,47h.439l2.673,10.693L26,60.586l-2.893-2.893Zm.6-2h-.764l-1.259-2.519L26,41.25l1.641,1.231Zm-5.54-12.77a6.882,6.882,0,0,0,.969.4l-.657,2.627L20,35.723V32.539q.429-.136.842-.309Zm1.11,8.119a3.818,3.818,0,0,0-1.561-2.629l1.369-.548,2.719,2.719-2.06,1.545Zm6.941-4.656L26,38.586l-2.892-2.892.676-2.708c.072,0,.143.014.216.014h4c.073,0,.145-.009.217-.011ZM35,25V21a2,2,0,0,1,0,4Zm6-9c0,1.16-1.643,2.441-4.3,3.394A3.955,3.955,0,0,0,35,19V16H33V26a5.006,5.006,0,0,1-5,5H24a5.046,5.046,0,0,1-.9-.092A10.037,10.037,0,0,0,24.98,29H27a4,4,0,0,0,4-4H29a2,2,0,0,1-2,2h-.841A9.983,9.983,0,0,0,11.975,14.369C14.07,12.569,19.383,11,26,11c8.585,0,15,2.64,15,5ZM18.659,3.8A1,1,0,0,1,19.64,3H32.36a1,1,0,0,1,.98.8l1.223,6.117a40.294,40.294,0,0,0-17.127,0ZM9,23a8,8,0,1,1,8,8A8.009,8.009,0,0,1,9,23Zm7,9.949a9.83,9.83,0,0,0,2,0v3.574L16.807,37H16ZM16,39h2.172a1.829,1.829,0,0,1,1.293,3.121L18.586,43H13.993L14,41A2,2,0,0,1,16,39ZM7,55.5V51.944a13.457,13.457,0,0,1,5-10.477v2.456L10.012,56.847l1.977.305L13.858,45H18V55.5a5.5,5.5,0,0,1-11,0Zm13,0V44.414l.879-.879c.065-.065.113-.141.173-.21l.531,1.238,1.15-.863,1.208,2.416-3.048,12.19L23.586,61h-6A7.472,7.472,0,0,0,20,55.5ZM43.2,61a5.769,5.769,0,0,1-5.186-3.205L37,55.764V47.237l.9-1.789-1.789-.9L35,46.764V61H28.414l2.693-2.693-3.048-12.19L29.267,43.7l1.15.863,2.758-6.435a19.551,19.551,0,0,1,9.424,8.4L41.011,56.849l1.977.305L44.858,45H49V55.2A5.806,5.806,0,0,1,43.2,61Zm7.264-18.879L49.586,43H44.993L45,41a2,2,0,0,1,2-2h2.172a1.829,1.829,0,0,1,1.293,3.121ZM53,34a3,3,0,0,1-6,0V33h6Z" fill="#afa939"/><path d="M48.894,15.37l2.063.257a2.331,2.331,0,0,1,.754,4.4l-1.569.785A5.684,5.684,0,0,0,47.6,28.437l.506,1.011,1.789-.9-.506-1.011A3.707,3.707,0,0,1,49,25.9,3.663,3.663,0,0,1,51.036,22.6l1.569-.785a4.332,4.332,0,0,0-1.4-8.174l-2.063-.257A2.463,2.463,0,0,1,47,10.9a2.533,2.533,0,0,1,1.126-2.115l1.429-.952L48.446,6.168l-1.429.952A4.558,4.558,0,0,0,45,10.959a4.451,4.451,0,0,0,3.894,4.411Z" fill="#afa939"/><path d="M57,17v1.676a4.993,4.993,0,0,1-3.42,4.743l-.69.23a2.761,2.761,0,0,0-1.08,4.574l.483.483,1.414-1.414-.483-.483A.753.753,0,0,1,53,26.271a.762.762,0,0,1,.522-.724l.691-.231A6.991,6.991,0,0,0,59,18.676V17Z" fill="#afa939"/></g></svg>