<svg xmlns="http://www.w3.org/2000/svg" width="62" height="62" viewBox="0 0 62 62"><g transform="translate(-1 -1)"><circle cx="1" cy="1" r="1" transform="translate(27 17)" fill="#afa939"/><circle cx="1" cy="1" r="1" transform="translate(35 17)" fill="#afa939"/><path d="M29,25h4a4,4,0,0,0,4-4H35a2,2,0,0,1-2,2H29Z" fill="#afa939"/><path d="M61,49H52.874a17.612,17.612,0,0,0-7.045-12.205,10.357,10.357,0,0,0,3.152-5.6l.15-.749-.684-.342A6.2,6.2,0,0,1,45,24.528V14a13,13,0,0,0-26,0V24.528a6.2,6.2,0,0,1-3.447,5.578l-.684.342.15.749a10.363,10.363,0,0,0,3.151,5.6A17.615,17.615,0,0,0,11.125,49H3a2,2,0,0,0-2,2V61a2,2,0,0,0,2,2H61a2,2,0,0,0,2-2V51a2,2,0,0,0-2-2ZM51,51a6.006,6.006,0,0,1-6,6H39V51H49V49H47V45H45v4H43V43.473a18.939,18.939,0,0,0,3.613-3.337A15.625,15.625,0,0,1,51,51ZM37,55H35a2,2,0,0,1,0-4h2ZM27,51h2a2,2,0,0,1,0,4H27ZM25.581,37.581l.777.259.146.218A6.588,6.588,0,0,0,31,40.915v4.054A17.1,17.1,0,0,1,18.871,38.79a15.636,15.636,0,0,1,4.63-2.563,4.989,4.989,0,0,0,2.08,1.354ZM29.415,13l.428-.429A5.364,5.364,0,0,1,39,16.364v2.574a11.192,11.192,0,0,1-5.628,9.7,2.81,2.81,0,0,1-2.744,0A11.192,11.192,0,0,1,25,18.938V16a3,3,0,0,1,3-3Zm.221,17.372a4.763,4.763,0,0,0,4.728,0c.149-.085.292-.179.437-.269l.164.818a3.153,3.153,0,0,1-5.929,0L29.2,30.1c.145.09.288.184.437.269Zm-2.172,1.919a5.153,5.153,0,0,0,9.073,0l3.216,1.287-.068.208a3.015,3.015,0,0,1-1.9,1.9l-1.428.476-.526.79a4.607,4.607,0,0,1-7.665,0l-.526-.79-1.428-.476a3.009,3.009,0,0,1-1.9-1.9l-.069-.208ZM40.5,36.229a15.611,15.611,0,0,1,4.63,2.563A17.1,17.1,0,0,1,33,44.97V40.916a6.586,6.586,0,0,0,4.5-2.857l.146-.218.777-.259A5.006,5.006,0,0,0,40.5,36.229ZM39,49V45.645a19.109,19.109,0,0,0,2-.932V49Zm-6-2.03a18.92,18.92,0,0,0,4-.655V49H35a3.959,3.959,0,0,0-2,.556Zm-8-1.325V49H23V44.712a19.322,19.322,0,0,0,2,.933Zm2,.67a18.92,18.92,0,0,0,4,.655v2.586A3.959,3.959,0,0,0,29,49H27ZM43,14V24.528A8.183,8.183,0,0,0,46.85,31.5a8.36,8.36,0,0,1-2.769,4.175,17.677,17.677,0,0,0-2.528-1.183c.009-.025.021-.048.029-.073l.665-2-5.373-2.149-.3-1.494A13.2,13.2,0,0,0,41,18.938V16.364a7.363,7.363,0,0,0-11.834-5.851L25.391,5.228A10.979,10.979,0,0,1,43,14ZM17.15,31.5A8.186,8.186,0,0,0,21,24.528V14a10.945,10.945,0,0,1,2.9-7.418l3.219,4.507A5,5,0,0,0,23,16v2.938a13.2,13.2,0,0,0,4.425,9.841l-.3,1.494-5.373,2.149.666,2c.008.025.02.047.029.072a17.639,17.639,0,0,0-2.529,1.183A8.375,8.375,0,0,1,17.15,31.5Zm.237,8.636A18.907,18.907,0,0,0,21,43.473V49H19V45H17v4H15v2H25v6H19a6.006,6.006,0,0,1-6-6,15.623,15.623,0,0,1,4.387-10.864ZM61,61H3V51h8a8.009,8.009,0,0,0,8,8h6a2,2,0,0,0,2-2h2a3.973,3.973,0,0,0,3-1.382A3.974,3.974,0,0,0,35,57h2a2,2,0,0,0,2,2h6a8.009,8.009,0,0,0,8-8h8Z" fill="#afa939"/><path d="M3,19H5v1a2.981,2.981,0,0,0,.52,1.685,5,5,0,1,0,4.96,0A2.981,2.981,0,0,0,11,20V19h2a2,2,0,0,0,2-2V3a2,2,0,0,0-2-2H3A2,2,0,0,0,1,3V17A2,2,0,0,0,3,19ZM8,9a7.026,7.026,0,0,0,1-.079V17H7V8.921A7.026,7.026,0,0,0,8,9ZM8,7A4.984,4.984,0,0,1,3.122,3h9.757A4.986,4.986,0,0,1,8,7ZM3,17V6.894A7.031,7.031,0,0,0,5,8.322V17ZM8,29a3,3,0,1,1,3-3A3,3,0,0,1,8,29Zm1-9a1,1,0,0,1-2,0V19H9Zm2-3V8.321a7.017,7.017,0,0,0,2-1.428V17Z" fill="#afa939"/><path d="M61,1H51a2,2,0,0,0-2,2V17a2,2,0,0,0,2,2h2v1a2.981,2.981,0,0,0,.52,1.685,5,5,0,1,0,4.96,0A2.981,2.981,0,0,0,59,20V19h2a2,2,0,0,0,2-2V3A2,2,0,0,0,61,1ZM56,9a7.026,7.026,0,0,0,1-.079V17H55V8.921A7.026,7.026,0,0,0,56,9Zm0-2a4.984,4.984,0,0,1-4.878-4h9.757A4.986,4.986,0,0,1,56,7ZM51,17V6.894a7.031,7.031,0,0,0,2,1.428V17Zm5,12a3,3,0,1,1,3-3A3,3,0,0,1,56,29Zm1-9a1,1,0,0,1-2,0V19h2Zm2-3V8.321a7.017,7.017,0,0,0,2-1.428V17Z" fill="#afa939"/></g></svg>