<svg id="Layer_1" data-name="Layer 1" xmlns="http://www.w3.org/2000/svg" viewBox="0 0 3595.02 952.7"><defs><style>.cls-1{fill:#293893;}.cls-2{fill:#967f19;}.cls-3{fill:gray;}</style></defs><path class="cls-1" d="M366.44,493.79,272.2,282.32l-4.31,1.92-4.3-1.92L169.35,493.79h-7.41c0,54.15,54.16,61.21,54.16,61.21H319.69s54.16-7.06,54.16-61.21Zm-186.78,0,83.53-187.41V493.79Zm92.94,0V306.38l83.52,187.41Z"/><path class="cls-1" d="M900.89,493.79,806.65,282.32l-4.3,1.92-4.3-1.92L703.81,493.79H696.4c0,54.15,54.15,61.21,54.15,61.21h103.6s54.15-7.06,54.15-61.21Zm-186.77,0,83.52-187.41V493.79Zm92.94,0V306.38l83.52,187.41Z"/><path class="cls-1" d="M492.55,508.67l57.68-144.19L514.52,306.8H469.2l-4.12-6.87H531l28.84-60.42H440.37l-24.72,22v93.39l49.43,38.45c3.4,89.43-24.93,262.86-35,321l77.06,26.27,41.71-262.15Z"/><path class="cls-1" d="M651.19,708.7c-5.4-26.26-42.11-208.52-44.66-315.38l45.32-39.83-9.61-100.25L623,269.72l-22-11-19.23,17.85-24.72-16.48L531,319.16l28.84,46.69L536.5,462,575,446.88,531.62,749l.76.25Z"/><polygon class="cls-1" points="640.87 246.38 635.37 176.34 610.65 169.47 594.17 180.46 599.67 250.5 621.64 260.11 640.87 246.38"/><polygon class="cls-1" points="588.68 172.22 594.17 253.24 580.44 266.98 561.22 253.24 570.83 232.64 550.23 232.64 546.11 169.47 568.08 162.6 588.68 172.22"/><polygon class="cls-1" points="536.5 166.72 541.99 234.02 492.55 234.02 487.06 169.47 506.28 159.86 536.5 166.72"/><polygon class="cls-1" points="480.19 168.1 484.31 234.02 429.38 234.02 436.25 169.47 455.47 159.86 480.19 168.1"/><path class="cls-1" d="M807,245a22,22,0,0,0-22,22c0,.75,0,1.5.11,2.24-.07-.74-.11-1.49-.11-2.24,0-.12,0-.23,0-.34-12-2.75-27.48-10.64-41.22-31.25-14.71-22.07-43.94-38.45-100.25-45.32l5.5,46.69s64.54,1.38,90.63,26.1c19.51,18.48,45.94,28.51,67.21,26.08H807A22,22,0,1,0,807,245Zm-15.57,37.47h0Zm-6.14-12.28c.06.4.11.81.19,1.21C785.43,271,785.38,270.59,785.32,270.19Zm.48,2.34c.08.32.15.65.25,1C786,273.18,785.88,272.85,785.8,272.53Zm.7,2.21c.1.26.18.52.28.78C786.68,275.26,786.6,275,786.5,274.74Zm.93,2.12c.1.19.17.39.27.57C787.6,277.25,787.53,277.05,787.43,276.86Zm1.17,2.05.2.33Zm1.33,1.85c.05.05.08.11.13.17S790,280.81,789.93,280.76Z"/><path class="cls-1" d="M241.24,267a22,22,0,0,0,22,22h.08c21.28,2.43,47.7-7.6,67.21-26.08,26.1-24.72,90.64-26.1,90.64-26.1l5.49-46.69c-56.3,6.87-85.54,23.25-100.25,45.32-13.74,20.61-29.19,28.5-41.21,31.25,0,.11,0,.22,0,.34a20.87,20.87,0,0,1-.11,2.24,20.87,20.87,0,0,0,.11-2.24,22,22,0,1,0-43.94,0Zm37.53,15.5h0Zm6-11.08c.08-.4.12-.81.18-1.21C284.86,270.59,284.82,271,284.74,271.4Zm-.54,2.1c.1-.32.16-.65.25-1C284.36,272.85,284.3,273.18,284.2,273.5Zm-.74,2c.11-.26.19-.52.29-.78C283.65,275,283.57,275.26,283.46,275.52Zm-.92,1.91c.1-.18.18-.38.27-.57C282.72,277.05,282.64,277.25,282.54,277.43Zm-1.1,1.81c.08-.11.13-.22.2-.33C281.57,279,281.52,279.13,281.44,279.24Zm-1.25,1.69.12-.17Z"/><path class="cls-2" d="M457.85,852.58c12.92,9.44,23.4,21.8,30.91,31.32,3.74,4.85,6.68,9.17,8.68,12.27s3.05,5,3.05,5a116,116,0,0,1-20.67-.93A114.54,114.54,0,0,1,459.47,895a71.7,71.7,0,0,1-10.88-4.94A95.81,95.81,0,0,1,438,883.41a51.13,51.13,0,0,1-4.91-4q-2.32-2.13-4.44-4.33a96.81,96.81,0,0,1-7.59-8.93c-1.12-1.5-2.19-3-3.17-4.49s-1.89-3.08-2.74-4.59c-1.7-3-3.16-5.93-4.4-8.66a108.12,108.12,0,0,1-5.1-13.54,54.29,54.29,0,0,1-1.39-5.44l1.28.26c.84.13,2.07.34,3.61.67a95.66,95.66,0,0,1,12.46,3.6c2.51,1,5.29,1.77,8.16,3s5.87,2.47,8.95,4,6.27,3.18,9.48,5.11A95.56,95.56,0,0,1,457.85,852.58Z"/><path class="cls-2" d="M447.78,947.12a100.41,100.41,0,0,0,40-26.67,108.54,108.54,0,0,0,9.58-11.81c2.1-3,3.14-4.84,3.14-4.84a118.3,118.3,0,0,0-20.83-.12,160.72,160.72,0,0,0-21.19,2.21c-3.9.8-7.91,1.37-12,2.36a121.78,121.78,0,0,0-12.62,3.69l-6.27,2.27q-3.07,1.15-6,2.44c-3.94,1.71-7.72,3.58-11.31,5.51-1.8,1-3.55,2-5.24,2.94s-3.32,1.87-4.9,2.81c-3.16,1.88-6.1,3.76-8.79,5.58-5.37,3.62-9.71,7-12.7,9.39s-4.59,3.89-4.59,3.89.56.22,1.62.57,2.66.75,4.67,1.25A167.13,167.13,0,0,0,397,951.82a97.29,97.29,0,0,0,11.28.82c4,.11,8.22.08,12.56-.16a86.55,86.55,0,0,0,13.35-1.79A112.81,112.81,0,0,0,447.78,947.12Z"/><path class="cls-2" d="M372.87,833.4a109.2,109.2,0,0,1,7.28,9.57c2.25,3.28,4.39,6.38,6.31,9.62A189.62,189.62,0,0,1,396.09,871c2.61,5.48,4.55,10.29,5.84,13.73s1.9,5.49,1.9,5.49-2.09-.28-5.65-1.06c-1.78-.39-3.92-.9-6.35-1.56s-5.08-1.72-8-2.84-5.93-2.47-9.1-4c-1.58-.79-3.2-1.56-4.8-2.51s-3.2-2-4.81-3.07c-6.43-4.34-12.94-9.4-18.41-16.17a89.49,89.49,0,0,1-7.34-10.12,53.35,53.35,0,0,1-2.94-5.22q-1.34-2.67-2.46-5.29a103.46,103.46,0,0,1-6.23-19.47,112.93,112.93,0,0,1-1.92-14.54c-.22-3.55-.16-5.62-.16-5.62s1.71.66,4.53,2.07c1.41.7,3.1,1.6,5,2.69s4.09,2.18,6.38,3.58a167.65,167.65,0,0,1,15.14,10.67,100.71,100.71,0,0,1,8.07,7.2l2,2,2,2Q370.9,831.11,372.87,833.4Z"/><path class="cls-2" d="M342.37,923.35a103.57,103.57,0,0,0,13.51-2.45A89.79,89.79,0,0,0,368,916.74a106.18,106.18,0,0,0,19.18-10.28,111.66,111.66,0,0,0,12-9.57c2.71-2.5,4.12-4.08,4.12-4.08s-2-.69-5.56-1.57c-1.78-.44-3.94-.93-6.43-1.41s-5.24-1.19-8.3-1.72-6.39-1.07-9.94-1.46l-5.5-.53q-2.79-.33-5.73-.55a168,168,0,0,0-25.35.35,125.33,125.33,0,0,0-13.09,2l-6.22,1.31q-3,.66-6,1.43a186.64,186.64,0,0,0-21,6.94c-6,2.25-10.92,4.46-14.34,6.12s-5.34,2.76-5.34,2.76,2,1.29,5.71,3.25c1.84,1,4.08,2.12,6.68,3.35s5.66,2.32,9,3.51a115.84,115.84,0,0,0,23.1,6c4.32.65,8.81,1.13,13.38,1.36,1.14.05,2.29.11,3.45.11s2.34-.06,3.52-.12C337.64,923.81,340,923.62,342.37,923.35Z"/><path class="cls-2" d="M294.14,795.78c1.81,3.71,3.6,7.17,5.09,10.84s2.83,7.29,4,10.91c.58,1.8,1.1,3.62,1.62,5.36s1,3.42,1.47,5.08c.92,3.34,1.69,6.55,2.34,9.56,1.29,6,2.11,11.2,2.59,14.88.22,1.84.39,3.28.51,4.25s.15,1.51.15,1.51l-1.42-.53c-.91-.36-2.21-1-3.84-1.8a132.41,132.41,0,0,1-13-7.49,77.54,77.54,0,0,1-7.94-6c-2.72-2.28-5.48-4.79-8.2-7.52l-2-2.1c-.65-.74-1.29-1.51-1.93-2.29-1.28-1.55-2.53-3.17-3.75-4.83A96.37,96.37,0,0,1,263,815a93.12,93.12,0,0,1-7.92-23,104.25,104.25,0,0,1-1.74-20.54A98.11,98.11,0,0,1,254.54,757c.58-3.54,1.09-5.56,1.09-5.56l1.05.78c.7.5,1.62,1.35,2.9,2.28a98.68,98.68,0,0,1,9.79,8.62A130.72,130.72,0,0,1,294.14,795.78Z"/><path class="cls-2" d="M244.74,876.67a79.16,79.16,0,0,0,13.77.51A109.78,109.78,0,0,0,271.17,876c2-.32,3.92-.66,5.81-1.08s3.74-1,5.5-1.47c3.53-1,6.78-2.16,9.71-3.31a108.26,108.26,0,0,0,13.67-6.46c1.57-.88,2.81-1.67,3.65-2.22l1.27-.86-5.07-2.81A135.63,135.63,0,0,0,292,851.39c-2.93-1.08-6-2.52-9.32-3.72s-6.94-2.44-10.75-3.5l-2.9-.78-2.91-.84c-2-.55-4-1-6.05-1.52a118.92,118.92,0,0,0-13-2.15,137.77,137.77,0,0,0-25.67-1.07,190.26,190.26,0,0,0-21.87,2c-6.39.93-11.79,2.14-15.44,2.94s-5.77,1.46-5.77,1.46l1.23,1.22c.83.76,2,2,3.6,3.25A166.42,166.42,0,0,0,197,858.76q2.2,1.46,4.61,2.94c1.65.93,3.38,1.85,5.17,2.77,3.57,1.83,7.4,3.63,11.42,5.29,2,.82,4.06,1.65,6.19,2.37s4.36,1.3,6.59,1.88A114.74,114.74,0,0,0,244.74,876.67Z"/><path class="cls-2" d="M225.5,741.41a105.37,105.37,0,0,1,2.6,11.74c.32,2,.6,3.92.83,5.87s.52,3.78.71,5.64a172.54,172.54,0,0,1,.9,20.8c-.08,6.21-.28,11.28-.6,15s-.61,5.77-.61,5.77-1.78-1.15-4.67-3.39a86.65,86.65,0,0,1-11-10.24c-2.12-2.26-4.33-4.78-6.55-7.53a107.06,107.06,0,0,1-6.25-9.28,100,100,0,0,1-5.65-10.58,96.61,96.61,0,0,1-4.13-12,74.61,74.61,0,0,1-2.35-12.32A100.14,100.14,0,0,1,188.3,729a105.06,105.06,0,0,1,.82-10.77,92.49,92.49,0,0,1,1.84-9.57,109.23,109.23,0,0,1,4.35-13.92c1.28-3.29,2.19-5.12,2.19-5.12s1.29,1.32,3.28,3.79c1,1.24,2.17,2.76,3.44,4.56s2.59,3.91,4.15,6.1,3.08,4.71,4.61,7.43c.77,1.36,1.53,2.79,2.27,4.27.37.75.74,1.5,1.11,2.27l1.18,2.27a100.64,100.64,0,0,1,4.34,9.94c.66,1.77,1.28,3.61,1.86,5.5S225,739.45,225.5,741.41Z"/><path class="cls-2" d="M159.77,809.37A104.52,104.52,0,0,0,173.06,813c2.16.43,4.29.79,6.37,1.08s4.23.4,6.26.51a113.17,113.17,0,0,0,21.72-1,97.79,97.79,0,0,0,14.84-3.4c3.52-1.09,5.48-1.9,5.48-1.9s-1.54-1.49-4.39-3.81-6.86-5.65-11.93-9.28c-2.53-1.82-5.34-3.7-8.4-5.58s-6.17-4-9.62-5.93-7.13-3.79-11-5.56a120.13,120.13,0,0,0-12-5.13c-4.21-1.55-8.58-2.71-12.66-3.89s-8.18-2.07-12.16-2.82-7.85-1.32-11.55-1.76-7.08-.86-10.3-1.11c-6.39-.54-11.81-.65-15.62-.62s-6,.21-6,.21,1.31,2,3.83,5.36c1.26,1.67,2.82,3.66,4.67,5.87a83.83,83.83,0,0,0,6.5,7.15c2.51,2.48,5.3,5.08,8.35,7.7,1.52,1.31,3.1,2.63,4.74,3.93l2.51,2,2.69,1.84a134.86,134.86,0,0,0,11.58,7c2,1.08,4.11,2.11,6.22,3.08S157.52,808.58,159.77,809.37Z"/><path class="cls-2" d="M170.32,673.14c.09,2,.11,4.07.08,6.1s-.11,4-.15,6c-.14,3.92-.47,7.78-.93,11.53s-1,7.39-1.7,10.85-1.23,6.63-1.91,9.62c-1.34,6-2.77,11-3.88,14.51s-1.88,5.53-1.88,5.53-1.46-1.54-3.75-4.4c-1.14-1.43-2.5-3.19-4-5.25a71.67,71.67,0,0,1-4.65-7.12,116.72,116.72,0,0,1-8.86-19.24,113.05,113.05,0,0,1-3.07-11.67A68.16,68.16,0,0,1,134.11,677a92.86,92.86,0,0,1,.47-12.6,71.93,71.93,0,0,1,2.08-11.59,107,107,0,0,1,7-19.26c.64-1.34,1.28-2.61,1.91-3.81s1.32-2.35,1.95-3.41c1.26-2.12,2.44-3.92,3.44-5.39,2-2.94,3.31-4.54,3.31-4.54s.94,1.6,2.27,4.48,3.34,6.92,5.19,12c.94,2.54,1.86,5.33,2.71,8.36s1.91,6.11,2.69,9.49,1.39,7,1.94,10.74A95.93,95.93,0,0,1,170.32,673.14Z"/><path class="cls-2" d="M91.46,724.88q3,1.9,6,3.54c1,.54,2,1.07,3,1.57s2.07.93,3.09,1.37a110.08,110.08,0,0,0,23.26,7c3.59.62,7.07.95,10.21,1.18a108.21,108.21,0,0,0,15.16,0c3.64-.26,5.71-.62,5.71-.62s-1.15-1.81-3.37-4.75c-1.11-1.47-2.49-3.22-4.12-5.17s-3.62-4-5.6-6.46a162.59,162.59,0,0,0-15.1-15.22c-2.88-2.69-6-5.37-9.39-8s-7.07-5.08-10.75-7.59a125.33,125.33,0,0,0-11.41-6.67c-3.85-2-7.74-3.73-11.35-5.4A176.77,176.77,0,0,0,66.15,672l-4.49-1.31-4-1.14c-2.52-.69-4.74-1.24-6.59-1.66-3.69-.84-5.86-1.16-5.86-1.16s.81,2.29,2.48,6.14A115.1,115.1,0,0,0,55.86,688c1.87,3,4,6.2,6.31,9.47s5.23,6.44,8.2,9.67A113.7,113.7,0,0,0,80,716.58,115.51,115.51,0,0,0,91.46,724.88Z"/><path class="cls-2" d="M131.25,594.4a119.71,119.71,0,0,1-6.14,22.79,173.7,173.7,0,0,1-7.87,19.11c-2.67,5.55-5.26,10.18-7,13.31s-3,4.93-3,4.93-1.15-1.79-2.83-5.06a134.43,134.43,0,0,1-5.56-14.06,96.55,96.55,0,0,1-4.44-20.74c-.22-1.93-.4-3.9-.53-5.89s0-4.07,0-6.14A96.18,96.18,0,0,1,95.2,590c.37-2.12.77-4.17,1.31-6.2s1.21-4,1.9-6A99.08,99.08,0,0,1,103,567a90.27,90.27,0,0,1,11.12-17.2,105,105,0,0,1,9.79-10.64c2.54-2.41,4.14-3.66,4.14-3.66a87,87,0,0,1,3.64,17.75,133.13,133.13,0,0,1-.45,41.13Z"/><path class="cls-2" d="M43,627.23a108.52,108.52,0,0,0,21.24,15.95,114.06,114.06,0,0,0,20.17,8.48,92,92,0,0,0,14.73,3.42c3.66.53,5.78.63,5.78.63s-.79-2-2.39-5.31a138.64,138.64,0,0,0-6.79-13.59c-3.25-5.39-6.72-11.77-11.4-18.22-1.16-1.61-2.38-3.24-3.67-4.87s-2.48-3.31-3.83-5a120,120,0,0,0-8.79-9.83c-1.59-1.61-3.26-3.15-4.88-4.66s-3.19-3-4.81-4.39c-3.24-2.82-6.55-5.43-9.85-7.83-6.69-4.78-12.88-8.87-18.45-12.14s-10.44-5.73-13.9-7.37-5.54-2.43-5.54-2.43a149.55,149.55,0,0,0,5.7,23.15,162.87,162.87,0,0,0,10,21.93A118.59,118.59,0,0,0,43,627.23Z"/><path class="cls-2" d="M110.62,508.83c-1.55,3.75-3.43,7.39-5.27,10.86s-3.7,6.81-5.7,10c-4,6.34-8.41,12.12-12,16.89S80.48,555.27,78,558s-4,4.17-4,4.17-.67-2-1.54-5.6c-.43-1.79-.92-4-1.39-6.47-.23-1.25-.5-2.57-.67-4s-.3-2.91-.42-4.47c-.24-3.11-.4-6.48-.42-10a73.28,73.28,0,0,1,.62-11.18,113.54,113.54,0,0,1,2.18-11.86c.49-2,1-4,1.66-6a63.27,63.27,0,0,1,2.32-6,92.86,92.86,0,0,1,5.79-11.16,71.91,71.91,0,0,1,6.8-9.56,106.42,106.42,0,0,1,14.59-14.34c2.32-1.87,4.46-3.48,6.48-4.85s3.89-2.49,5.42-3.38c3.07-1.79,4.94-2.66,4.94-2.66s.15,1.85.11,5a130.87,130.87,0,0,1-.39,13.15c-.22,2.7-.62,5.64-1.1,8.74s-.88,6.36-1.62,9.76-1.71,6.93-2.86,10.54A95,95,0,0,1,110.62,508.83Z"/><path class="cls-2" d="M17.41,521.08a93,93,0,0,0,8.14,11.15,112,112,0,0,0,9.07,9.14A98.84,98.84,0,0,0,52.27,554.2,109.4,109.4,0,0,0,66,560.82c3.41,1.35,5.43,1.93,5.43,1.93s-.28-2.13-1.05-5.75c-.39-1.81-.9-4-1.56-6.46l-1.08-3.93q-.51-2.08-1.14-4.35c-.85-3-1.86-6.27-3.07-9.67s-2.7-7-4.08-10.65-3.15-7.46-5.1-11.28c-1-1.91-2-3.83-3.13-5.75s-2.13-3.87-3.32-5.79a124.37,124.37,0,0,0-7.45-11c-2.6-3.47-5.43-6.74-8-9.82a178.53,178.53,0,0,0-15.35-15.93c-2.4-2.2-4.7-4.17-6.7-5.89s-3.75-3.17-5.23-4.35c-3-2.36-4.78-3.59-4.78-3.59S.17,451,0,455.15a135.75,135.75,0,0,0,1,17.19c.41,3.51.9,7.3,1.67,11.26s2,8.09,3.27,12.29a124.18,124.18,0,0,0,4.67,12.72A117.45,117.45,0,0,0,17.41,521.08Z"/><path class="cls-2" d="M108.9,420.6a105.09,105.09,0,0,1-7.34,9.46c-2.57,3-5.37,5.81-7.88,8.48a168.52,168.52,0,0,1-15.3,13.85c-2.39,1.93-4.69,3.66-6.69,5.16s-3.75,2.78-5.23,3.82c-3,2.08-4.79,3.17-4.79,3.17s-.25-2.13-.39-5.81a107.41,107.41,0,0,1,.95-15.11c.39-3.09.86-6.42,1.61-9.9S65.75,426.64,67,423a100.51,100.51,0,0,1,4.53-11.11A96.38,96.38,0,0,1,78.15,401a80.49,80.49,0,0,1,7.92-9.62,97.83,97.83,0,0,1,8.86-7.8,91,91,0,0,1,17.24-10.76,108.4,108.4,0,0,1,13.45-5.35C129,366.42,131,366,131,366s-.2,1.84-.86,4.95c-.33,1.56-.77,3.43-1.36,5.55-.31,1.06-.63,2.19-1,3.37s-.64,2.45-1,3.74c-.76,2.6-1.69,5.38-2.82,8.3s-2.54,5.95-3.85,9.12a97.76,97.76,0,0,1-4.89,9.68c-.94,1.63-2,3.28-3,4.93S110.07,418.94,108.9,420.6Z"/><path class="cls-2" d="M15.3,412A108,108,0,0,0,21,424.69a83.13,83.13,0,0,0,6.73,10.9A116.16,116.16,0,0,0,42.24,452c2.31,2.14,4.45,4,6.47,5.58s3.89,2.88,5.42,3.91c3.08,2.07,4.95,3.09,4.95,3.09s.14-2.14.1-5.84.13-8.95-.36-15.22c-.21-3.14-.6-6.53-1-10.12s-.83-7.35-1.52-11.28-1.62-8-2.71-12.15a121.56,121.56,0,0,0-3.66-12.67c-1.48-4.29-3.29-8.44-5.05-12.39s-3.56-7.73-5.48-11.32c-3.81-7.18-8.14-13.64-11.63-19s-6.93-9.68-9.35-12.65-3.94-4.59-3.94-4.59-.74,2.32-1.72,6.4c-.49,2-1,4.52-1.59,7.37-.26,1.42-.57,2.93-.78,4.54S10,359,9.8,360.76c-.32,3.55-.56,7.38-.66,11.42a93,93,0,0,0,.37,12.7c.43,4.4,1.08,8.93,2,13.48q.69,3.4,1.57,6.83C13.64,407.46,14.48,409.74,15.3,412Z"/><path class="cls-2" d="M126.35,334.29c-1.51,1.35-3.1,2.63-4.65,3.89s-3,2.5-4.59,3.67c-3.1,2.36-6.29,4.53-9.47,6.52-6.48,4-12.5,7.37-17.94,10.08s-10.22,4.76-13.62,6.11-5.45,2-5.45,2a121.08,121.08,0,0,1,5-20.29,132.24,132.24,0,0,1,9.2-19.09,97.06,97.06,0,0,1,15.65-18.91A93.33,93.33,0,0,1,120.69,295,105.05,105.05,0,0,1,140,288.49a91.08,91.08,0,0,1,14.18-2.26c3.53-.26,5.59-.24,5.59-.24s-.66,1.73-2,4.59a98.55,98.55,0,0,1-5.91,11.66c-2.9,4.6-6,10-10.29,15.49-1.06,1.36-2.19,2.74-3.38,4.11s-2.3,2.8-3.56,4.19A94.65,94.65,0,0,1,126.35,334.29Z"/><path class="cls-2" d="M36.94,305c.28,2.39.6,4.7,1.06,7s1.07,4.52,1.68,6.68a112.42,112.42,0,0,0,4.24,12.17A97.61,97.61,0,0,0,54.52,350,108.46,108.46,0,0,0,64,361.94c2.48,2.69,4,4.09,4,4.09a121.59,121.59,0,0,0,4.29-20.62A144.14,144.14,0,0,0,74.55,324a134.52,134.52,0,0,0-.79-25.65,138.07,138.07,0,0,0-5.08-25.5,181.55,181.55,0,0,0-7-21c-2.43-6.07-4.84-11.09-6.45-14.48S52.44,232,52.44,232s-1.28,2.06-3.19,5.79-4.12,9.29-6.44,16a122.41,122.41,0,0,0-5.54,23.47q-.48,3.27-.81,6.65c-.23,2.25-.24,4.59-.27,6.92A115,115,0,0,0,36.94,305Z"/><path class="cls-2" d="M162.25,254a103.64,103.64,0,0,1-10.65,5.32c-3.62,1.56-7.3,2.91-10.71,4.22a167.76,167.76,0,0,1-19.73,5.8L113,271.15c-2.43.5-4.58.88-6.36,1.17-3.58.58-5.68.77-5.68.77s.68-2,2.13-5.4a90.59,90.59,0,0,1,7.25-13.25c1.67-2.62,3.55-5.39,5.66-8.23,2.26-2.75,4.75-5.56,7.46-8.32a90.32,90.32,0,0,1,8.84-8,95.46,95.46,0,0,1,10.56-6.9c1.86-1,3.73-2,5.6-2.88.94-.44,1.87-.86,2.8-1.26s1.93-.73,2.89-1.06a95.66,95.66,0,0,1,11.29-3.2A99,99,0,0,1,176,212.81c3.39-.34,6.67-.42,9.65-.43a106.33,106.33,0,0,1,14.38,1c3.46.49,5.44.95,5.44.95s-1,1.59-2.87,4.13c-1,1.27-2.15,2.78-3.57,4.45s-3.16,3.45-4.89,5.51a117.65,117.65,0,0,1-13.44,12.83,98.36,98.36,0,0,1-8.51,6.61C169.06,250,165.64,252,162.25,254Z"/><path class="cls-2" d="M81.46,205.43a109.34,109.34,0,0,0-.29,13.93,83,83,0,0,0,1.43,12.79,117.63,117.63,0,0,0,6.09,21.14c.58,1.47,1.17,2.86,1.74,4.16s1.22,2.57,1.81,3.73c1.17,2.31,2.27,4.29,3.21,5.89,1.88,3.2,3.13,4.93,3.13,4.93s1.06-1.87,2.61-5.22,3.87-8,6.11-13.91c1.14-2.93,2.28-6.13,3.36-9.59s2.39-7,3.43-10.84,1.92-7.94,2.76-12.14a120.41,120.41,0,0,0,2.08-13q.34-3.4.51-6.76c.09-2.25.17-4.45.26-6.6.13-4.31.06-8.54-.16-12.63s-.58-8-1-11.78-.82-7.16-1.34-10.37c-1-6.42-2.16-11.78-3.09-15.52s-1.62-5.87-1.62-5.87-1.64,1.77-4.24,5c-1.3,1.63-2.85,3.63-4.54,6a92.38,92.38,0,0,0-5.35,8.06A145.59,145.59,0,0,0,87.8,178.43c-1.48,4.16-2.82,8.53-3.94,13A83,83,0,0,0,81.46,205.43Z"/><path class="cls-2" d="M214.84,183.73c-3.84,1.16-7.86,1.94-11.63,2.76s-7.57,1.38-11.28,1.82-7.34.71-10.82.88-6.66.35-9.7.38c-6,.09-11.21-.14-14.85-.39s-5.75-.56-5.75-.56,1.13-1.79,3.34-4.72c1.11-1.46,2.48-3.21,4.11-5.15a67.27,67.27,0,0,1,5.75-6.23c2.24-2.15,4.74-4.4,7.46-6.65q2-1.69,4.26-3.37l2.25-1.67,2.43-1.55a110.2,110.2,0,0,1,10.48-5.78c1.84-.88,3.73-1.72,5.65-2.49s4-1.38,6.07-2a89.94,89.94,0,0,1,12.19-2.52c2-.27,3.94-.47,5.87-.61s3.9-.1,5.78-.07a104.45,104.45,0,0,1,20.15,2.34,96.58,96.58,0,0,1,13.86,4.21c3.3,1.27,5.14,2.17,5.14,2.17s-1.31,1.3-3.76,3.31-5.91,4.87-10.34,7.93c-2.21,1.54-4.67,3.11-7.38,4.67s-5.43,3.32-8.51,4.88a106.4,106.4,0,0,1-9.87,4.43A93.44,93.44,0,0,1,214.84,183.73Z"/><path class="cls-2" d="M146.57,118.37a88,88,0,0,0-3.38,13.45,114.27,114.27,0,0,0-1.2,24.52,100.18,100.18,0,0,0,1.25,10.3,112,112,0,0,0,3.56,14.92c1.11,3.52,1.94,5.47,1.94,5.47s1.46-1.56,3.76-4.43c1.15-1.44,2.51-3.21,4-5.28s3.06-4.49,4.9-7,3.65-5.4,5.5-8.49c.92-1.54,1.85-3.15,2.76-4.83l1.37-2.55,1.43-2.56c1.91-3.47,3.74-7.18,5.44-11.12.84-2,1.66-4,2.43-6.08s1.61-4.12,2.34-6.26a127.38,127.38,0,0,0,3.69-12.81c.5-2.13.94-4.24,1.34-6.34s.84-4.07,1.18-6.08A180.39,180.39,0,0,0,191.35,81c.35-6.57.48-11.91.38-15.77s-.27-6-.27-6-2,1.34-5.3,3.89a109.6,109.6,0,0,0-12.6,11.59c-2.45,2.55-5,5.38-7.59,8.45S161,89.8,158.61,93.47a124.76,124.76,0,0,0-6.78,11.7A116.67,116.67,0,0,0,146.57,118.37Z"/><path class="cls-2" d="M281.3,126.65a118.84,118.84,0,0,1-23.33-.6,178.11,178.11,0,0,1-20.24-3.23c-5.94-1.28-11-2.76-14.45-3.74s-5.44-1.74-5.44-1.74l1.07-1.08a42,42,0,0,1,3.14-2.88,135.16,135.16,0,0,1,12.17-8.82c10.42-6.61,25.66-13.33,42.71-14.4a67,67,0,0,1,12.46.29,96.49,96.49,0,0,1,11.5,1.89c1.82.42,3.57.86,5.29,1.38s3.4,1.12,5,1.72c3.22,1.2,6.18,2.48,8.87,3.76a106.12,106.12,0,0,1,12.52,7c1.45,1,2.59,1.78,3.36,2.37l1.18.9L332.78,112A95.43,95.43,0,0,1,321,117.33c-2.56.89-5.18,2.1-8.12,3.06s-6.08,1.93-9.44,2.72l-2.56.57-2.57.63c-1.74.41-3.52.77-5.36,1.08A95.07,95.07,0,0,1,281.3,126.65Z"/><path class="cls-2" d="M228.85,47.75a107.83,107.83,0,0,0-10.26,24.66,112.67,112.67,0,0,0-3.38,21.81,101.81,101.81,0,0,0,.19,15.27c.36,3.72.76,5.83.76,5.83l1.22-.91c.8-.59,1.87-1.57,3.35-2.66a139,139,0,0,0,11.41-9.93c9.07-8.63,20.45-20.66,29.8-36.2,2.27-4,4.51-7.73,6.41-11.64S272,46.23,273.5,42.4c.76-1.9,1.46-3.81,2.14-5.65s1.35-3.59,2-5.34c1.22-3.5,2.27-6.86,3.17-10,1.8-6.27,3-11.65,3.73-15.46.35-1.9.62-3.38.81-4.39s.24-1.56.24-1.56l-1.61.62c-1,.43-2.51,1.15-4.37,2.07a166.3,166.3,0,0,0-14.87,8.45,96.73,96.73,0,0,0-9.15,6.71c-3.14,2.52-6.35,5.29-9.52,8.3-.78.76-1.57,1.52-2.36,2.3s-1.52,1.66-2.28,2.5c-1.5,1.7-3,3.45-4.43,5.27A112.66,112.66,0,0,0,228.85,47.75Z"/><path class="cls-2" d="M329.55,14.53a104.43,104.43,0,0,0-11.42,7.72,56.24,56.24,0,0,0-5,4.24q-2.37,2.21-4.5,4.43a111.48,111.48,0,0,0-13.54,17.16,114.27,114.27,0,0,0-7.2,13.6c-1.49,3.39-2.17,5.41-2.17,5.41s2.12-.19,5.72-.81c1.81-.31,4-.73,6.45-1.3s5.28-1,8.3-1.75c6.05-1.4,13-3.72,20.41-6.21,3.71-1.32,7.52-2.88,11.39-4.69l2.9-1.41,2.94-1.37c1.95-.95,3.92-2,5.88-3.07A125.75,125.75,0,0,0,361,39.38c3.55-2.51,6.93-4.86,10.1-7.4A198.43,198.43,0,0,0,387.6,17.15c4.6-4.48,8.26-8.5,10.74-11.4s3.81-4.69,3.81-4.69S399.77.7,395.63.39c-2.07-.16-4.58-.3-7.44-.38s-6.11.15-9.61.38-7.29.64-11.25,1.2c-2,.3-4,.57-6.06,1s-4.14,1-6.25,1.56C346.58,6.51,337.79,9.53,329.55,14.53Z"/><path class="cls-2" d="M612.4,852.58C599.47,862,589,874.38,581.48,883.9c-3.73,4.85-6.68,9.17-8.67,12.27s-3,5-3,5a115.87,115.87,0,0,0,20.66-.93A114.32,114.32,0,0,0,610.77,895a70.83,70.83,0,0,0,10.88-4.94,95,95,0,0,0,10.63-6.67,49.81,49.81,0,0,0,4.9-4q2.34-2.13,4.44-4.33a96.81,96.81,0,0,0,7.59-8.93c1.13-1.5,2.19-3,3.17-4.49s1.9-3.08,2.75-4.59c1.7-3,3.15-5.93,4.39-8.66a106.55,106.55,0,0,0,5.1-13.54,54.29,54.29,0,0,0,1.39-5.44l-1.28.26c-.84.13-2.07.34-3.6.67a95.72,95.72,0,0,0-12.47,3.6c-2.51,1-5.29,1.77-8.15,3s-5.88,2.47-9,4-6.27,3.18-9.48,5.11A93.37,93.37,0,0,0,612.4,852.58Z"/><path class="cls-2" d="M622.46,947.12a100.56,100.56,0,0,1-40-26.67,109.76,109.76,0,0,1-9.58-11.81c-2.09-3-3.13-4.84-3.13-4.84a118.15,118.15,0,0,1,20.82-.12,160.68,160.68,0,0,1,21.2,2.21c3.9.8,7.91,1.37,12,2.36a120.91,120.91,0,0,1,12.61,3.69l6.28,2.27q3.07,1.15,6,2.44c3.94,1.71,7.71,3.58,11.31,5.51,1.79,1,3.55,2,5.24,2.94s3.32,1.87,4.9,2.81c3.16,1.88,6.1,3.76,8.78,5.58,5.37,3.62,9.71,7,12.7,9.39s4.6,3.89,4.6,3.89-.56.22-1.63.57-2.65.75-4.67,1.25a166.56,166.56,0,0,1-16.76,3.23,97.13,97.13,0,0,1-11.28.82c-4,.11-8.22.08-12.56-.16A86.72,86.72,0,0,1,636,950.69,112.81,112.81,0,0,1,622.46,947.12Z"/><path class="cls-2" d="M697.38,833.4a107.38,107.38,0,0,0-7.29,9.57c-2.24,3.28-4.38,6.38-6.31,9.62A191.86,191.86,0,0,0,674.15,871c-2.6,5.48-4.55,10.29-5.83,13.73s-1.91,5.49-1.91,5.49,2.09-.28,5.65-1.06c1.78-.39,3.93-.9,6.36-1.56s5.08-1.72,8-2.84,5.93-2.47,9.1-4c1.57-.79,3.2-1.56,4.8-2.51s3.2-2,4.81-3.07c6.42-4.34,12.93-9.4,18.41-16.17a90.75,90.75,0,0,0,7.34-10.12,51.28,51.28,0,0,0,2.93-5.22q1.34-2.67,2.46-5.29a103.55,103.55,0,0,0,6.24-19.47,110.85,110.85,0,0,0,1.91-14.54c.22-3.55.17-5.62.17-5.62s-1.72.66-4.54,2.07c-1.41.7-3.1,1.6-5,2.69s-4.1,2.18-6.39,3.58a167.62,167.62,0,0,0-15.13,10.67,100.8,100.8,0,0,0-8.08,7.2l-2,2-2,2C700,830.42,698.69,831.87,697.38,833.4Z"/><path class="cls-2" d="M727.87,923.35a103.88,103.88,0,0,1-13.51-2.45,90.13,90.13,0,0,1-12.11-4.16,106.3,106.3,0,0,1-19.19-10.28,112.69,112.69,0,0,1-12-9.57c-2.7-2.5-4.12-4.08-4.12-4.08s2-.69,5.57-1.57c1.78-.44,3.93-.93,6.42-1.41s5.25-1.19,8.31-1.72,6.38-1.07,9.94-1.46l5.49-.53q2.79-.33,5.73-.55a168,168,0,0,1,25.35.35,124.93,124.93,0,0,1,13.09,2l6.23,1.31q3,.66,6,1.43a187.53,187.53,0,0,1,21,6.94c6,2.25,10.92,4.46,14.34,6.12s5.33,2.76,5.33,2.76-2,1.29-5.71,3.25c-1.83,1-4.08,2.12-6.67,3.35s-5.66,2.32-9,3.51a115.48,115.48,0,0,1-23.1,6c-4.32.65-8.8,1.13-13.37,1.36-1.15.05-2.29.11-3.45.11s-2.35-.06-3.52-.12Q731.42,923.75,727.87,923.35Z"/><path class="cls-2" d="M776.11,795.78c-1.81,3.71-3.61,7.17-5.1,10.84s-2.83,7.29-4,10.91c-.58,1.8-1.11,3.62-1.62,5.36s-1,3.42-1.48,5.08c-.91,3.34-1.68,6.55-2.33,9.56-1.3,6-2.11,11.2-2.59,14.88-.22,1.84-.4,3.28-.52,4.25s-.14,1.51-.14,1.51l1.42-.53c.91-.36,2.2-1,3.84-1.8a131.3,131.3,0,0,0,13-7.49,77.62,77.62,0,0,0,7.95-6c2.71-2.28,5.48-4.79,8.2-7.52l2-2.1c.66-.74,1.3-1.51,1.94-2.29,1.27-1.55,2.53-3.17,3.74-4.83A94.91,94.91,0,0,0,807.21,815a93.58,93.58,0,0,0,7.93-23,104.18,104.18,0,0,0,1.73-20.54A98.32,98.32,0,0,0,815.71,757c-.58-3.54-1.1-5.56-1.1-5.56l-1.05.78c-.69.5-1.62,1.35-2.9,2.28a101,101,0,0,0-9.79,8.62A130.71,130.71,0,0,0,776.11,795.78Z"/><path class="cls-2" d="M825.51,876.67a79.31,79.31,0,0,1-13.78.51A110,110,0,0,1,799.07,876c-2-.32-3.92-.66-5.8-1.08s-3.74-1-5.51-1.47c-3.53-1-6.77-2.16-9.71-3.31a108,108,0,0,1-13.66-6.46c-1.58-.88-2.82-1.67-3.65-2.22s-1.28-.86-1.28-.86l5.07-2.81a136.69,136.69,0,0,1,13.69-6.35c2.93-1.08,6-2.52,9.33-3.72s6.94-2.44,10.75-3.5l2.9-.78,2.91-.84c2-.55,4-1,6-1.52a118.73,118.73,0,0,1,13-2.15,137.77,137.77,0,0,1,25.67-1.07,190.45,190.45,0,0,1,21.88,2c6.38.93,11.79,2.14,15.44,2.94s5.76,1.46,5.76,1.46l-1.23,1.22c-.82.76-2,2-3.59,3.25a166.42,166.42,0,0,1-13.79,10.13q-2.21,1.46-4.62,2.94c-1.65.93-3.38,1.85-5.16,2.77-3.58,1.83-7.4,3.63-11.43,5.29-2,.82-4.06,1.65-6.19,2.37s-4.35,1.3-6.59,1.88A114.2,114.2,0,0,1,825.51,876.67Z"/><path class="cls-2" d="M844.74,741.41a107.66,107.66,0,0,0-2.6,11.74c-.32,2-.59,3.92-.83,5.87s-.51,3.78-.71,5.64a174.62,174.62,0,0,0-.9,20.8c.09,6.21.28,11.28.6,15s.61,5.77.61,5.77,1.78-1.15,4.67-3.39a86,86,0,0,0,11-10.24c2.12-2.26,4.34-4.78,6.56-7.53a107.06,107.06,0,0,0,6.25-9.28,101.77,101.77,0,0,0,5.64-10.58,98.3,98.3,0,0,0,4.14-12,74.57,74.57,0,0,0,2.34-12.32A100.2,100.2,0,0,0,882,729a102.23,102.23,0,0,0-.83-10.77,92.49,92.49,0,0,0-1.84-9.57,109.47,109.47,0,0,0-4.34-13.92c-1.28-3.29-2.2-5.12-2.2-5.12s-1.29,1.32-3.28,3.79c-1,1.24-2.16,2.76-3.43,4.56s-2.59,3.91-4.16,6.1-3.07,4.71-4.61,7.43c-.76,1.36-1.52,2.79-2.27,4.27L853.88,718c-.38.75-.78,1.5-1.17,2.27a98.34,98.34,0,0,0-4.34,9.94c-.66,1.77-1.28,3.61-1.86,5.5S845.28,739.45,844.74,741.41Z"/><path class="cls-2" d="M910.48,809.37a105.1,105.1,0,0,1-13.3,3.58q-3.24.64-6.37,1.08c-2.11.25-4.22.4-6.26.51a113.25,113.25,0,0,1-21.72-1,98.08,98.08,0,0,1-14.84-3.4c-3.51-1.09-5.47-1.9-5.47-1.9s1.54-1.49,4.38-3.81,6.86-5.65,11.93-9.28c2.54-1.82,5.34-3.7,8.4-5.58s6.17-4,9.62-5.93,7.14-3.79,11-5.56a120.13,120.13,0,0,1,12-5.13c4.2-1.55,8.57-2.71,12.65-3.89s8.18-2.07,12.16-2.82,7.85-1.32,11.56-1.76,7.07-.86,10.29-1.11c6.4-.54,11.82-.65,15.63-.62s6,.21,6,.21-1.31,2-3.83,5.36c-1.26,1.67-2.82,3.66-4.67,5.87a85.31,85.31,0,0,1-6.49,7.15c-2.52,2.48-5.31,5.08-8.35,7.7-1.52,1.31-3.11,2.63-4.75,3.93l-2.51,2-2.69,1.84c-3.65,2.44-7.52,4.79-11.57,7q-3,1.62-6.23,3.08C915,807.79,912.72,808.58,910.48,809.37Z"/><path class="cls-2" d="M899.92,673.14c-.08,2-.11,4.07-.07,6.1s.1,4,.15,6c.13,3.92.46,7.78.92,11.53s1.05,7.39,1.71,10.85,1.22,6.63,1.9,9.62c1.34,6,2.78,11,3.88,14.51s1.89,5.53,1.89,5.53,1.45-1.54,3.74-4.4c1.15-1.43,2.5-3.19,4-5.25a71.7,71.7,0,0,0,4.64-7.12,117.54,117.54,0,0,0,8.87-19.24,113.05,113.05,0,0,0,3.06-11.67A68.16,68.16,0,0,0,936.14,677a92.83,92.83,0,0,0-.48-12.6,71.92,71.92,0,0,0-2.07-11.59,107,107,0,0,0-7-19.26c-.64-1.34-1.28-2.61-1.91-3.81s-1.32-2.35-2-3.41c-1.26-2.12-2.43-3.92-3.43-5.39-2-2.94-3.32-4.54-3.32-4.54s-.93,1.6-2.27,4.48-3.33,6.92-5.18,12c-.94,2.54-1.87,5.33-2.71,8.36-1,2.94-1.91,6.11-2.7,9.49s-1.38,7-1.93,10.74A95.89,95.89,0,0,0,899.92,673.14Z"/><path class="cls-2" d="M978.79,724.88c-2,1.27-4,2.45-6,3.54-1,.54-2,1.07-3,1.57s-2.07.93-3.1,1.37a112.64,112.64,0,0,1-12,4.31,111.08,111.08,0,0,1-11.21,2.66c-3.59.62-7.06.95-10.21,1.18a108.21,108.21,0,0,1-15.16,0c-3.64-.26-5.71-.62-5.71-.62s1.15-1.81,3.37-4.75c1.11-1.47,2.49-3.22,4.13-5.17s3.61-4,5.59-6.46a165.09,165.09,0,0,1,15.1-15.22c2.88-2.69,6-5.37,9.39-8s7.08-5.08,10.75-7.59a124.14,124.14,0,0,1,11.42-6.67c3.85-2,7.74-3.73,11.35-5.4a176,176,0,0,1,20.68-7.68l4.5-1.31,4-1.14c2.52-.69,4.75-1.24,6.59-1.66,3.69-.84,5.86-1.16,5.86-1.16s-.8,2.29-2.47,6.14a114.17,114.17,0,0,1-8.18,15.14c-1.86,3-4,6.2-6.31,9.47s-5.22,6.44-8.2,9.67a115.06,115.06,0,0,1-9.65,9.43A116.7,116.7,0,0,1,978.79,724.88Z"/><path class="cls-2" d="M939,594.4a119.7,119.7,0,0,0,6.13,22.79A173.7,173.7,0,0,0,953,636.3c2.67,5.55,5.26,10.18,7,13.31s3,4.93,3,4.93,1.15-1.79,2.84-5.06a136.69,136.69,0,0,0,5.56-14.06,97.16,97.16,0,0,0,4.44-20.74c.22-1.93.4-3.9.52-5.89s0-4.07,0-6.14A98,98,0,0,0,975,590c-.37-2.12-.77-4.17-1.3-6.2s-1.22-4-1.9-6a99.08,99.08,0,0,0-4.6-10.85,90.76,90.76,0,0,0-11.12-17.2,106.18,106.18,0,0,0-9.79-10.64c-2.55-2.41-4.15-3.66-4.15-3.66a86.67,86.67,0,0,0-3.63,17.75A133.13,133.13,0,0,0,939,594.4Z"/><path class="cls-2" d="M1027.21,627.23A108.77,108.77,0,0,1,1006,643.18a114.37,114.37,0,0,1-20.17,8.48,91.86,91.86,0,0,1-14.74,3.42c-3.65.53-5.78.63-5.78.63s.79-2,2.39-5.31a141.43,141.43,0,0,1,6.8-13.59c3.24-5.39,6.71-11.77,11.39-18.22,1.16-1.61,2.39-3.24,3.67-4.87s2.49-3.31,3.84-5a118,118,0,0,1,8.78-9.83c1.6-1.61,3.27-3.15,4.89-4.66s3.18-3,4.8-4.39c3.25-2.82,6.56-5.43,9.85-7.83,6.69-4.78,12.88-8.87,18.46-12.14s10.43-5.73,13.9-7.37,5.53-2.43,5.53-2.43a149.55,149.55,0,0,1-5.7,23.15,164,164,0,0,1-10,21.93A118.66,118.66,0,0,1,1027.21,627.23Z"/><path class="cls-2" d="M959.63,508.83c1.55,3.75,3.42,7.39,5.26,10.86s3.7,6.81,5.7,10c3.95,6.34,8.42,12.12,12,16.89s7.14,8.7,9.63,11.39,4,4.17,4,4.17.67-2,1.53-5.6c.44-1.79.92-4,1.4-6.47.22-1.25.49-2.57.67-4s.29-2.91.41-4.47c.24-3.11.4-6.48.42-10a73.23,73.23,0,0,0-.61-11.18,113.63,113.63,0,0,0-2.19-11.86c-.48-2-1-4-1.65-6a63.27,63.27,0,0,0-2.32-6,92.89,92.89,0,0,0-5.8-11.16,71.85,71.85,0,0,0-6.79-9.56,107,107,0,0,0-14.6-14.34c-2.31-1.87-4.45-3.48-6.48-4.85s-3.88-2.49-5.42-3.38c-3.07-1.79-4.93-2.66-4.93-2.66s-.16,1.85-.12,5-.12,7.73.39,13.15c.22,2.7.63,5.64,1.11,8.74s.88,6.36,1.61,9.76,1.72,6.93,2.86,10.54A95.11,95.11,0,0,0,959.63,508.83Z"/><path class="cls-2" d="M1052.84,521.08a94.13,94.13,0,0,1-8.14,11.15,112.12,112.12,0,0,1-9.08,9.14A99.16,99.16,0,0,1,1018,554.2a109.41,109.41,0,0,1-13.74,6.62c-3.4,1.35-5.43,1.93-5.43,1.93s.28-2.13,1.06-5.75c.38-1.81.89-4,1.55-6.46.34-1.24.71-2.55,1.09-3.93s.72-2.84,1.14-4.35c.84-3,1.85-6.27,3.06-9.67s2.71-7,4.08-10.65,3.15-7.46,5.1-11.28q1.47-2.87,3.13-5.75c1.13-1.92,2.13-3.87,3.32-5.79a124.45,124.45,0,0,1,7.46-11c2.6-3.47,5.43-6.74,8-9.82a175.77,175.77,0,0,1,15.35-15.93c2.39-2.2,4.7-4.17,6.7-5.89s3.74-3.17,5.22-4.35c3-2.36,4.78-3.59,4.78-3.59s.26,2.41.41,6.6a136.08,136.08,0,0,1-1,17.19c-.41,3.51-.89,7.3-1.66,11.26s-2,8.09-3.28,12.29a126.49,126.49,0,0,1-4.66,12.72A119.28,119.28,0,0,1,1052.84,521.08Z"/><path class="cls-2" d="M961.34,420.6a105.09,105.09,0,0,0,7.34,9.46c2.57,3,5.37,5.81,7.89,8.48a168.48,168.48,0,0,0,15.29,13.85c2.39,1.93,4.7,3.66,6.7,5.16s3.74,2.78,5.23,3.82c3,2.08,4.78,3.17,4.78,3.17s.26-2.13.4-5.81a109,109,0,0,0-1-15.11c-.4-3.09-.87-6.42-1.61-9.9s-1.91-7.08-3.18-10.76a100.42,100.42,0,0,0-4.52-11.11A97.87,97.87,0,0,0,992.1,401a80.55,80.55,0,0,0-7.93-9.62,96.41,96.41,0,0,0-8.85-7.8,91.4,91.4,0,0,0-17.25-10.76,108.4,108.4,0,0,0-13.45-5.35c-3.34-1.06-5.33-1.5-5.33-1.5s.21,1.84.87,4.95c.33,1.56.77,3.43,1.36,5.55.3,1.06.63,2.19,1,3.37s.64,2.45,1,3.74c.76,2.6,1.68,5.38,2.81,8.3s2.55,5.95,3.85,9.12a97.76,97.76,0,0,0,4.89,9.68c1,1.63,2,3.28,3,4.93S960.18,418.94,961.34,420.6Z"/><path class="cls-2" d="M1055,412a109.67,109.67,0,0,1-5.68,12.69,82,82,0,0,1-6.72,10.9A116.79,116.79,0,0,1,1028,452c-2.31,2.14-4.45,4-6.48,5.58s-3.88,2.88-5.42,3.91c-3.07,2.07-4.94,3.09-4.94,3.09s-.15-2.14-.11-5.84-.12-8.95.36-15.22c.22-3.14.6-6.53,1.06-10.12s.82-7.35,1.51-11.28,1.63-8,2.72-12.15a119.16,119.16,0,0,1,3.66-12.67c1.48-4.29,3.28-8.44,5.05-12.39s3.55-7.73,5.48-11.32c3.8-7.18,8.13-13.64,11.63-19s6.92-9.68,9.34-12.65,3.94-4.59,3.94-4.59.74,2.32,1.72,6.4c.49,2,1,4.52,1.59,7.37.26,1.42.57,2.93.79,4.54s.37,3.31.53,5.08c.33,3.55.57,7.38.67,11.42a91.43,91.43,0,0,1-.38,12.7c-.43,4.4-1.07,8.93-2,13.48q-.68,3.4-1.56,6.83C1056.61,407.46,1055.76,409.74,1055,412Z"/><path class="cls-2" d="M943.89,334.29c1.52,1.35,3.11,2.63,4.65,3.89s3,2.5,4.59,3.67c3.11,2.36,6.29,4.53,9.48,6.52,6.47,4,12.49,7.37,17.94,10.08s10.21,4.76,13.62,6.11,5.44,2,5.44,2a119.87,119.87,0,0,0-5-20.29,132.11,132.11,0,0,0-9.19-19.09,97.06,97.06,0,0,0-15.65-18.91A93.62,93.62,0,0,0,949.55,295a105,105,0,0,0-19.32-6.55A91.35,91.35,0,0,0,916,286.23c-3.53-.26-5.59-.24-5.59-.24s.66,1.73,2,4.59a97.35,97.35,0,0,0,5.92,11.66c2.89,4.6,6,10,10.28,15.49,1.07,1.36,2.2,2.74,3.39,4.11s2.3,2.8,3.56,4.19A94.49,94.49,0,0,0,943.89,334.29Z"/><path class="cls-2" d="M1033.31,305c-.29,2.39-.61,4.7-1.07,7s-1.06,4.52-1.68,6.68a112.43,112.43,0,0,1-4.23,12.17,98.13,98.13,0,0,1-10.6,19.25,109.67,109.67,0,0,1-9.51,11.9c-2.49,2.69-4.06,4.09-4.06,4.09a121.59,121.59,0,0,1-4.29-20.62A144.14,144.14,0,0,1,995.69,324a136.18,136.18,0,0,1,.79-25.65,138.9,138.9,0,0,1,5.08-25.5,183.47,183.47,0,0,1,7-21c2.44-6.07,4.84-11.09,6.45-14.48s2.77-5.33,2.77-5.33,1.29,2.06,3.19,5.79a170.16,170.16,0,0,1,6.44,16,121.64,121.64,0,0,1,5.55,23.47c.31,2.18.59,4.4.81,6.65s.23,4.59.27,6.92A117,117,0,0,1,1033.31,305Z"/><path class="cls-2" d="M908,254a102.64,102.64,0,0,0,10.65,5.32c3.61,1.56,7.29,2.91,10.71,4.22a166.65,166.65,0,0,0,19.73,5.8l8.17,1.77c2.43.5,4.57.88,6.36,1.17,3.57.58,5.68.77,5.68.77s-.68-2-2.14-5.4a90.37,90.37,0,0,0-7.24-13.25c-1.67-2.62-3.56-5.39-5.67-8.23s-4.75-5.56-7.45-8.32a92.68,92.68,0,0,0-8.84-8,95.59,95.59,0,0,0-10.57-6.9c-1.86-1-3.73-2-5.6-2.88-.93-.44-1.86-.86-2.8-1.26s-1.93-.73-2.89-1.06a95.52,95.52,0,0,0-11.28-3.2,99.16,99.16,0,0,0-10.54-1.74c-3.38-.34-6.67-.42-9.64-.43a106.2,106.2,0,0,0-14.38,1c-3.46.49-5.44.95-5.44.95s1,1.59,2.87,4.13c.95,1.27,2.14,2.78,3.56,4.45s3.17,3.45,4.9,5.51a117.49,117.49,0,0,0,13.43,12.83,98.55,98.55,0,0,0,8.52,6.61C901.18,250,904.6,252,908,254Z"/><path class="cls-2" d="M988.78,205.43a109.34,109.34,0,0,1,.29,13.93,81.77,81.77,0,0,1-1.43,12.79,116.82,116.82,0,0,1-6.09,21.14c-.58,1.47-1.16,2.86-1.74,4.16s-1.21,2.57-1.8,3.73c-1.17,2.31-2.27,4.29-3.21,5.89-1.89,3.2-3.14,4.93-3.14,4.93s-1-1.87-2.6-5.22-3.87-8-6.11-13.91c-1.14-2.93-2.28-6.13-3.36-9.59s-2.39-7-3.44-10.84-1.92-7.94-2.75-12.14a118,118,0,0,1-2.08-13c-.24-2.27-.4-4.52-.51-6.76s-.18-4.45-.26-6.6c-.14-4.31-.07-8.54.15-12.63s.59-8,1-11.78.83-7.16,1.34-10.37c1-6.42,2.17-11.78,3.1-15.52s1.61-5.87,1.61-5.87,1.65,1.77,4.25,5c1.3,1.63,2.84,3.63,4.53,6a88,88,0,0,1,5.35,8.06,145.57,145.57,0,0,1,10.53,21.63c1.48,4.16,2.82,8.53,3.93,13A82,82,0,0,1,988.78,205.43Z"/><path class="cls-2" d="M855.4,183.73c3.84,1.16,7.87,1.94,11.63,2.76s7.57,1.38,11.28,1.82,7.34.71,10.82.88,6.66.35,9.71.38c6,.09,11.2-.14,14.84-.39s5.76-.56,5.76-.56-1.14-1.79-3.35-4.72c-1.1-1.46-2.47-3.21-4.1-5.15a67.48,67.48,0,0,0-5.76-6.23c-2.24-2.15-4.73-4.4-7.45-6.65q-2.06-1.69-4.26-3.37l-2.25-1.67-2.43-1.55a111.44,111.44,0,0,0-10.48-5.78c-1.85-.88-3.73-1.72-5.66-2.49s-4-1.38-6.06-2a90.39,90.39,0,0,0-12.2-2.52c-2-.27-3.94-.47-5.86-.61s-3.9-.1-5.79-.07a104.45,104.45,0,0,0-20.15,2.34,97,97,0,0,0-13.86,4.21c-3.29,1.27-5.13,2.17-5.13,2.17s1.3,1.3,3.75,3.31,5.92,4.87,10.34,7.93c2.21,1.54,4.68,3.11,7.38,4.67s5.44,3.32,8.51,4.88a107.6,107.6,0,0,0,9.87,4.43A94.11,94.11,0,0,0,855.4,183.73Z"/><path class="cls-2" d="M923.68,118.37a86.77,86.77,0,0,1,3.37,13.45,110.82,110.82,0,0,1,1.29,12.87,112.12,112.12,0,0,1-.09,11.65,97.48,97.48,0,0,1-1.25,10.3,112,112,0,0,1-3.56,14.92c-1.1,3.52-1.93,5.47-1.93,5.47s-1.47-1.56-3.77-4.43c-1.15-1.44-2.51-3.21-4-5.28s-3.06-4.49-4.9-7-3.65-5.4-5.5-8.49q-1.4-2.31-2.77-4.83l-1.36-2.55c-.47-.85-1-1.7-1.44-2.56-1.9-3.47-3.74-7.18-5.43-11.12q-1.27-3-2.43-6.08c-.77-2.09-1.61-4.12-2.34-6.26a127.47,127.47,0,0,1-3.7-12.81c-.49-2.13-.94-4.24-1.33-6.34s-.84-4.07-1.19-6.08A182.36,182.36,0,0,1,878.89,81c-.34-6.57-.48-11.91-.38-15.77s.28-6,.28-6,2,1.34,5.29,3.89A109.55,109.55,0,0,1,896.69,74.7c2.44,2.55,5,5.38,7.58,8.45s5,6.65,7.36,10.32a127.06,127.06,0,0,1,6.79,11.7A118.58,118.58,0,0,1,923.68,118.37Z"/><path class="cls-2" d="M788.94,126.65a119,119,0,0,0,23.34-.6,177.91,177.91,0,0,0,20.23-3.23c6-1.28,11-2.76,14.46-3.74s5.44-1.74,5.44-1.74l-1.07-1.08a40.62,40.62,0,0,0-3.15-2.88A136.24,136.24,0,0,0,836,104.56C825.6,98,810.36,91.23,793.32,90.16a67.12,67.12,0,0,0-12.47.29,96.82,96.82,0,0,0-11.5,1.89c-1.81.42-3.56.86-5.28,1.38s-3.41,1.12-5,1.72c-3.22,1.2-6.19,2.48-8.88,3.76a106.12,106.12,0,0,0-12.52,7c-1.45,1-2.59,1.78-3.36,2.37l-1.17.9,4.34,2.46a96.38,96.38,0,0,0,11.83,5.37c2.55.89,5.17,2.1,8.12,3.06s6.07,1.93,9.43,2.72l2.56.57,2.57.63q2.61.61,5.37,1.08A94.68,94.68,0,0,0,788.94,126.65Z"/><path class="cls-2" d="M841.4,47.75a107.33,107.33,0,0,1,10.25,24.66A112.67,112.67,0,0,1,855,94.22a100.7,100.7,0,0,1-.18,15.27c-.36,3.72-.77,5.83-.77,5.83l-1.21-.91c-.8-.59-1.88-1.57-3.35-2.66a137.16,137.16,0,0,1-11.42-9.93c-9.07-8.63-20.45-20.66-29.8-36.2-2.27-4-4.5-7.73-6.41-11.64s-3.63-7.75-5.14-11.58c-.76-1.9-1.46-3.81-2.15-5.65s-1.35-3.59-2-5.34c-1.21-3.5-2.26-6.86-3.16-10-1.8-6.27-3-11.65-3.74-15.46-.34-1.9-.62-3.38-.8-4.39S784.69,0,784.69,0l1.61.62c1,.43,2.51,1.15,4.38,2.07a167.79,167.79,0,0,1,14.86,8.45,96.81,96.81,0,0,1,9.16,6.71c3.13,2.52,6.34,5.29,9.51,8.3l2.37,2.3,2.27,2.5c1.51,1.7,3,3.45,4.43,5.27A114.32,114.32,0,0,1,841.4,47.75Z"/><path class="cls-2" d="M740.69,14.53a104.58,104.58,0,0,1,11.43,7.72,57.58,57.58,0,0,1,5,4.24q2.37,2.21,4.5,4.43a110.87,110.87,0,0,1,13.54,17.16,114.27,114.27,0,0,1,7.2,13.6c1.5,3.39,2.17,5.41,2.17,5.41s-2.12-.19-5.72-.81c-1.8-.31-4-.73-6.45-1.3s-5.28-1-8.3-1.75c-6-1.4-13-3.72-20.41-6.21-3.7-1.32-7.52-2.88-11.38-4.69l-2.91-1.41-2.93-1.37q-2.94-1.42-5.89-3.07a124.16,124.16,0,0,1-11.22-7.1c-3.56-2.51-6.93-4.86-10.11-7.4a196.59,196.59,0,0,1-16.53-14.83c-4.61-4.48-8.26-8.5-10.75-11.4s-3.81-4.69-3.81-4.69,2.38-.36,6.52-.67c2.07-.16,4.58-.3,7.45-.38s6.1.15,9.61.38S699,1,702.91,1.59c2,.3,4,.57,6.06,1s4.15,1,6.26,1.56C723.67,6.51,732.45,9.53,740.69,14.53Z"/><path class="cls-1" d="M1346.63,267.74l-45.13,174h-12.15l-78.61-208.63q-5.35-14.67-10.89-17.36t-30.2-2.68v-3.22H1291.5v3.22q-21.81,0-30.2,2.32t-8.39,9.13a22.56,22.56,0,0,0,2.14,8.6l56.1,150,32.61-124.34-7.6-25.57q-4.34-14.4-10.46-17.28t-31.36-2.88v-3.22h122.43v3.22q-21.72,0-30.08,2.32t-8.37,9.85a23.08,23.08,0,0,0,1.43,7.88l46.09,150.38,39.36-111.36q6-17.53,6-28.64,0-30.43-42.88-30.43v-3.22h92.19v3.22q-25.38,0-37.52,26.12-1.79,3.93-13.22,35.07l-58.6,167.48H1399.4Z"/><path class="cls-1" d="M1610.93,232.43V416.68q0,10.4,1.43,13.26c.47,1,1.9,1.91,4.28,2.87q10.36,3.94,42.52,3.94v3.57H1518.38v-3.57q15.36,0,26.62-1.07t15.37-2.69c2.73-1.08,4.52-2.39,5.36-3.95s1.25-5.67,1.25-12.36V232.43q0-10-1.43-12.55-.72-1.42-4.65-2.86-10.37-3.95-42.52-3.94v-3.22h141.14v3.22q-15.36,0-26.62,1.07T1617,217l-3.57,1.43C1611.76,219.88,1610.93,224.55,1610.93,232.43Z"/><path class="cls-1" d="M1906.78,388.87v11.79q0,21.09-4,29.3-6.46,13.59-25.49,13.58-24.8,0-32.69-18.58-6.47-15-6.47-57.17v-7.5q0-3.57.36-7.51,0-18.93-8.89-25.55T1804,320.62h-42v96.06q0,10.76,1.25,13.62c.83,1.91,2.62,3.41,5.36,4.48s8.33,1.73,16.79,2,17.33.36,26.62.36v3.21H1666.66v-3.57q37.53,0,45-2.87a9.27,9.27,0,0,0,5-4.12q1.43-2.68,1.43-13.08V232.43q0-10-1.43-12.55-.72-1.42-4.65-2.86-10.36-3.95-45.38-3.94v-3.22H1812.8q38.6,0,61.46,20.75,18.23,16.47,18.22,34,0,20.76-14.35,34-17.22,16.11-54.54,20.4,38.09,7.5,50.31,42.46,6.15,17.49,6.15,52.82,0,10.35,1.81,15t8.68,4.64q7.59,0,10.49-12t2.89-33.05Zm-144.71-72.18h33.09q26,0,38.43-9.71,14.94-11.5,14.94-38.86,0-30.21-12.27-42.63t-40.75-12.41h-17.07q-7.49,0-11,1.08a6.1,6.1,0,0,0-4.45,4.49q-.89,3.42-.88,13.85Z"/><path class="cls-1" d="M2050.56,359.93h-68.85l-11,31.59q-4.26,11.85-4.26,20.46,0,13.27,10,19t28.23,5.75v3.57h-90.76v-3.57q24.66,0,38.23-18.61,7.5-10.38,19.3-42.94L2031.83,207H2039l77.18,209.71q5.36,14.67,10.72,17.36t32.15,2.68v3.57H2027.19v-3.57q26.79,0,36.8-2t10-8.08l-.71-3.59Zm-1.77-3.93-32.66-91-32.65,91Z"/><path class="cls-1" d="M2372.29,227.37q20.77-18.23,23.27-20.37v77.89l-2.85-1.07q-5-31.29-26.09-52.45t-47.88-21.15q-18.59,0-32.15,8.56-16.8,10.35-16.8,30.32,0,19.28,18.18,31.39,15.33,10.35,49.19,18.2Q2381,309.39,2394.55,319q22.1,16.05,22.1,53.51,0,35.32-22.87,54.58-19.29,16.42-46.81,16.42-21.09,0-37.7-6.79t-28.76-22.51q-21.44,28.23-22.51,29.3V344.92l2.86-.36q6.78,30.74,15.36,49.31,7.16,15.74,16.8,26.09,18.93,20.35,55,20.36,16.8,0,30.73-11.06,16.08-12.84,16.08-32.1,0-23.55-21.75-37.11-15-9.27-52.21-19.44T2269,319.74q-21.39-16.1-21.39-46.88,0-27.56,19.52-46.71T2313.55,207q22.92,0,37.61,6.79Q2355.81,215.94,2372.29,227.37Z"/><path class="cls-1" d="M2630,416.68V324.2H2528.12v92.48q0,10.4,1.43,13.26c.47,1,2.08,2,4.82,3.05s7.8,2,15.19,2.69,16.08,1.07,26.08,1.07v3.57H2435.58v-3.57q15.36,0,26.62-1.07t15.36-2.69c2.74-1.08,4.52-2.39,5.36-3.95s1.25-5.67,1.25-12.36V233.14q0-10.38-1.43-12.9c-.48-1-2.09-1.91-4.82-2.86s-8.1-1.91-16.08-2.87a221,221,0,0,0-26.26-1.43v-3.22H2576v3.22q-30.37,0-41.81,4.3c-2.38,1-3.81,1.91-4.28,2.86q-1.8,3.24-1.79,12.91v85H2630v-85q0-10-1.78-12.91c-.48-1-2-1.91-4.65-2.86s-8-1.91-16.08-2.87a218.77,218.77,0,0,0-25.72-1.43v-3.22h140.42v3.22q-16.08,0-26.44,1.07t-16.08,3.22l-3.22,1.44q-2.51,2.5-2.5,14.33V416.68q0,10.4,1.43,13.26c.48,1,1.9,1.91,4.29,2.87q10.35,3.94,42.52,3.94v3.57H2582.07v-3.57q31.44,0,41.81-3.94c2.62-1,4.16-1.91,4.64-2.87Q2629.95,427.43,2630,416.68Z"/><path class="cls-1" d="M2863.06,359.93h-68.85l-11,31.59q-4.27,11.85-4.26,20.46,0,13.27,10,19t28.23,5.75v3.57h-90.76v-3.57q24.66,0,38.23-18.61,7.51-10.38,19.3-42.94L2844.33,207h7.15l77.18,209.71q5.36,14.67,10.72,17.36t32.15,2.68v3.57H2839.69v-3.57q26.79,0,36.8-2t10-8.08l-.71-3.59Zm-1.77-3.93-32.66-91L2796,356Z"/><path class="cls-1" d="M3064.79,340.63l81.76-81.56q16.86-16.89,16.86-28,0-9-10-13.47t-29.3-4.49v-3.22h100.41v3.22a59.88,59.88,0,0,0-32.52,9.7q-9.61,6.1-43.81,41.68l-23.5,24.07,68,128.53q7.5,14,13.75,17t32.34,3.05v3.21h-124v-3.21q22.16,0,29.12-1.08t7-5.36a8,8,0,0,0-.36-2.51l-3.21-6.44-52.78-102.65-29.76,28.71v68.88q0,10.41,1.43,13.27.71,1.44,4.82,3.05t14.83,2.69q10.73,1.08,23.94,1.08v3.57H2972.25v-3.57a208.88,208.88,0,0,0,26.08-1.44q11.43-1.43,14.83-2.68c2.26-.84,4-1.49,5.18-2q2.49-2.16,2.5-14V232.43q0-10-1.43-12.55-.72-1.42-4.64-2.86-10.38-3.95-42.52-3.94v-3.22H3113v3.22q-31.82,0-42.17,3.95l-3.57,1.43q-2.51,2.16-2.5,14Z"/><path class="cls-1" d="M3447.46,209.86V311.69h-5q-8.22-58.45-26.08-80.33-14.65-18.29-43.24-18.28c-4.77,0-7.38.23-7.86.71q-1.43,1.08-1.43,9.32V416.68q0,10.4,1.43,13.26c.48,1,2.15,2,5,3.05s8.34,2,16.44,2.69,19.05,1.07,32.87,1.07v3.57H3264.16v-3.57q20.37,0,32.52-1.07t16.44-2.69c2.85-1.08,4.7-2.39,5.53-3.95s1.25-5.67,1.25-12.36V223.47q0-9.32-2.14-10-1.08-.35-7.5-.35-27.87,0-42.52,17.93-17.88,22.23-26.8,80h-5V209.86Z"/><path class="cls-1" d="M3546.43,232.43V416.68q0,10.4,1.43,13.26c.48,1,1.9,1.91,4.29,2.87q10.35,3.94,42.52,3.94v3.57H3453.89v-3.57q15.36,0,26.62-1.07t15.36-2.69c2.74-1.08,4.52-2.39,5.36-3.95s1.25-5.67,1.25-12.36V232.43q0-10-1.43-12.55c-.48-.95-2-1.9-4.64-2.86q-10.36-3.95-42.52-3.94v-3.22H3595v3.22q-15.36,0-26.61,1.07T3552.5,217l-3.57,1.43C3547.26,219.88,3546.43,224.55,3546.43,232.43Z"/><path class="cls-3" d="M1602.94,743.5q43.11,0,65.92-26.36t22.81-79.76h4.65v110.4H1462.64v-3.57q15.72,0,26.8-1.07t15.18-2.69c2.74-1.07,4.52-2.39,5.36-3.94s1.25-5.68,1.25-12.37V540.61q0-10.4-1.43-12.91c-.48-1-2.08-1.9-4.82-2.86s-8.1-1.91-16.08-2.87a223.12,223.12,0,0,0-26.26-1.43v-3.22h146.85v3.22q-20,0-31.26,1.07t-15.9,2.87c-3.1,1.19-4.89,2.27-5.36,3.22q-1.8,3.24-1.79,12.91V723.78c0,6.94.48,11.35,1.42,13.26.48,1,1.9,1.92,4.28,2.87Q1573,743.49,1602.94,743.5Z"/><path class="cls-3" d="M1841.89,667.39H1773L1762,699q-4.26,11.85-4.26,20.46,0,13.27,10,19t28.22,5.75v3.57h-90.75v-3.57q24.64,0,38.23-18.61,7.5-10.38,19.29-42.94l60.39-168.2h7.15l77.17,209.71q5.37,14.67,10.72,17.36t32.16,2.68v3.57H1818.51v-3.57q26.81,0,36.81-2t10-8.08l-.71-3.59Zm-1.77-3.93-32.66-91-32.65,91Z"/><path class="cls-3" d="M2124.84,575.2l-45.13,174h-12.15L1989,540.58q-5.35-14.67-10.9-17.36t-30.19-2.68v-3.22H2069.7v3.22q-21.79,0-30.19,2.32t-8.4,9.13a22.75,22.75,0,0,0,2.14,8.6l56.1,150L2122,566.27l-7.61-25.57q-4.32-14.4-10.45-17.28t-31.36-2.88v-3.22H2195v3.22q-21.72,0-30.08,2.32t-8.36,9.85a22.76,22.76,0,0,0,1.43,7.88L2204.05,691l39.35-111.35q6-17.55,6-28.65,0-30.44-42.88-30.43v-3.22h92.18v3.22q-25.36,0-37.51,26.12-1.8,3.93-13.22,35.07l-58.6,167.48h-11.79Z"/><path class="cls-3" d="M2433.08,724.14V540.61q0-10.4-1.43-12.91-.72-1.43-4.83-2.86T2410.74,522a223,223,0,0,0-26.26-1.43v-3.22H2605.3v89.33h-4.65a107.42,107.42,0,0,0-13.89-52.74q-18.53-33.37-52.38-33.37-23.16,0-32.6.72a90.69,90.69,0,0,0-19.05,3.59l-3.21,1.44q-2.49,2.52-2.5,14.39v83.83q38,0,47.27-7.5,14.92-12.15,19.19-61.46h4.29V696.33h-4.29q0-48.24-16.34-60.38-10.32-7.86-50.12-7.86v96q0,10.4,1.43,13.26.72,1.44,5,3.05t16.61,2.69q12.33,1.07,33.41,1.07v3.57h-149v-3.57q15.36,0,26.62-1.07c7.51-.72,12.62-1.61,15.37-2.69s4.52-2.39,5.35-3.94S2433.08,730.83,2433.08,724.14Z"/><path class="cls-3" d="M2699.62,539.89V724.14q0,10.4,1.43,13.26c.48,1,1.9,1.91,4.29,2.87q10.35,3.94,42.52,3.94v3.57H2607.08v-3.57q15.36,0,26.62-1.07t15.36-2.69c2.74-1.07,4.52-2.39,5.36-3.94s1.25-5.68,1.25-12.37V539.89q0-10-1.43-12.54c-.48-1-2-1.91-4.64-2.87q-10.36-3.94-42.52-3.94v-3.22h141.13v3.22q-15.36,0-26.61,1.07t-15.91,2.87l-3.57,1.43Q2699.62,528.07,2699.62,539.89Z"/><path class="cls-3" d="M2995.47,696.33v11.79q0,21.09-3.95,29.3Q2985.06,751,2966,751q-24.78,0-32.69-18.58-6.47-15-6.46-57.17v-7.5c0-2.38.11-4.88.35-7.51q0-18.93-8.89-25.54t-25.6-6.61h-42v96q0,10.75,1.25,13.62c.83,1.91,2.62,3.41,5.36,4.48s8.34,1.74,16.79,2,17.33.36,26.62.36v3.21H2755.36v-3.57q37.51,0,45-2.87a9.2,9.2,0,0,0,5-4.12q1.42-2.69,1.43-13.08V539.89q0-10-1.43-12.54c-.48-1-2-1.91-4.64-2.87q-10.38-3.94-45.38-3.94v-3.22H2901.5q38.58,0,61.45,20.75,18.23,16.47,18.23,34,0,20.74-14.36,34-17.22,16.1-54.54,20.39,38.1,7.5,50.32,42.46,6.15,17.49,6.14,52.82,0,10.35,1.81,15t8.68,4.64q7.59,0,10.49-12t2.89-33Zm-144.71-72.18h33.1q26,0,38.42-9.71,14.94-11.51,14.95-38.86,0-30.21-12.28-42.63t-40.74-12.41h-17.08q-7.49,0-11,1.08a6.1,6.1,0,0,0-4.45,4.49q-.89,3.42-.89,13.85Z"/><path class="cls-3" d="M3095.87,517.32,3156,683.82l50.25-166.5h99v3.22q-32.52,0-42.87,4.3-3.59,1.44-4.29,2.86-1.8,3.24-1.79,12.91V724.14q0,10.75,1.43,13.26c.48,1,2.2,2,5.18,3.05s8.16,2,15.55,2.69,16.31,1.07,26.79,1.07v3.57H3167.33v-3.57q12.87,0,23.76-1.07t15-2.69c2.74-1.07,4.34-2.08,4.82-3q1.42-2.86,1.43-13.24L3212,529.48c0-4.05-.48-6.09-1.43-6.09s-2,1.79-3.21,5.36l-65.24,219h-7.84l-77-219-2.85-5.35q-1.07,0-1.07,6.08V679.18q0,39.66,10.54,52.35t39.84,12.68v3.57H3002.61v-3.57q25,0,35.38-12.9t10.36-43.73V576.81q0-31.53-9.65-43.91t-36.09-12.36V517Z"/></svg>