<svg width="40" height="40" viewBox="0 0 40 40" fill="none" xmlns="http://www.w3.org/2000/svg">
<rect width="40" height="40" rx="5" fill="#12AF0A"/>
<path fill-rule="evenodd" clip-rule="evenodd" d="M25.415 22.457C25.117 22.3073 23.656 21.5855 23.384 21.485C23.112 21.3855 22.914 21.3362 22.715 21.6358C22.517 21.9333 21.948 22.6068 21.775 22.8059C21.601 23.0059 21.428 23.03 21.131 22.8812C20.834 22.7305 19.876 22.4158 18.741 21.3986C17.858 20.6064 17.261 19.6284 17.088 19.3288C16.915 19.0303 17.069 18.8684 17.218 18.7196C17.352 18.586 17.515 18.3708 17.664 18.1969C17.813 18.022 17.862 17.8974 17.961 17.6973C18.061 17.4983 18.011 17.3244 17.936 17.1746C17.862 17.0248 17.268 15.5542 17.02 14.9561C16.779 14.3741 16.534 14.4535 16.352 14.4434C16.178 14.4354 15.98 14.4334 15.782 14.4334C15.584 14.4334 15.262 14.5078 14.99 14.8073C14.717 15.1059 13.95 15.8286 13.95 17.2993C13.95 18.7689 15.014 20.1893 15.163 20.3893C15.312 20.5883 17.258 23.606 20.239 24.8997C20.949 25.2073 21.502 25.3913 21.933 25.528C22.645 25.7562 23.293 25.724 23.805 25.6466C24.375 25.5612 25.563 24.9239 25.811 24.2262C26.058 23.5286 26.058 22.9305 25.984 22.8059C25.91 22.6812 25.712 22.6068 25.414 22.457H25.415ZM19.993 29.8987H19.989C18.2184 29.899 16.4804 29.4206 14.957 28.5135L14.597 28.2984L10.855 29.2855L11.854 25.6185L11.619 25.2425C10.6291 23.6586 10.1053 21.8255 10.108 19.9551C10.11 14.4766 14.544 10.0195 19.997 10.0195C22.637 10.0195 25.119 11.0549 26.985 12.9326C27.9054 13.854 28.6349 14.9496 29.1313 16.1562C29.6277 17.3628 29.8811 18.6564 29.877 19.9621C29.875 25.4405 25.441 29.8987 19.993 29.8987ZM28.405 11.5062C27.3032 10.3913 25.9922 9.50736 24.5481 8.9055C23.1039 8.30364 21.5553 7.99586 19.992 8C13.438 8 8.102 13.3628 8.1 19.9541C8.099 22.061 8.646 24.1177 9.687 25.9301L8 32.1252L14.304 30.4626C16.0479 31.4177 18.0021 31.9181 19.988 31.9182H19.993C26.547 31.9182 31.883 26.5553 31.885 19.9631C31.8898 18.3922 31.5848 16.836 30.9874 15.3844C30.3901 13.9328 29.5124 12.6146 28.405 11.5062Z" fill="white"/>
</svg>
