<svg width="61" height="60" viewBox="0 0 61 60" fill="none" xmlns="http://www.w3.org/2000/svg">
<path d="M30.6667 55C40.3142 55 48.1667 47.1475 48.1667 37.5C48.1667 27.8525 40.3142 20 30.6667 20C21.0167 20 13.1667 27.8525 13.1667 37.5C13.1667 47.1475 21.0167 55 30.6667 55ZM30.6667 25C37.5592 25 43.1667 30.6075 43.1667 37.5C43.1667 44.3925 37.5592 50 30.6667 50C23.7742 50 18.1667 44.3925 18.1667 37.5C18.1667 30.6075 23.7742 25 30.6667 25ZM28.1667 5H18.1667V18.795C21.1584 16.7931 24.5886 15.5419 28.1667 15.1475V5ZM43.1667 5H33.1667V15.1475C36.7447 15.5419 40.175 16.7931 43.1667 18.795V5Z" fill="#165DB4"/>
<path d="M25.7142 39.5275L24.5442 46.3425L30.6667 43.125L36.7892 46.3425L35.6192 39.5275L40.5742 34.6975L33.7292 33.7025L30.6667 27.5L27.6042 33.7025L20.7592 34.6975L25.7142 39.5275Z" fill="#165DB4"/>
</svg>
