<svg width="38" height="38" viewBox="0 0 38 38" fill="none" xmlns="http://www.w3.org/2000/svg">
<path fill-rule="evenodd" clip-rule="evenodd" d="M24.25 5.75C22.8693 5.75 21.75 4.63071 21.75 3.25C21.75 1.86929 22.8693 0.75 24.25 0.75H34.75C36.1307 0.75 37.25 1.86929 37.25 3.25V13.75C37.25 15.1307 36.1307 16.25 34.75 16.25C33.3693 16.25 32.25 15.1307 32.25 13.75V9.28554L17.2678 24.2678C16.2915 25.2441 14.7085 25.2441 13.7322 24.2678C12.7559 23.2915 12.7559 21.7085 13.7322 20.7322L28.7145 5.75H24.25ZM6.75 11C6.48478 11 6.23043 11.1054 6.04289 11.2929C5.85536 11.4804 5.75 11.7348 5.75 12V31.25C5.75 31.5152 5.85536 31.7696 6.04289 31.9571C6.23043 32.1446 6.48479 32.25 6.75 32.25H26C26.2652 32.25 26.5196 32.1446 26.7071 31.9571C26.8946 31.7696 27 31.5152 27 31.25V20.75C27 19.3693 28.1193 18.25 29.5 18.25C30.8807 18.25 32 19.3693 32 20.75V31.25C32 32.8413 31.3679 34.3674 30.2426 35.4926C29.1174 36.6179 27.5913 37.25 26 37.25H6.75C5.1587 37.25 3.63258 36.6179 2.50736 35.4926C1.38214 34.3674 0.75 32.8413 0.75 31.25V12C0.75 10.4087 1.38214 8.88258 2.50736 7.75736C3.63258 6.63214 5.1587 6 6.75 6H17.25C18.6307 6 19.75 7.11929 19.75 8.5C19.75 9.88071 18.6307 11 17.25 11H6.75Z" fill="#165DB4"/>
</svg>
