<svg width="42" height="38" viewBox="0 0 42 38" fill="none" xmlns="http://www.w3.org/2000/svg">
<path fill-rule="evenodd" clip-rule="evenodd" d="M18.0564 1.43178C18.955 0.925872 19.9688 0.660095 21 0.660095C22.0312 0.660095 23.045 0.925871 23.9436 1.43178C24.8421 1.93769 25.5952 2.66665 26.13 3.54833L26.1372 3.5602L40.9596 28.3052C40.9665 28.3167 40.9733 28.3282 40.98 28.3397C41.5038 29.247 41.7811 30.2756 41.784 31.3233C41.7869 32.371 41.5155 33.4011 40.9967 34.3113C40.4779 35.2215 39.7298 35.98 38.8268 36.5113C37.9239 37.0426 36.8976 37.3282 35.85 37.3397L35.8225 37.3399H6.17748L6.15 37.3397C5.10239 37.3282 4.07606 37.0426 3.17312 36.5113C2.27018 35.98 1.52209 35.2215 1.00328 34.3113C0.484472 33.4011 0.213032 32.371 0.215966 31.3233C0.218899 30.2756 0.496104 29.247 1.02 28.3397C1.02668 28.3282 1.03345 28.3167 1.04031 28.3052L15.8699 3.54831C16.4048 2.66663 17.1578 1.93768 18.0564 1.43178ZM21 5.6601C20.8281 5.6601 20.6591 5.70439 20.5094 5.78871C20.361 5.87225 20.2364 5.99227 20.1475 6.13739L5.34306 30.8522C5.2602 31.0004 5.21642 31.1674 5.21595 31.3373C5.21546 31.5119 5.2607 31.6836 5.34717 31.8353C5.43363 31.987 5.55831 32.1134 5.70881 32.202C5.85656 32.2889 6.02413 32.3364 6.1954 32.3399H35.8046C35.9758 32.3364 36.1434 32.2889 36.2911 32.202C36.4416 32.1134 36.5663 31.987 36.6528 31.8353C36.7393 31.6836 36.7845 31.5119 36.784 31.3373C36.7835 31.1673 36.7397 31.0004 36.6569 30.8521L21.855 6.14147C21.8541 6.14011 21.8533 6.13875 21.8525 6.13739C21.7635 5.99227 21.6389 5.87224 21.4906 5.78871C21.3408 5.70439 21.1718 5.6601 21 5.6601ZM21 11.3399C22.3807 11.3399 23.5 12.4592 23.5 13.8399V20.8399C23.5 22.2206 22.3807 23.3399 21 23.3399C19.6193 23.3399 18.5 22.2206 18.5 20.8399V13.8399C18.5 12.4592 19.6193 11.3399 21 11.3399ZM18.5 27.8399C18.5 26.4592 19.6193 25.3399 21 25.3399H21.0175C22.3982 25.3399 23.5175 26.4592 23.5175 27.8399C23.5175 29.2206 22.3982 30.3399 21.0175 30.3399H21C19.6193 30.3399 18.5 29.2206 18.5 27.8399Z" fill="#165DB4"/>
</svg>
