<svg width="38" height="40" viewBox="0 0 38 40" fill="none" xmlns="http://www.w3.org/2000/svg">
<path fill-rule="evenodd" clip-rule="evenodd" d="M5.93752 7.75C5.96661 7.77488 5.99904 7.80155 6.03515 7.83001C6.51902 8.21135 7.37413 8.6641 8.65364 9.0906C11.1865 9.9349 14.8447 10.5 19 10.5C23.1553 10.5 26.8135 9.9349 29.3464 9.0906C30.6259 8.6641 31.481 8.21135 31.9649 7.83001C32.001 7.80155 32.0334 7.77488 32.0625 7.75C32.0334 7.72512 32.001 7.69845 31.9649 7.66999C31.481 7.28865 30.6259 6.8359 29.3464 6.4094C26.8135 5.5651 23.1553 5 19 5C14.8447 5 11.1865 5.5651 8.65364 6.4094C7.37413 6.8359 6.51902 7.28865 6.03515 7.66999C5.99904 7.69845 5.96661 7.72512 5.93752 7.75ZM32.25 13.3419C31.8226 13.5195 31.38 13.6832 30.9275 13.834C27.76 14.8899 23.5432 15.5 19 15.5C14.4568 15.5 10.24 14.8899 7.0725 13.834C6.62 13.6832 6.1774 13.5195 5.75 13.3419V19.824C5.79628 19.8789 5.88218 19.9668 6.03313 20.0865C6.51178 20.4658 7.36032 20.9173 8.63541 21.343C11.1598 22.1858 14.8169 22.75 19 22.75C23.1831 22.75 26.8402 22.1858 29.3646 21.343C30.6397 20.9173 31.4882 20.4658 31.9669 20.0865C32.1178 19.9668 32.2037 19.8788 32.25 19.824V13.3419ZM32.25 25.601C31.829 25.7758 31.3933 25.937 30.9479 26.0857C27.7848 27.1417 23.5669 27.75 19 27.75C14.4331 27.75 10.2152 27.1417 7.05209 26.0857C6.60667 25.937 6.17096 25.7758 5.75 25.601V32.074C5.79628 32.1289 5.88218 32.2168 6.03313 32.3365C6.51178 32.7158 7.36032 33.1673 8.63541 33.593C11.1598 34.4358 14.8169 35 19 35C23.1831 35 26.8402 34.4358 29.3646 33.593C30.6397 33.1673 31.4882 32.7158 31.9669 32.3365C32.1178 32.2168 32.2037 32.1288 32.25 32.074V25.601ZM32.298 32.0065C32.2985 32.0065 32.2961 32.012 32.289 32.0228C32.2939 32.0118 32.2975 32.0065 32.298 32.0065ZM5.70202 32.0065C5.70255 32.0065 5.70607 32.0118 5.71099 32.0228C5.70394 32.012 5.70148 32.0065 5.70202 32.0065ZM37.25 32.25C37.25 34.0622 36.1545 35.3976 35.0722 36.2553C33.9649 37.1327 32.5166 37.812 30.9479 38.3357C27.7848 39.3917 23.5669 40 19 40C14.4331 40 10.2152 39.3917 7.05209 38.3357C5.48343 37.812 4.03509 37.1327 2.92781 36.2553C1.84549 35.3976 0.75 34.0622 0.75 32.25V7.75C0.75 5.9308 1.85835 4.59559 2.94028 3.74293C4.05039 2.86807 5.50182 2.18954 7.0725 1.66598C10.24 0.61015 14.4568 0 19 0C23.5432 0 27.76 0.61015 30.9275 1.66598C32.4982 2.18954 33.9496 2.86807 35.0597 3.74293C36.1416 4.59559 37.25 5.9308 37.25 7.75V32.25ZM32.2909 7.51448C32.2959 7.50357 32.2995 7.49817 32.3 7.49821C32.3006 7.49824 32.2981 7.5037 32.2909 7.51448ZM5.70906 7.51448C5.70194 7.50369 5.69944 7.49824 5.69997 7.49821C5.7005 7.49818 5.70406 7.50357 5.70906 7.51448Z" fill="#165DB4"/>
</svg>
