<svg width="68" height="68" viewBox="0 0 68 68" fill="none" xmlns="http://www.w3.org/2000/svg">
<g clip-path="url(#clip0_1_18)">
<path d="M42.5524 26.4158C43.0138 25.6545 43.2815 24.7526 43.9346 24.1318C44.5878 23.5109 45.5371 23.2565 46.3383 22.8179C45.5371 22.3793 44.5878 22.1249 43.9346 21.504C43.2815 20.8832 43.0138 19.9813 42.5524 19.22C42.0911 19.9813 41.8234 20.8832 41.1702 21.504C40.5171 22.1249 39.5678 22.3793 38.7684 22.8179C39.5697 23.2565 40.5171 23.5109 41.1702 24.1318C41.8234 24.7526 42.0911 25.6545 42.5524 26.4158Z" fill="#165DB4"/>
<path d="M33.5016 26.4158C33.963 25.6545 34.2307 24.7526 34.8838 24.1318C35.5369 23.5109 36.4863 23.2565 37.2875 22.8179C36.4863 22.3793 35.5388 22.1249 34.8838 21.504C34.2307 20.8832 33.963 19.9813 33.5016 19.22C33.0402 19.9813 32.7725 20.8832 32.1194 21.504C31.4663 22.1249 30.5169 22.3793 29.7157 22.8179C30.5169 23.2565 31.4644 23.5109 32.1194 24.1318C32.7725 24.7526 33.0402 25.6545 33.5016 26.4158Z" fill="#165DB4"/>
<path d="M24.2969 26.4158C24.7583 25.6545 25.026 24.7526 25.6792 24.1318C26.3323 23.5109 27.2816 23.2565 28.0828 22.8179C27.2816 22.3793 26.3342 22.1249 25.6792 21.504C25.026 20.8832 24.7583 19.9813 24.2969 19.22C23.8356 19.9813 23.5679 20.8832 22.9147 21.504C22.2616 22.1249 21.3123 22.3793 20.511 22.8179C21.3123 23.2565 22.2597 23.5109 22.9147 24.1318C23.5679 24.7526 23.8356 25.6545 24.2969 26.4158Z" fill="#165DB4"/>
<path d="M59.9117 47.9257L54.5727 42.5867L61.7211 35.4383C62.5148 34.6446 62.5148 33.3536 61.7211 32.5599L60.7395 31.5783L62.9781 29.3398C63.3122 29.0057 63.3122 28.4645 62.9781 28.1323C62.6439 27.7981 62.1028 27.7981 61.7705 28.1323L59.5301 30.3727L54.9601 25.8026L60.2972 20.4655C61.1136 21.0389 62.0838 21.3484 63.1015 21.3484C64.4096 21.3484 65.638 20.8396 66.5627 19.9149C67.4873 18.9903 67.9962 17.76 67.9962 16.4537C67.9962 15.1474 67.4873 13.9171 66.5627 12.9925C65.638 12.0678 64.4096 11.559 63.1015 11.559C61.7933 11.559 60.5649 12.0678 59.6402 12.9925C57.9371 14.6956 57.7549 17.3499 59.0896 19.258L53.7506 24.597L49.1806 20.027L51.4191 17.7885C51.7533 17.4543 51.7533 16.9132 51.4191 16.5809C51.0849 16.2468 50.5438 16.2468 50.2116 16.5809L47.9712 18.8213L43.4011 14.2513L48.7382 8.91418C49.5546 9.48758 50.5248 9.79705 51.5425 9.79705C52.8507 9.79705 54.0791 9.28822 55.0037 8.36358C56.9119 6.45544 56.9119 3.34925 55.0037 1.44111C53.0956 -0.467025 49.9894 -0.467025 48.0813 1.44111C47.1566 2.36575 46.6478 3.59608 46.6478 4.90235C46.6478 5.92002 46.9573 6.89023 47.5307 7.70665L42.1936 13.0437L37.6235 8.4737L39.8639 6.23519C40.1981 5.90103 40.1981 5.35992 39.8639 5.02766C39.5298 4.69349 38.9887 4.69349 38.6564 5.02766L36.416 7.26806L35.4325 6.28456C34.6389 5.49093 33.3478 5.49093 32.5541 6.28456L25.4057 13.433L20.0668 8.09397C21.4015 6.18583 21.2192 3.53152 19.5161 1.82844C18.5915 0.903797 17.3631 0.39496 16.0549 0.39496C14.7467 0.39496 13.5183 0.903797 12.5937 1.82844C10.6855 3.73658 10.6855 6.84276 12.5937 8.7509C13.5487 9.70592 14.8018 10.1825 16.0549 10.1825C17.0384 10.1825 18.02 9.88819 18.8592 9.30151L24.1982 14.6405L14.6271 24.2116L9.28814 18.8726C10.6229 16.9644 10.4406 14.3101 8.73753 12.6071C6.8294 10.6989 3.72321 10.6989 1.81507 12.6071C0.890431 13.5317 0.381594 14.7601 0.381594 16.0683C0.381594 17.3764 0.890431 18.6049 1.81507 19.5295C2.77009 20.4845 4.0232 20.9611 5.2763 20.9611C6.2598 20.9611 7.2414 20.6668 8.0806 20.0801L13.4196 25.4191L6.27119 32.5675C5.47756 33.3611 5.47756 34.6522 6.27119 35.4459L7.25469 36.4294L5.01429 38.6698C4.68013 39.0039 4.68013 39.545 5.01429 39.8773C5.18137 40.0444 5.39971 40.1279 5.61806 40.1279C5.8364 40.1279 6.05475 40.0444 6.22183 39.8773L8.46033 37.6369L13.0304 42.2069L7.69328 47.544C6.87686 46.9706 5.90665 46.6612 4.88898 46.6612C3.58081 46.6612 2.35239 47.17 1.42775 48.0946C-0.480392 50.0028 -0.480392 53.109 1.42775 55.0171C2.38277 55.9721 3.63587 56.4487 4.88898 56.4487C6.14209 56.4487 7.39709 55.9721 8.35021 55.0171C9.27485 54.0925 9.78369 52.864 9.78369 51.5559C9.78369 50.5382 9.47421 49.568 8.90082 48.7516L14.2379 43.4145L18.808 47.9845L16.5676 50.2249C16.2334 50.5591 16.2334 51.1002 16.5676 51.4325C16.7346 51.5995 16.953 51.6831 17.1713 51.6831C17.3897 51.6831 17.608 51.5995 17.7751 51.4325L20.0136 49.194L24.5836 53.764L19.2446 59.103C17.3365 57.7682 14.6822 57.9505 12.9791 59.6536C12.0545 60.5782 11.5456 61.8067 11.5456 63.1148C11.5456 64.423 12.0545 65.6514 12.9791 66.5761C13.9038 67.5007 15.1341 68.0095 16.4403 68.0095C17.7466 68.0095 18.9769 67.5007 19.9016 66.5761C20.8262 65.6514 21.3351 64.423 21.3351 63.1148C21.3351 62.0972 21.0256 61.1269 20.4522 60.3105L25.7893 54.9734L30.3593 59.5435L28.1189 61.7839C27.7848 62.118 27.7848 62.6592 28.1189 62.9914C28.286 63.1585 28.5043 63.242 28.7227 63.242C28.941 63.242 29.1594 63.1585 29.3265 62.9914L31.565 60.7529L32.5466 61.7345C32.9434 62.1313 33.4655 62.3307 33.9857 62.3307C34.506 62.3307 35.0281 62.1332 35.4249 61.7345L42.5733 54.5861L47.9123 59.9251C46.5775 61.8332 46.7598 64.4875 48.4629 66.1906C49.4179 67.1457 50.671 67.6222 51.9241 67.6222C53.1772 67.6222 54.4322 67.1457 55.3854 66.1906C57.2935 64.2825 57.2935 61.1763 55.3854 59.2663C53.6823 57.5632 51.028 57.3809 49.1198 58.7157L43.7808 53.3767L53.3519 43.8056L58.6909 49.1446C57.3562 51.0527 57.5384 53.707 59.2415 55.4101C60.1965 56.3651 61.4496 56.8417 62.7027 56.8417C63.9558 56.8417 65.2109 56.3651 66.164 55.4101C68.0721 53.502 68.0721 50.3958 66.164 48.4858C64.4609 46.7827 61.8066 46.6004 59.8984 47.9352L59.9117 47.9257ZM60.8497 14.1962C61.4515 13.5943 62.2509 13.2621 63.1034 13.2621C63.9558 13.2621 64.7552 13.5943 65.3571 14.1962C65.9589 14.7981 66.2912 15.5974 66.2912 16.4499C66.2912 17.3024 65.9589 18.1017 65.3571 18.7036C64.7552 19.3055 63.9558 19.6377 63.1034 19.6377C62.2509 19.6377 61.4515 19.3055 60.8497 18.7036C59.6079 17.4619 59.6079 15.4398 60.8497 14.1962ZM49.2945 2.64106C49.9154 2.0202 50.7318 1.70882 51.5482 1.70882C52.3646 1.70882 53.181 2.0202 53.8019 2.64106C55.0436 3.88277 55.0436 5.90483 53.8019 7.14844C53.2 7.75031 52.4007 8.08258 51.5482 8.08258C50.6957 8.08258 49.8964 7.75031 49.2945 7.14844C48.6926 6.54657 48.3604 5.74724 48.3604 4.89475C48.3604 4.04226 48.6926 3.24293 49.2945 2.64106ZM13.8069 7.53387C12.5652 6.29215 12.5652 4.2701 13.8069 3.02648C14.4088 2.42461 15.2081 2.09235 16.0606 2.09235C16.9131 2.09235 17.7124 2.42461 18.3143 3.02648C19.556 4.2682 19.556 6.29026 18.3143 7.53387C17.0726 8.77558 15.0505 8.77558 13.8069 7.53387ZM3.02831 18.3144C2.42643 17.7125 2.09417 16.9132 2.09417 16.0607C2.09417 15.2082 2.42643 14.4089 3.02831 13.807C3.64916 13.1861 4.46558 12.8748 5.282 12.8748C6.09842 12.8748 6.91483 13.1861 7.53569 13.807C8.77741 15.0487 8.77741 17.0708 7.53569 18.3144C6.29398 19.5561 4.27192 19.5561 3.02831 18.3144ZM7.14647 53.802C5.90475 55.0437 3.8827 55.0437 2.63908 53.802C1.39737 52.5603 1.39737 50.5382 2.63908 49.2946C3.24095 48.6927 4.04028 48.3605 4.89278 48.3605C5.74527 48.3605 6.5446 48.6927 7.14647 49.2946C7.74834 49.8965 8.0806 50.6958 8.0806 51.5483C8.0806 52.4008 7.74834 53.2001 7.14647 53.802ZM18.7016 65.3571C18.0998 65.959 17.3004 66.2913 16.4479 66.2913C15.5954 66.2913 14.7961 65.959 14.1942 65.3571C13.5924 64.7553 13.2601 63.9559 13.2601 63.1034C13.2601 62.2509 13.5924 61.4516 14.1942 60.8497C14.8151 60.2289 15.6315 59.9175 16.4479 59.9175C17.2644 59.9175 18.0808 60.2289 18.7016 60.8497C19.3035 61.4516 19.6358 62.2509 19.6358 63.1034C19.6358 63.9559 19.3035 64.7553 18.7016 65.3571ZM51.9355 59.5302C52.7519 59.5302 53.5684 59.8416 54.1892 60.4624C55.4309 61.7041 55.4309 63.7262 54.1892 64.9698C52.9475 66.2115 50.9254 66.2115 49.6818 64.9698C48.4401 63.7281 48.4401 61.706 49.6818 60.4624C50.3027 59.8416 51.1191 59.5302 51.9355 59.5302ZM7.48253 33.7675L15.2347 26.0153L26.0133 15.2367L33.7655 7.4826C33.83 7.41805 33.9136 7.38767 33.9971 7.38767C34.0807 7.38767 34.1642 7.41995 34.2288 7.4826L35.8141 9.06797L53.1469 26.4026L60.5117 33.7675C60.5952 33.851 60.6066 33.9478 60.6066 33.9991C60.6066 34.0504 60.5933 34.1472 60.5117 34.2307L47.0123 47.7301C46.194 46.889 45.6586 46.0897 45.6263 45.2865V31.8916L46.0573 31.4777L41.6031 27.5893L37.1717 31.4568L32.7402 27.5893L28.286 31.4777C29.2676 32.3226 29.9359 33.0688 29.9321 33.6023V48.4117C28.7265 47.3143 27.8797 46.3042 27.8398 45.2865V31.8916L28.2708 31.4777L23.8166 27.5893L19.3605 31.4777C20.3421 32.3226 21.0104 33.0688 21.0066 33.6023V47.7548L9.0698 35.818L7.48443 34.2307C7.35722 34.1035 7.35722 33.8966 7.48443 33.7675H7.48253ZM38.795 33.6004V48.3529C37.6216 47.2763 36.8033 46.2833 36.7634 45.2846V31.8897L37.1717 31.4967C38.14 32.334 38.7988 33.0726 38.795 33.6004ZM34.2288 60.5137C34.1452 60.5972 34.0484 60.6086 33.9971 60.6086C33.9459 60.6086 33.849 60.5953 33.7655 60.5137L26.4006 53.1488L25.9089 52.6571L30.1391 48.9661L34.6028 52.8602L39.0342 48.9927L42.6189 52.1217L34.2269 60.5137H34.2288ZM64.9678 54.1893C63.7261 55.431 61.7041 55.431 60.4604 54.1893C59.2187 52.9476 59.2187 50.9255 60.4604 49.6819C61.0813 49.0611 61.8977 48.7497 62.7141 48.7497C63.5306 48.7497 64.347 49.0611 64.9678 49.6819C66.2095 50.9236 66.2095 52.9457 64.9678 54.1893Z" fill="#165DB4"/>
</g>
<defs>
<clipPath id="clip0_1_18">
<rect width="68" height="68" fill="white"/>
</clipPath>
</defs>
</svg>
