<svg width="1440" height="169" viewBox="0 0 1440 169" fill="none" xmlns="http://www.w3.org/2000/svg">
<path fill-rule="evenodd" clip-rule="evenodd" d="M0 148.091L60 127.091C120 105.091 240 62.0912 360 62.0912C480 62.0912 600 105.091 720 98.0912C840 91.0912 960 33.0912 1080 11.0912C1200 -9.90879 1320 4.09121 1380 11.0912L1440 19.0912V168.5H1380C1320 168.5 1200 168.5 1080 168.5C960 168.5 840 168.5 720 168.5C600 168.5 480 168.5 360 168.5C240 168.5 120 168.5 60 168.5H0V148.091Z" fill="#F5F5F5"/>
</svg>
