<svg width="1920" height="494" viewBox="0 0 1920 494" fill="none" xmlns="http://www.w3.org/2000/svg">
<g style="mix-blend-mode:multiply" opacity="0.65">
<path fill-rule="evenodd" clip-rule="evenodd" d="M0 0L80 45.0348C160 90.0695 320 180.139 480 215.792C640 251.444 800 233.618 960 197.965C1120 161.375 1280 107.896 1440 125.722C1600 143.548 1760 233.618 1840 278.653L1920 323.687V486H1840C1760 486 1600 486 1440 486C1280 486 1120 486 960 486C800 486 640 486 480 486C320 486 160 486 80 486H0V0Z" fill="url(#paint0_linear_102_1771)"/>
<path fill-rule="evenodd" clip-rule="evenodd" d="M0 0L80 45.0348C160 90.0695 320 180.139 480 215.792C640 251.444 800 233.618 960 197.965C1120 161.375 1280 107.896 1440 125.722C1600 143.548 1760 233.618 1840 278.653L1920 323.687V486H1840C1760 486 1600 486 1440 486C1280 486 1120 486 960 486C800 486 640 486 480 486C320 486 160 486 80 486H0V0Z" stroke="black"/>
</g>
<g style="mix-blend-mode:multiply" opacity="0.5">
<path fill-rule="evenodd" clip-rule="evenodd" d="M0 407.057L80 381.196C160 355.335 320 303.614 480 303.614C640 303.614 800 355.335 960 315.863C1120 276.392 1280 145.727 1440 94.0055C1600 42.284 1760 68.1448 1840 80.3946L1920 94.0055V486H1840C1760 486 1600 486 1440 486C1280 486 1120 486 960 486C800 486 640 486 480 486C320 486 160 486 80 486H0V407.057Z" fill="url(#paint1_linear_102_1771)"/>
<path fill-rule="evenodd" clip-rule="evenodd" d="M0 407.057L80 381.196C160 355.335 320 303.614 480 303.614C640 303.614 800 355.335 960 315.863C1120 276.392 1280 145.727 1440 94.0055C1600 42.284 1760 68.1448 1840 80.3946L1920 94.0055V486H1840C1760 486 1600 486 1440 486C1280 486 1120 486 960 486C800 486 640 486 480 486C320 486 160 486 80 486H0V407.057Z" stroke="black"/>
</g>
<g style="mix-blend-mode:multiply" opacity="0.5">
<path fill-rule="evenodd" clip-rule="evenodd" d="M1920 268.603L1840 277.11C1760 286.562 1600 304.521 1440 313.973C1280 322.479 1120 322.479 960 277.11C800 231.74 640 141 480 141C320 141 160 231.74 80 277.11L0 322.479V486H80C160 486 320 486 480 486C640 486 800 486 960 486C1120 486 1280 486 1440 486C1600 486 1760 486 1840 486H1920V268.603Z" fill="url(#paint2_linear_102_1771)"/>
<path fill-rule="evenodd" clip-rule="evenodd" d="M1920 268.603L1840 277.11C1760 286.562 1600 304.521 1440 313.973C1280 322.479 1120 322.479 960 277.11C800 231.74 640 141 480 141C320 141 160 231.74 80 277.11L0 322.479V486H80C160 486 320 486 480 486C640 486 800 486 960 486C1120 486 1280 486 1440 486C1600 486 1760 486 1840 486H1920V268.603Z" stroke="black"/>
</g>
<path fill-rule="evenodd" clip-rule="evenodd" d="M1920 175H1840C1760 175 1600 175 1440 214C1280 252 1120 329 960 377C800 425 640 444 480 444C320 444 160 425 80 415L0 406V493.5H80C160 493.5 320 493.5 480 493.5C640 493.5 800 493.5 960 493.5C1120 493.5 1280 493.5 1440 493.5C1600 493.5 1760 493.5 1840 493.5H1920V175Z" fill="white"/>
<defs>
<linearGradient id="paint0_linear_102_1771" x1="960" y1="0" x2="960" y2="486" gradientUnits="userSpaceOnUse">
<stop stop-color="#0099FF"/>
<stop offset="1" stop-color="#006AB1"/>
</linearGradient>
<linearGradient id="paint1_linear_102_1771" x1="960" y1="63" x2="960" y2="486" gradientUnits="userSpaceOnUse">
<stop stop-color="#0099FF"/>
<stop offset="1" stop-color="#006AB1"/>
</linearGradient>
<linearGradient id="paint2_linear_102_1771" x1="960" y1="141" x2="960" y2="486" gradientUnits="userSpaceOnUse">
<stop stop-color="#0099FF"/>
<stop offset="1" stop-color="#006AB1"/>
</linearGradient>
</defs>
</svg>
