<svg width="18" height="19" viewBox="0 0 18 19" fill="none" xmlns="http://www.w3.org/2000/svg">
<path d="M15 3.5H3C2.175 3.5 1.5075 4.175 1.5075 5L1.5 14C1.5 14.825 2.175 15.5 3 15.5H15C15.825 15.5 16.5 14.825 16.5 14V5C16.5 4.175 15.825 3.5 15 3.5ZM14.7 6.6875L9.3975 10.0025C9.1575 10.1525 8.8425 10.1525 8.6025 10.0025L3.3 6.6875C3.2248 6.64528 3.15894 6.58825 3.10642 6.51984C3.05389 6.45143 3.0158 6.37308 2.99443 6.28953C2.97307 6.20597 2.96888 6.11895 2.98212 6.03373C2.99536 5.94851 3.02575 5.86686 3.07146 5.79373C3.11717 5.72059 3.17724 5.65749 3.24804 5.60825C3.31885 5.559 3.3989 5.52463 3.48337 5.50722C3.56784 5.48981 3.65496 5.48973 3.73947 5.50696C3.82397 5.5242 3.9041 5.5584 3.975 5.6075L9 8.75L14.025 5.6075C14.0959 5.5584 14.176 5.5242 14.2605 5.50696C14.345 5.48973 14.4322 5.48981 14.5166 5.50722C14.6011 5.52463 14.6812 5.559 14.752 5.60825C14.8228 5.65749 14.8828 5.72059 14.9285 5.79373C14.9742 5.86686 15.0046 5.94851 15.0179 6.03373C15.0311 6.11895 15.0269 6.20597 15.0056 6.28953C14.9842 6.37308 14.9461 6.45143 14.8936 6.51984C14.8411 6.58825 14.7752 6.64528 14.7 6.6875Z" fill="white"/>
</svg>
