<svg width="18" height="19" viewBox="0 0 18 19" fill="none" xmlns="http://www.w3.org/2000/svg">
<path d="M16.2844 12.8116C16.16 13.7611 15.695 14.6331 14.976 15.2655C14.2569 15.898 13.3326 16.2477 12.375 16.2499C6.79219 16.2499 2.25 11.7077 2.25 6.12485C2.25211 5.16724 2.6019 4.24297 3.23432 3.52389C3.86675 2.80482 4.73878 2.33986 5.68828 2.21548C5.93033 2.18864 6.17463 2.2396 6.38577 2.36097C6.5969 2.48234 6.76388 2.66781 6.8625 2.89048L8.27578 6.18813C8.34909 6.3593 8.37848 6.54607 8.36129 6.73149C8.3441 6.9169 8.28087 7.09508 8.17734 7.24985L7.01016 9.03579C7.53868 10.1084 8.40955 10.9743 9.48516 11.4967L11.25 10.3225C11.4046 10.2183 11.5832 10.1552 11.769 10.1392C11.9548 10.1232 12.1416 10.1548 12.3117 10.2311L15.6094 11.6374C15.832 11.736 16.0175 11.903 16.1389 12.1141C16.2603 12.3252 16.3112 12.5695 16.2844 12.8116Z" fill="white"/>
</svg>
