<svg width="19" height="18" viewBox="0 0 19 18" fill="none" xmlns="http://www.w3.org/2000/svg">
<path d="M16.0869 2.41309C16.011 2.33753 15.9151 2.28521 15.8104 2.2623C15.7058 2.23938 15.5968 2.24681 15.4963 2.28371L3.12125 6.78371C3.01453 6.82419 2.92264 6.89618 2.8578 6.99012C2.79297 7.08406 2.75824 7.19551 2.75824 7.30965C2.75824 7.42379 2.79297 7.53523 2.8578 7.62917C2.92264 7.72311 3.01453 7.79511 3.12125 7.83559L7.95313 9.76496L11.5194 6.18746L12.3125 6.98059L8.72938 10.5637L10.6644 15.3956C10.7061 15.5002 10.7782 15.59 10.8715 15.6532C10.9648 15.7163 11.0748 15.7501 11.1875 15.75C11.3012 15.7476 11.4115 15.7109 11.5039 15.6446C11.5962 15.5784 11.6664 15.4856 11.705 15.3787L16.205 3.00371C16.2433 2.90419 16.2526 2.79583 16.2317 2.69126C16.2107 2.58668 16.1605 2.49021 16.0869 2.41309Z" fill="white"/>
</svg>
