<svg width="44" height="38" viewBox="0 0 44 38" fill="none" xmlns="http://www.w3.org/2000/svg">
<path fill-rule="evenodd" clip-rule="evenodd" d="M8 0.75C9.38071 0.75 10.5 1.86929 10.5 3.25V15.5C10.5 16.8807 9.38071 18 8 18C6.61929 18 5.5 16.8807 5.5 15.5V3.25C5.5 1.86929 6.61929 0.75 8 0.75ZM22 0.75C23.3807 0.75 24.5 1.86929 24.5 3.25V9.5H27.25C28.6307 9.5 29.75 10.6193 29.75 12C29.75 13.3807 28.6307 14.5 27.25 14.5H16.75C15.3693 14.5 14.25 13.3807 14.25 12C14.25 10.6193 15.3693 9.5 16.75 9.5H19.5V3.25C19.5 1.86929 20.6193 0.75 22 0.75ZM36 0.75C37.3807 0.75 38.5 1.86929 38.5 3.25V19C38.5 20.3807 37.3807 21.5 36 21.5C34.6193 21.5 33.5 20.3807 33.5 19V3.25C33.5 1.86929 34.6193 0.75 36 0.75ZM22 16.5C23.3807 16.5 24.5 17.6193 24.5 19V34.75C24.5 36.1307 23.3807 37.25 22 37.25C20.6193 37.25 19.5 36.1307 19.5 34.75V19C19.5 17.6193 20.6193 16.5 22 16.5ZM0.25 22.5C0.25 21.1193 1.36929 20 2.75 20H13.25C14.6307 20 15.75 21.1193 15.75 22.5C15.75 23.8807 14.6307 25 13.25 25H10.5V34.75C10.5 36.1307 9.38071 37.25 8 37.25C6.61929 37.25 5.5 36.1307 5.5 34.75V25H2.75C1.36929 25 0.25 23.8807 0.25 22.5ZM28.25 26C28.25 24.6193 29.3693 23.5 30.75 23.5H41.25C42.6307 23.5 43.75 24.6193 43.75 26C43.75 27.3807 42.6307 28.5 41.25 28.5H38.5V34.75C38.5 36.1307 37.3807 37.25 36 37.25C34.6193 37.25 33.5 36.1307 33.5 34.75V28.5H30.75C29.3693 28.5 28.25 27.3807 28.25 26Z" fill="#165DB4"/>
</svg>
