<svg width="44" height="40" viewBox="0 0 44 40" fill="none" xmlns="http://www.w3.org/2000/svg">
<path fill-rule="evenodd" clip-rule="evenodd" d="M13.7597 0.329393C14.4854 -0.085321 15.3704 -0.109885 16.118 0.263933L28.9213 6.66558L40.0097 0.329393C40.7834 -0.112754 41.734 -0.109579 42.5048 0.337726C43.2756 0.785031 43.75 1.60883 43.75 2.5V30.5C43.75 31.3971 43.2693 32.2255 42.4903 32.6706L30.2403 39.6706C29.5146 40.0853 28.6296 40.1099 27.882 39.7361L15.0787 33.3344L3.99035 39.6706C3.21659 40.1128 2.26597 40.1096 1.49518 39.6623C0.724396 39.215 0.25 38.3912 0.25 37.5V9.5C0.25 8.60286 0.730715 7.7745 1.50965 7.32939L13.7597 0.329393ZM17.5 28.9549L26.5 33.4549V11.0451L17.5 6.54509V28.9549ZM12.5 6.80795V29.0492L5.25 33.1921V10.9508L12.5 6.80795ZM31.5 10.9508V33.1921L38.75 29.0492V6.80795L31.5 10.9508Z" fill="#165DB4"/>
</svg>
