<svg width="16" height="17" viewBox="0 0 16 17" fill="none" xmlns="http://www.w3.org/2000/svg">
<path d="M14.6661 5.83337C14.6662 5.71239 14.6332 5.59368 14.5708 5.49004L12.7648 2.48004C12.6458 2.28327 12.4782 2.12042 12.2781 2.00717C12.0779 1.89392 11.852 1.83406 11.6221 1.83337H4.37676C3.91143 1.83337 3.47343 2.08137 3.2341 2.48071L1.4281 5.49004C1.36566 5.59368 1.3327 5.71239 1.33276 5.83337C1.33276 6.50337 1.5901 7.10937 1.99943 7.57871V13.8334C1.99943 14.0102 2.06967 14.1798 2.19469 14.3048C2.31972 14.4298 2.48929 14.5 2.6661 14.5H7.99943C8.17624 14.5 8.34581 14.4298 8.47083 14.3048C8.59586 14.1798 8.6661 14.0102 8.6661 13.8334V10.5H11.3328V13.8334C11.3328 14.0102 11.403 14.1798 11.528 14.3048C11.653 14.4298 11.8226 14.5 11.9994 14.5H13.3328C13.5096 14.5 13.6791 14.4298 13.8042 14.3048C13.9292 14.1798 13.9994 14.0102 13.9994 13.8334V7.57871C14.4088 7.10937 14.6661 6.50337 14.6661 5.83337ZM13.3221 6.00071C13.2811 6.32265 13.1242 6.61861 12.8807 6.83322C12.6373 7.04784 12.324 7.16639 11.9994 7.16671C11.2641 7.16671 10.6661 6.56871 10.6661 5.83337C10.6661 5.78804 10.6494 5.74804 10.6401 5.70537L10.6534 5.70271L10.1461 3.16671H11.6221L13.3221 6.00071ZM6.67076 5.87671L7.2121 3.16671H8.7861L9.3281 5.87671C9.30476 6.59204 8.71943 7.16671 7.99943 7.16671C7.27943 7.16671 6.6941 6.59204 6.67076 5.87671ZM4.37676 3.16671H5.85276L5.3461 5.70271L5.35943 5.70537C5.34943 5.74804 5.33276 5.78804 5.33276 5.83337C5.33276 6.56871 4.73476 7.16671 3.99943 7.16671C3.67489 7.16639 3.36159 7.04784 3.11814 6.83322C2.87469 6.61861 2.71778 6.32265 2.67676 6.00071L4.37676 3.16671ZM6.6661 11.1667H3.99943V9.16671H6.6661V11.1667Z" fill="white"/>
</svg>
