<svg width="18" height="18" viewBox="0 0 18 18" fill="none" xmlns="http://www.w3.org/2000/svg">
<path fill-rule="evenodd" clip-rule="evenodd" d="M3.59995 14.8498V3.1498H3.37495C3.19593 3.1498 3.02424 3.07869 2.89765 2.9521C2.77107 2.82551 2.69995 2.65383 2.69995 2.4748C2.69995 2.29578 2.77107 2.12409 2.89765 1.99751C3.02424 1.87092 3.19593 1.7998 3.37495 1.7998H14.625C14.804 1.7998 14.9757 1.87092 15.1022 1.99751C15.2288 2.12409 15.3 2.29578 15.3 2.4748C15.3 2.65383 15.2288 2.82551 15.1022 2.9521C14.9757 3.07869 14.804 3.1498 14.625 3.1498H14.4V14.8498H14.625C14.804 14.8498 14.9757 14.9209 15.1022 15.0475C15.2288 15.1741 15.3 15.3458 15.3 15.5248C15.3 15.7038 15.2288 15.8755 15.1022 16.0021C14.9757 16.1287 14.804 16.1998 14.625 16.1998H11.475C11.2959 16.1998 11.1242 16.1287 10.9977 16.0021C10.8711 15.8755 10.8 15.7038 10.8 15.5248V13.2748C10.8 13.0958 10.7288 12.9241 10.6022 12.7975C10.4757 12.6709 10.304 12.5998 10.125 12.5998H7.87495C7.69593 12.5998 7.52424 12.6709 7.39765 12.7975C7.27107 12.9241 7.19995 13.0958 7.19995 13.2748V15.5248C7.19995 15.7038 7.12884 15.8755 7.00225 16.0021C6.87566 16.1287 6.70397 16.1998 6.52495 16.1998H3.37495C3.19593 16.1998 3.02424 16.1287 2.89765 16.0021C2.77107 15.8755 2.69995 15.7038 2.69995 15.5248C2.69995 15.3458 2.77107 15.1741 2.89765 15.0475C3.02424 14.9209 3.19593 14.8498 3.37495 14.8498H3.59995ZM6.29995 4.9498C6.29995 4.83046 6.34736 4.716 6.43175 4.63161C6.51614 4.54722 6.6306 4.4998 6.74995 4.4998H7.64995C7.7693 4.4998 7.88376 4.54722 7.96815 4.63161C8.05254 4.716 8.09995 4.83046 8.09995 4.9498V5.8498C8.09995 5.96915 8.05254 6.08361 7.96815 6.168C7.88376 6.25239 7.7693 6.2998 7.64995 6.2998H6.74995C6.6306 6.2998 6.51614 6.25239 6.43175 6.168C6.34736 6.08361 6.29995 5.96915 6.29995 5.8498V4.9498ZM6.74995 8.0998C6.6306 8.0998 6.51614 8.14721 6.43175 8.23161C6.34736 8.316 6.29995 8.43046 6.29995 8.5498V9.4498C6.29995 9.56915 6.34736 9.68361 6.43175 9.768C6.51614 9.85239 6.6306 9.8998 6.74995 9.8998H7.64995C7.7693 9.8998 7.88376 9.85239 7.96815 9.768C8.05254 9.68361 8.09995 9.56915 8.09995 9.4498V8.5498C8.09995 8.43046 8.05254 8.316 7.96815 8.23161C7.88376 8.14721 7.7693 8.0998 7.64995 8.0998H6.74995ZM9.89995 4.9498C9.89995 4.83046 9.94736 4.716 10.0318 4.63161C10.1161 4.54722 10.2306 4.4998 10.35 4.4998H11.25C11.3693 4.4998 11.4838 4.54722 11.5681 4.63161C11.6525 4.716 11.7 4.83046 11.7 4.9498V5.8498C11.7 5.96915 11.6525 6.08361 11.5681 6.168C11.4838 6.25239 11.3693 6.2998 11.25 6.2998H10.35C10.2306 6.2998 10.1161 6.25239 10.0318 6.168C9.94736 6.08361 9.89995 5.96915 9.89995 5.8498V4.9498ZM10.35 8.0998C10.2306 8.0998 10.1161 8.14721 10.0318 8.23161C9.94736 8.316 9.89995 8.43046 9.89995 8.5498V9.4498C9.89995 9.56915 9.94736 9.68361 10.0318 9.768C10.1161 9.85239 10.2306 9.8998 10.35 9.8998H11.25C11.3693 9.8998 11.4838 9.85239 11.5681 9.768C11.6525 9.68361 11.7 9.56915 11.7 9.4498V8.5498C11.7 8.43046 11.6525 8.316 11.5681 8.23161C11.4838 8.14721 11.3693 8.0998 11.25 8.0998H10.35Z" fill="white"/>
</svg>
