<svg width="64" height="64" viewBox="0 0 64 64" fill="none" xmlns="http://www.w3.org/2000/svg">
<path d="M32.3233 47.75C35.665 47.75 38.8699 46.4226 41.2328 44.0596C43.5958 41.6966 44.9233 38.4918 44.9233 35.15H19.7233C19.7233 38.4918 21.0508 41.6966 23.4137 44.0596C25.7767 46.4226 28.9815 47.75 32.3233 47.75ZM26.0233 25.7C26.0233 26.5355 25.6914 27.3367 25.1007 27.9274C24.5099 28.5182 23.7087 28.85 22.8733 28.85C22.0378 28.85 21.2366 28.5182 20.6459 27.9274C20.0551 27.3367 19.7233 26.5355 19.7233 25.7C19.7233 24.8646 20.0551 24.0634 20.6459 23.4727C21.2366 22.8819 22.0378 22.55 22.8733 22.55C23.7087 22.55 24.5099 22.8819 25.1007 23.4727C25.6914 24.0634 26.0233 24.8646 26.0233 25.7ZM41.7733 28.85C42.6087 28.85 43.4099 28.5182 44.0007 27.9274C44.5914 27.3367 44.9233 26.5355 44.9233 25.7C44.9233 24.8646 44.5914 24.0634 44.0007 23.4727C43.4099 22.8819 42.6087 22.55 41.7733 22.55C40.9378 22.55 40.1366 22.8819 39.5459 23.4727C38.9551 24.0634 38.6233 24.8646 38.6233 25.7C38.6233 26.5355 38.9551 27.3367 39.5459 27.9274C40.1366 28.5182 40.9378 28.85 41.7733 28.85Z" fill="#293651"/>
<path fill-rule="evenodd" clip-rule="evenodd" d="M63.8232 32C63.8232 49.3974 49.7207 63.5 32.3232 63.5C14.9258 63.5 0.823242 49.3974 0.823242 32C0.823242 14.6026 14.9258 0.5 32.3232 0.5C49.7207 0.5 63.8232 14.6026 63.8232 32ZM57.5232 32C57.5232 38.6835 54.8683 45.0932 50.1423 49.8191C45.4164 54.545 39.0067 57.2 32.3232 57.2C25.6398 57.2 19.2301 54.545 14.5042 49.8191C9.77824 45.0932 7.12324 38.6835 7.12324 32C7.12324 25.3165 9.77824 18.9068 14.5042 14.1809C19.2301 9.45499 25.6398 6.8 32.3232 6.8C39.0067 6.8 45.4164 9.45499 50.1423 14.1809C54.8683 18.9068 57.5232 25.3165 57.5232 32Z" fill="#293651"/>
</svg>
