<svg width="16" height="16" viewBox="0 0 16 16" fill="none" xmlns="http://www.w3.org/2000/svg">
<path d="M1.71429 5.78518L7.80229 8.95146C7.86336 8.98322 7.93118 8.99979 8.00001 8.99979C8.06884 8.99979 8.13666 8.98322 8.19772 8.95146L14.2857 5.78575V11.2857C14.2858 11.7601 14.1043 12.2165 13.7785 12.5613C13.4527 12.9061 13.0073 13.1132 12.5337 13.14L12.4286 13.1429H3.57144C3.09707 13.1429 2.64068 12.9614 2.29588 12.6357C1.95108 12.3099 1.74401 11.8645 1.71715 11.3909L1.71429 11.2857V5.78518ZM3.57144 2.85718H12.4286C12.9029 2.85715 13.3593 3.03864 13.7041 3.36442C14.0489 3.6902 14.256 4.13557 14.2829 4.60918L14.2857 4.71432V4.81946L8.00001 8.08804L1.71429 4.81946V4.71432C1.71426 4.23996 1.89575 3.78356 2.22154 3.43876C2.54732 3.09396 2.99269 2.88689 3.46629 2.86003L3.57144 2.85718H12.4286H3.57144Z" fill="white"/>
</svg>
