<svg width="63" height="64" viewBox="0 0 63 64" fill="none" xmlns="http://www.w3.org/2000/svg">
<path d="M27.09 37.67L20.2388 30.8188C19.6613 30.2413 18.9399 29.9662 18.0747 29.9935C17.2074 30.0187 16.485 30.32 15.9075 30.8975C15.33 31.475 15.0413 32.21 15.0413 33.1025C15.0413 33.995 15.33 34.73 15.9075 35.3075L24.885 44.285C25.4625 44.8625 26.1975 45.1512 27.09 45.1512C27.9825 45.1512 28.7175 44.8625 29.295 44.285L47.1713 26.4088C47.7488 25.8313 48.0249 25.1089 47.9997 24.2416C47.9724 23.3764 47.67 22.655 47.0925 22.0775C46.515 21.5 45.78 21.2113 44.8875 21.2113C43.995 21.2113 43.26 21.5 42.6825 22.0775L27.09 37.67ZM31.5 63.5C27.1425 63.5 23.0475 62.6726 19.215 61.0178C15.3825 59.3651 12.0488 57.1213 9.21375 54.2863C6.37875 51.4513 4.1349 48.1175 2.4822 44.285C0.8274 40.4525 0 36.3575 0 32C0 27.6425 0.8274 23.5475 2.4822 19.715C4.1349 15.8825 6.37875 12.5488 9.21375 9.71375C12.0488 6.87875 15.3825 4.63385 19.215 2.97905C23.0475 1.32635 27.1425 0.5 31.5 0.5C35.8575 0.5 39.9525 1.32635 43.785 2.97905C47.6175 4.63385 50.9513 6.87875 53.7863 9.71375C56.6213 12.5488 58.8651 15.8825 60.5178 19.715C62.1726 23.5475 63 27.6425 63 32C63 36.3575 62.1726 40.4525 60.5178 44.285C58.8651 48.1175 56.6213 51.4513 53.7863 54.2863C50.9513 57.1213 47.6175 59.3651 43.785 61.0178C39.9525 62.6726 35.8575 63.5 31.5 63.5ZM31.5 57.2C38.4825 57.2 44.4286 54.7462 49.3385 49.8385C54.2462 44.9286 56.7 38.9825 56.7 32C56.7 25.0175 54.2462 19.0714 49.3385 14.1616C44.4286 9.25385 38.4825 6.8 31.5 6.8C24.5175 6.8 18.5724 9.25385 13.6647 14.1616C8.7549 19.0714 6.3 25.0175 6.3 32C6.3 38.9825 8.7549 44.9286 13.6647 49.8385C18.5724 54.7462 24.5175 57.2 31.5 57.2Z" fill="#293651"/>
</svg>
