<svg width="42" height="42" viewBox="0 0 42 42" fill="none" xmlns="http://www.w3.org/2000/svg">
<path d="M39.8651 15.4454C39.9765 15.189 40.0368 14.9128 40.0427 14.6328C40.0486 14.3527 40 14.0742 39.8996 13.8132C39.7992 13.5522 39.6489 13.3139 39.4575 13.1117C39.2661 12.9096 39.0372 12.7477 38.784 12.6353L11.2287 0.344487C9.13172 -0.590776 6.55005 0.453387 5.65437 2.56947L0.996839 13.5748C0.558668 14.6158 0.546022 15.7905 0.961677 16.8409C1.37733 17.8914 2.18733 18.7318 3.21391 19.1779L15.9389 24.704L13.3256 31.3235H4.21496V24.9176H0V42H4.21496V35.5941H13.3256C15.0601 35.5941 16.5964 34.5392 17.2371 32.9079L19.8124 26.3867L30.7819 31.1484C31.2927 31.3705 31.8695 31.3791 32.3866 31.1723C32.9037 30.9656 33.3192 30.5602 33.5427 30.0444L34.2002 28.5284L37.785 29.9804L42 19.3039L38.7629 17.9949L39.8651 15.4454ZM30.5205 26.3909L4.87461 15.2553L9.52792 4.25423L35.1591 15.6866L30.5205 26.3909Z" fill="#165DB4"/>
</svg>
