<svg width="53" height="64" viewBox="0 0 53 64" fill="none" xmlns="http://www.w3.org/2000/svg">
<path fill-rule="evenodd" clip-rule="evenodd" d="M29.9387 1.53851C31.7481 -0.631584 35.2723 0.85141 34.986 3.6628L32.9648 23.4112H49.315C49.859 23.4114 50.3916 23.5666 50.8506 23.8586C51.3096 24.1506 51.6759 24.5674 51.9066 25.06C52.1373 25.5527 52.2229 26.1008 52.1533 26.6404C52.0837 27.1799 51.8619 27.6884 51.5137 28.1064L22.8845 62.4615C21.0751 64.6316 17.5508 63.1486 17.8371 60.3372L19.8584 40.5888H3.50821C2.96422 40.5886 2.43154 40.4334 1.97255 40.1414C1.51357 39.8494 1.14728 39.4326 0.916572 38.94C0.685867 38.4473 0.600297 37.8992 0.669883 37.3596C0.73947 36.8201 0.961332 36.3116 1.30949 35.8936L29.9387 1.53851ZM9.62055 34.8629H24.9315C25.0915 34.8629 25.2498 34.8965 25.3961 34.9614C25.5423 35.0263 25.6734 35.1212 25.7808 35.2399C25.8881 35.3586 25.9694 35.4985 26.0194 35.6505C26.0694 35.8025 26.0869 35.9634 26.0709 36.1226L24.4877 51.5967L43.2026 29.1371H27.8917C27.7317 29.1371 27.5734 29.1035 27.4271 29.0386C27.2808 28.9737 27.1498 28.8788 27.0424 28.7601C26.9351 28.6414 26.8538 28.5015 26.8038 28.3495C26.7538 28.1975 26.7363 28.0366 26.7523 27.8774L28.3355 12.4062L9.62055 34.8629Z" fill="#293651"/>
</svg>
