<svg width="28" height="34" viewBox="0 0 28 34" fill="none" xmlns="http://www.w3.org/2000/svg">
<path fill-rule="evenodd" clip-rule="evenodd" d="M14 0C15.6569 0 17 1.34315 17 3V31C17 32.6569 15.6569 34 14 34C12.3431 34 11 32.6569 11 31V3C11 1.34315 12.3431 0 14 0ZM24.5 10.5C26.1569 10.5 27.5 11.8431 27.5 13.5V31C27.5 32.6569 26.1569 34 24.5 34C22.8431 34 21.5 32.6569 21.5 31V13.5C21.5 11.8431 22.8431 10.5 24.5 10.5ZM3.5 17.5C5.15685 17.5 6.5 18.8431 6.5 20.5V31C6.5 32.6569 5.15685 34 3.5 34C1.84315 34 0.5 32.6569 0.5 31V20.5C0.5 18.8431 1.84315 17.5 3.5 17.5Z" fill="#165DB4"/>
</svg>
