<svg width="18" height="18" viewBox="0 0 18 18" fill="none" xmlns="http://www.w3.org/2000/svg">
<path fill-rule="evenodd" clip-rule="evenodd" d="M2.25 1.6875C2.10082 1.6875 1.95774 1.74676 1.85225 1.85225C1.74676 1.95774 1.6875 2.10082 1.6875 2.25C1.6875 2.39918 1.74676 2.54226 1.85225 2.64775C1.95774 2.75324 2.10082 2.8125 2.25 2.8125V15.1875H1.6875C1.53832 15.1875 1.39524 15.2468 1.28975 15.3523C1.18426 15.4577 1.125 15.6008 1.125 15.75C1.125 15.8992 1.18426 16.0423 1.28975 16.1477C1.39524 16.2532 1.53832 16.3125 1.6875 16.3125H11.25V2.8125C11.3992 2.8125 11.5423 2.75324 11.6477 2.64775C11.7532 2.54226 11.8125 2.39918 11.8125 2.25C11.8125 2.10082 11.7532 1.95774 11.6477 1.85225C11.5423 1.74676 11.3992 1.6875 11.25 1.6875H2.25ZM5.0625 14.625V12.9375C5.0625 12.7883 5.12176 12.6452 5.22725 12.5398C5.33274 12.4343 5.47582 12.375 5.625 12.375H7.875C8.02418 12.375 8.16726 12.4343 8.27275 12.5398C8.37824 12.6452 8.4375 12.7883 8.4375 12.9375V14.625C8.4375 14.7742 8.37824 14.9173 8.27275 15.0227C8.16726 15.1282 8.02418 15.1875 7.875 15.1875H5.625C5.47582 15.1875 5.33274 15.1282 5.22725 15.0227C5.12176 14.9173 5.0625 14.7742 5.0625 14.625ZM4.5 5.0625C4.5 4.91332 4.55926 4.77024 4.66475 4.66475C4.77024 4.55926 4.91332 4.5 5.0625 4.5H5.625C5.77418 4.5 5.91726 4.55926 6.02275 4.66475C6.12824 4.77024 6.1875 4.91332 6.1875 5.0625C6.1875 5.21168 6.12824 5.35476 6.02275 5.46025C5.91726 5.56574 5.77418 5.625 5.625 5.625H5.0625C4.91332 5.625 4.77024 5.56574 4.66475 5.46025C4.55926 5.35476 4.5 5.21168 4.5 5.0625ZM5.0625 6.75C4.91332 6.75 4.77024 6.80926 4.66475 6.91475C4.55926 7.02024 4.5 7.16332 4.5 7.3125C4.5 7.46168 4.55926 7.60476 4.66475 7.71025C4.77024 7.81574 4.91332 7.875 5.0625 7.875H5.625C5.77418 7.875 5.91726 7.81574 6.02275 7.71025C6.12824 7.60476 6.1875 7.46168 6.1875 7.3125C6.1875 7.16332 6.12824 7.02024 6.02275 6.91475C5.91726 6.80926 5.77418 6.75 5.625 6.75H5.0625ZM4.5 9.5625C4.5 9.41332 4.55926 9.27024 4.66475 9.16475C4.77024 9.05926 4.91332 9 5.0625 9H5.625C5.77418 9 5.91726 9.05926 6.02275 9.16475C6.12824 9.27024 6.1875 9.41332 6.1875 9.5625C6.1875 9.71168 6.12824 9.85476 6.02275 9.96025C5.91726 10.0657 5.77418 10.125 5.625 10.125H5.0625C4.91332 10.125 4.77024 10.0657 4.66475 9.96025C4.55926 9.85476 4.5 9.71168 4.5 9.5625ZM7.875 4.5C7.72582 4.5 7.58274 4.55926 7.47725 4.66475C7.37176 4.77024 7.3125 4.91332 7.3125 5.0625C7.3125 5.21168 7.37176 5.35476 7.47725 5.46025C7.58274 5.56574 7.72582 5.625 7.875 5.625H8.4375C8.58668 5.625 8.72976 5.56574 8.83525 5.46025C8.94074 5.35476 9 5.21168 9 5.0625C9 4.91332 8.94074 4.77024 8.83525 4.66475C8.72976 4.55926 8.58668 4.5 8.4375 4.5H7.875ZM7.3125 7.3125C7.3125 7.16332 7.37176 7.02024 7.47725 6.91475C7.58274 6.80926 7.72582 6.75 7.875 6.75H8.4375C8.58668 6.75 8.72976 6.80926 8.83525 6.91475C8.94074 7.02024 9 7.16332 9 7.3125C9 7.46168 8.94074 7.60476 8.83525 7.71025C8.72976 7.81574 8.58668 7.875 8.4375 7.875H7.875C7.72582 7.875 7.58274 7.81574 7.47725 7.71025C7.37176 7.60476 7.3125 7.46168 7.3125 7.3125ZM7.875 9C7.72582 9 7.58274 9.05926 7.47725 9.16475C7.37176 9.27024 7.3125 9.41332 7.3125 9.5625C7.3125 9.71168 7.37176 9.85476 7.47725 9.96025C7.58274 10.0657 7.72582 10.125 7.875 10.125H8.4375C8.58668 10.125 8.72976 10.0657 8.83525 9.96025C8.94074 9.85476 9 9.71168 9 9.5625C9 9.41332 8.94074 9.27024 8.83525 9.16475C8.72976 9.05926 8.58668 9 8.4375 9H7.875ZM12.375 5.0625V16.3125H16.3125C16.4617 16.3125 16.6048 16.2532 16.7102 16.1477C16.8157 16.0423 16.875 15.8992 16.875 15.75C16.875 15.6008 16.8157 15.4577 16.7102 15.3523C16.6048 15.2468 16.4617 15.1875 16.3125 15.1875H15.75V6.1875C15.8992 6.1875 16.0423 6.12824 16.1477 6.02275C16.2532 5.91726 16.3125 5.77418 16.3125 5.625C16.3125 5.47582 16.2532 5.33274 16.1477 5.22725C16.0423 5.12176 15.8992 5.0625 15.75 5.0625H12.375ZM13.5 8.4375C13.5 8.28832 13.5593 8.14524 13.6648 8.03975C13.7702 7.93426 13.9133 7.875 14.0625 7.875H14.0685C14.2177 7.875 14.3608 7.93426 14.4662 8.03975C14.5717 8.14524 14.631 8.28832 14.631 8.4375V8.4435C14.631 8.59268 14.5717 8.73576 14.4662 8.84125C14.3608 8.94674 14.2177 9.006 14.0685 9.006H14.0625C13.9133 9.006 13.7702 8.94674 13.6648 8.84125C13.5593 8.73576 13.5 8.59268 13.5 8.4435V8.4375ZM14.0625 10.125C13.9133 10.125 13.7702 10.1843 13.6648 10.2898C13.5593 10.3952 13.5 10.5383 13.5 10.6875V10.6935C13.5 11.004 13.752 11.256 14.0625 11.256H14.0685C14.2177 11.256 14.3608 11.1967 14.4662 11.0912C14.5717 10.9858 14.631 10.8427 14.631 10.6935V10.6875C14.631 10.5383 14.5717 10.3952 14.4662 10.2898C14.3608 10.1843 14.2177 10.125 14.0685 10.125H14.0625ZM13.5 12.9375C13.5 12.7883 13.5593 12.6452 13.6648 12.5398C13.7702 12.4343 13.9133 12.375 14.0625 12.375H14.0685C14.2177 12.375 14.3608 12.4343 14.4662 12.5398C14.5717 12.6452 14.631 12.7883 14.631 12.9375V12.9435C14.631 13.0927 14.5717 13.2358 14.4662 13.3412C14.3608 13.4467 14.2177 13.506 14.0685 13.506H14.0625C13.9133 13.506 13.7702 13.4467 13.6648 13.3412C13.5593 13.2358 13.5 13.0927 13.5 12.9435V12.9375Z" fill="white"/>
</svg>
