<svg width="60" height="60" viewBox="0 0 60 60" fill="none" xmlns="http://www.w3.org/2000/svg">
<path d="M46.8 36.9C47.675 34.775 48.15 32.5 48.15 30C48.15 28.2 47.875 26.475 47.4 24.875C45.775 25.25 44.075 25.45 42.3 25.45C38.6649 25.4539 35.0822 24.5838 31.8538 22.913C28.6255 21.2423 25.8461 18.8199 23.75 15.85C21.5077 21.2754 17.2778 25.6395 11.925 28.05C11.825 28.675 11.825 29.35 11.825 30C11.825 32.3868 12.2951 34.7502 13.2085 36.9553C14.1219 39.1603 15.4606 41.1639 17.1483 42.8517C20.5568 46.2601 25.1797 48.175 30 48.175C32.625 48.175 35.15 47.6 37.425 46.575C38.85 49.3 39.5 50.65 39.45 50.65C35.35 52.025 32.175 52.7 30 52.7C23.95 52.7 18.175 50.325 13.925 46.05C11.34 43.4729 9.41842 40.3075 8.325 36.825H5V25.45H7.725C8.5506 21.4313 10.4487 17.711 13.218 14.684C15.9872 11.6569 19.5243 9.43601 23.4538 8.25688C27.3834 7.07776 31.5588 6.98442 35.5372 7.98676C39.5155 8.98909 43.1482 11.0497 46.05 13.95C49.2006 17.0881 51.3495 21.0902 52.225 25.45H55V36.825H54.85L45.95 45L32.7 43.5V39.325H44.775L46.8 36.9ZM23.175 29.425C23.925 29.425 24.65 29.725 25.175 30.275C25.7026 30.8069 25.9987 31.5258 25.9987 32.275C25.9987 33.0242 25.7026 33.7431 25.175 34.275C24.65 34.8 23.925 35.1 23.175 35.1C21.6 35.1 20.325 33.85 20.325 32.275C20.325 30.7 21.6 29.425 23.175 29.425ZM36.8 29.425C38.375 29.425 39.625 30.7 39.625 32.275C39.625 33.85 38.375 35.1 36.8 35.1C35.225 35.1 33.95 33.85 33.95 32.275C33.95 31.5191 34.2503 30.7942 34.7847 30.2597C35.3192 29.7253 36.0441 29.425 36.8 29.425Z" fill="#165DB4"/>
</svg>
