<svg width="44" height="44" viewBox="0 0 44 44" fill="none" xmlns="http://www.w3.org/2000/svg">
<path d="M22 27.25C24.8995 27.25 27.25 24.8995 27.25 22C27.25 19.1005 24.8995 16.75 22 16.75C19.1005 16.75 16.75 19.1005 16.75 22C16.75 24.8995 19.1005 27.25 22 27.25Z" stroke="#165DB4" stroke-width="5" stroke-linecap="round" stroke-linejoin="round"/>
<path d="M34.95 27.25C34.717 27.7778 34.6476 28.3633 34.7505 28.931C34.8534 29.4987 35.1241 30.0226 35.5275 30.435L35.6325 30.54C35.9579 30.8651 36.2161 31.2511 36.3922 31.676C36.5683 32.1009 36.659 32.5563 36.659 33.0163C36.659 33.4762 36.5683 33.9316 36.3922 34.3565C36.2161 34.7814 35.9579 35.1674 35.6325 35.4925C35.3074 35.8179 34.9214 36.0761 34.4965 36.2522C34.0717 36.4283 33.6162 36.519 33.1563 36.519C32.6963 36.519 32.2409 36.4283 31.816 36.2522C31.3911 36.0761 31.0051 35.8179 30.68 35.4925L30.575 35.3875C30.1626 34.9841 29.6387 34.7134 29.071 34.6105C28.5033 34.5076 27.9178 34.577 27.39 34.81C26.8724 35.0318 26.431 35.4002 26.12 35.8697C25.8091 36.3392 25.6422 36.8894 25.64 37.4525V37.75C25.64 38.6783 25.2713 39.5685 24.6149 40.2249C23.9585 40.8813 23.0683 41.25 22.14 41.25C21.2117 41.25 20.3215 40.8813 19.6651 40.2249C19.0088 39.5685 18.64 38.6783 18.64 37.75V37.5925C18.6265 37.0133 18.439 36.4515 18.1019 35.9802C17.7648 35.509 17.2938 35.15 16.75 34.95C16.2222 34.717 15.6367 34.6476 15.069 34.7505C14.5013 34.8534 13.9774 35.1241 13.565 35.5275L13.46 35.6325C13.1349 35.9579 12.7489 36.2161 12.324 36.3922C11.8991 36.5683 11.4437 36.659 10.9838 36.659C10.5238 36.659 10.0684 36.5683 9.64346 36.3922C9.21857 36.2161 8.83256 35.9579 8.5075 35.6325C8.18208 35.3074 7.92393 34.9214 7.74779 34.4965C7.57166 34.0717 7.481 33.6162 7.481 33.1563C7.481 32.6963 7.57166 32.2409 7.74779 31.816C7.92393 31.3911 8.18208 31.0051 8.5075 30.68L8.6125 30.575C9.01594 30.1626 9.28658 29.6387 9.38951 29.071C9.49244 28.5033 9.42295 27.9178 9.19 27.39C8.96817 26.8724 8.59982 26.431 8.13031 26.12C7.66081 25.8091 7.11063 25.6422 6.5475 25.64H6.25C5.32174 25.64 4.4315 25.2713 3.77513 24.6149C3.11875 23.9585 2.75 23.0683 2.75 22.14C2.75 21.2117 3.11875 20.3215 3.77513 19.6651C4.4315 19.0088 5.32174 18.64 6.25 18.64H6.4075C6.98674 18.6265 7.54851 18.439 8.01977 18.1019C8.49104 17.7648 8.85 17.2938 9.05 16.75C9.28295 16.2222 9.35244 15.6367 9.24951 15.069C9.14658 14.5013 8.87594 13.9774 8.4725 13.565L8.3675 13.46C8.04208 13.1349 7.78393 12.7489 7.60779 12.324C7.43166 11.8991 7.341 11.4437 7.341 10.9838C7.341 10.5238 7.43166 10.0684 7.60779 9.64346C7.78393 9.21857 8.04208 8.83256 8.3675 8.5075C8.69256 8.18208 9.07857 7.92393 9.50346 7.74779C9.92835 7.57166 10.3838 7.481 10.8438 7.481C11.3037 7.481 11.7591 7.57166 12.184 7.74779C12.6089 7.92393 12.9949 8.18208 13.32 8.5075L13.425 8.6125C13.8374 9.01594 14.3613 9.28658 14.929 9.38951C15.4967 9.49244 16.0822 9.42295 16.61 9.19H16.75C17.2676 8.96817 17.709 8.59982 18.02 8.13031C18.3309 7.66081 18.4978 7.11063 18.5 6.5475V6.25C18.5 5.32174 18.8688 4.4315 19.5251 3.77513C20.1815 3.11875 21.0717 2.75 22 2.75C22.9283 2.75 23.8185 3.11875 24.4749 3.77513C25.1313 4.4315 25.5 5.32174 25.5 6.25V6.4075C25.5022 6.97063 25.6691 7.52081 25.98 7.99031C26.291 8.45982 26.7324 8.82817 27.25 9.05C27.7778 9.28295 28.3633 9.35244 28.931 9.24951C29.4987 9.14658 30.0226 8.87594 30.435 8.4725L30.54 8.3675C30.8651 8.04208 31.2511 7.78393 31.676 7.60779C32.1009 7.43166 32.5563 7.341 33.0163 7.341C33.4762 7.341 33.9316 7.43166 34.3565 7.60779C34.7814 7.78393 35.1674 8.04208 35.4925 8.3675C35.8179 8.69256 36.0761 9.07857 36.2522 9.50346C36.4283 9.92835 36.519 10.3838 36.519 10.8438C36.519 11.3037 36.4283 11.7591 36.2522 12.184C36.0761 12.6089 35.8179 12.9949 35.4925 13.32L35.3875 13.425C34.9841 13.8374 34.7134 14.3613 34.6105 14.929C34.5076 15.4967 34.577 16.0822 34.81 16.61V16.75C35.0318 17.2676 35.4002 17.709 35.8697 18.02C36.3392 18.3309 36.8894 18.4978 37.4525 18.5H37.75C38.6783 18.5 39.5685 18.8688 40.2249 19.5251C40.8813 20.1815 41.25 21.0717 41.25 22C41.25 22.9283 40.8813 23.8185 40.2249 24.4749C39.5685 25.1313 38.6783 25.5 37.75 25.5H37.5925C37.0294 25.5022 36.4792 25.6691 36.0097 25.98C35.5402 26.291 35.1718 26.7324 34.95 27.25Z" stroke="#165DB4" stroke-width="5" stroke-linecap="round" stroke-linejoin="round"/>
</svg>
