<svg width="21" height="25" viewBox="0 0 21 25" fill="none" xmlns="http://www.w3.org/2000/svg">
<g clip-path="url(#clip0_102_1752)">
<path fill-rule="evenodd" clip-rule="evenodd" d="M3.56437 0.379761C3.89725 0.927756 4.09102 1.57742 4.56301 2.02623C5.03501 2.47256 5.71816 2.65853 6.29698 2.97344C5.71816 3.28835 5.03501 3.47184 4.56301 3.92065C4.09102 4.36699 3.89725 5.01912 3.56437 5.56712C3.23149 5.01912 3.03772 4.36947 2.56572 3.92065C2.09373 3.47184 1.41058 3.28835 0.831759 2.97344C1.41058 2.65853 2.09373 2.47504 2.56572 2.02623C3.03772 1.57742 3.23149 0.927756 3.56437 0.379761V0.379761ZM16.743 0.379761C17.0759 0.927756 17.2697 1.57742 17.7417 2.02623C18.2136 2.47256 18.8968 2.65853 19.4756 2.97344C18.8968 3.28835 18.2136 3.47184 17.7417 3.92065C17.2697 4.36699 17.0759 5.01912 16.743 5.56712C16.4101 5.01912 16.2164 4.36947 15.7444 3.92065C15.2724 3.47184 14.5892 3.28835 14.0104 2.97344C14.5892 2.65853 15.2724 2.47504 15.7444 2.02623C16.2164 1.57742 16.4101 0.927756 16.743 0.379761V0.379761ZM14.0303 21.3722V10.7421C14.0328 10.3602 13.5583 9.82958 12.8577 9.22704L12.5621 9.50971V19.1629C12.5919 19.882 13.1807 20.5986 14.0278 21.3747L14.0303 21.3722ZM16.0574 6.41019L19.2744 9.21216L18.9639 9.50971V19.1629C18.9962 19.9787 19.7489 20.787 20.7773 21.6846L17.4038 24.623L14.2042 21.8359L11.0045 24.623L7.78253 21.8161L4.56053 24.623L1.187 21.6846V10.7421C1.18948 10.3577 0.707549 9.81966 -0.00292969 9.21216L3.2141 6.41019L6.43113 9.21216L6.1206 9.50971V19.1629C6.15041 19.8944 6.76152 20.6234 7.63099 21.4144V10.7421C7.63348 10.3577 7.15154 9.81966 6.44106 9.21216L9.65809 6.41019L12.8577 9.19728L16.0574 6.41019ZM10.2096 0.379761C10.5425 0.927756 10.7362 1.57742 11.2082 2.02623C11.6802 2.47256 12.3659 2.65853 12.9422 2.97344C12.3634 3.28835 11.6802 3.47184 11.2082 3.92065C10.7362 4.36699 10.5425 5.01912 10.2096 5.56712C9.8767 5.01912 9.68293 4.36947 9.21094 3.92065C8.73894 3.47184 8.0533 3.28835 7.47697 2.97344C8.05579 2.65853 8.73894 2.47504 9.21094 2.02623C9.68293 1.57742 9.8767 0.927756 10.2096 0.379761V0.379761Z" fill="#165DB4"/>
</g>
<defs>
<clipPath id="clip0_102_1752">
<rect width="20.7778" height="24.2407" fill="white" transform="translate(0 0.379761)"/>
</clipPath>
</defs>
</svg>
