<svg xmlns="http://www.w3.org/2000/svg" width="45.369" height="45.369" viewBox="0 0 45.369 45.369"><path d="M224.113,216.539l7.379-4.25-7.379-4.25Zm0,0" transform="translate(-204.254 -189.605)" fill="#37aedf"/><path d="M22.684,0A22.684,22.684,0,1,0,45.369,22.684,22.687,22.687,0,0,0,22.684,0ZM36.859,22.708a37.44,37.44,0,0,1-.584,6.819,3.552,3.552,0,0,1-2.5,2.5c-2.218.584-11.092.584-11.092.584s-8.85,0-11.092-.607a3.552,3.552,0,0,1-2.5-2.5,37.275,37.275,0,0,1-.584-6.819,37.415,37.415,0,0,1,.584-6.819,3.624,3.624,0,0,1,2.5-2.522c2.218-.584,11.092-.584,11.092-.584s8.874,0,11.092.607a3.552,3.552,0,0,1,2.5,2.5,35.529,35.529,0,0,1,.584,6.842Zm0,0" fill="#37aedf"/></svg>