<svg xmlns="http://www.w3.org/2000/svg" width="45.369" height="45.369" viewBox="0 0 45.369 45.369"><path d="M22.684,0A22.684,22.684,0,1,0,45.369,22.684,22.687,22.687,0,0,0,22.684,0Zm11.38,17.356v3.072A10.718,10.718,0,0,1,27.506,18.2l.022,9.454a7.919,7.919,0,0,1-2.376,5.636,8.085,8.085,0,0,1-4.516,2.259,8.325,8.325,0,0,1-1.22.09,8.112,8.112,0,0,1-4.972-1.681,8.248,8.248,0,0,1-.764-.667,7.949,7.949,0,0,1-.359-10.961A8.111,8.111,0,0,1,19.416,19.6a8.325,8.325,0,0,1,1.22.09v4.295a3.824,3.824,0,1,0,2.63,3.633l.005-6.331V9.731H27.5a6.547,6.547,0,0,0,6.551,6.487s.013,0,.012,0v1.14Z" fill="#37aedf"/></svg>