<svg xmlns="http://www.w3.org/2000/svg" width="45.369" height="45.369" viewBox="0 0 45.369 45.369"><path d="M22.684,0A22.684,22.684,0,1,0,45.369,22.684,22.687,22.687,0,0,0,22.684,0ZM33.042,17.687q.015.335.015.673A14.714,14.714,0,0,1,18.242,33.174h0a14.738,14.738,0,0,1-7.981-2.339,10.59,10.59,0,0,0,1.242.072,10.447,10.447,0,0,0,6.467-2.229,5.212,5.212,0,0,1-4.864-3.616,5.189,5.189,0,0,0,2.352-.089,5.208,5.208,0,0,1-4.177-5.1c0-.024,0-.045,0-.066a5.171,5.171,0,0,0,2.358.651A5.211,5.211,0,0,1,12.028,13.5a14.782,14.782,0,0,0,10.732,5.44,5.21,5.21,0,0,1,8.872-4.748,10.443,10.443,0,0,0,3.306-1.264,5.227,5.227,0,0,1-2.29,2.88,10.384,10.384,0,0,0,2.99-.82,10.581,10.581,0,0,1-2.6,2.7Zm0,0" fill="#37aedf"/></svg>