<svg width="42" height="42" viewBox="0 0 42 42" fill="none" xmlns="http://www.w3.org/2000/svg">
<path d="M10.5 15.75V3.5H31.5V15.75" stroke="#D3FFF8" stroke-width="2" stroke-linecap="round" stroke-linejoin="round"/>
<path d="M10.5 31.5H7C6.07174 31.5 5.1815 31.1313 4.52513 30.4749C3.86875 29.8185 3.5 28.9283 3.5 28V19.25C3.5 18.3217 3.86875 17.4315 4.52513 16.7751C5.1815 16.1187 6.07174 15.75 7 15.75H35C35.9283 15.75 36.8185 16.1187 37.4749 16.7751C38.1313 17.4315 38.5 18.3217 38.5 19.25V28C38.5 28.9283 38.1313 29.8185 37.4749 30.4749C36.8185 31.1313 35.9283 31.5 35 31.5H31.5" stroke="#D3FFF8" stroke-width="2" stroke-linecap="round" stroke-linejoin="round"/>
<path d="M31.5 24.5H10.5V38.5H31.5V24.5Z" stroke="#D3FFF8" stroke-width="2" stroke-linecap="round" stroke-linejoin="round"/>
</svg>
