<svg width="24" height="14" viewBox="0 0 24 14" fill="none" xmlns="http://www.w3.org/2000/svg">
<path d="M7.3678 0C8.0068 0 8.59781 0.05 9.1378 0.198C9.62782 0.288045 10.0956 0.472831 10.5148 0.742C10.9088 0.989 11.2038 1.336 11.3998 1.781C11.5968 2.226 11.6948 2.771 11.6948 3.364C11.6948 4.057 11.5478 4.65 11.2038 5.095C10.9088 5.541 10.4168 5.936 9.82681 6.233C10.6628 6.481 11.3018 6.926 11.6948 7.519C12.0888 8.113 12.3348 8.855 12.3348 9.696C12.3348 10.389 12.1868 10.982 11.9408 11.477C11.6948 11.972 11.3018 12.417 10.8588 12.714C10.3776 13.0324 9.84564 13.2664 9.2858 13.406C8.6958 13.555 8.1058 13.654 7.5158 13.654H0.924805V0H7.3678ZM6.9738 5.54C7.5148 5.54 7.9578 5.392 8.3018 5.145C8.6458 4.898 8.79381 4.452 8.79381 3.908C8.79381 3.611 8.7438 3.314 8.6458 3.117C8.5478 2.919 8.39981 2.77 8.2038 2.622C8.0068 2.523 7.8098 2.424 7.5638 2.375C7.3178 2.325 7.0728 2.325 6.7768 2.325H3.9248V5.541H6.9748L6.9738 5.54ZM7.1218 11.378C7.4168 11.378 7.7118 11.328 7.9578 11.279C8.20618 11.2318 8.44109 11.1304 8.6458 10.982C8.84619 10.8372 9.01383 10.6519 9.1378 10.438C9.2358 10.191 9.3348 9.894 9.3348 9.548C9.3348 8.855 9.1378 8.36 8.7448 8.014C8.3508 7.717 7.8098 7.569 7.1708 7.569H3.9248V11.379H7.1218V11.378ZM16.6138 11.328C17.0068 11.724 17.5968 11.922 18.3838 11.922C18.9248 11.922 19.4168 11.774 19.8098 11.527C20.2038 11.23 20.4498 10.933 20.5478 10.636H22.9578C22.5638 11.823 21.9738 12.664 21.1878 13.208C20.3998 13.703 19.4658 14 18.3348 14C17.6112 14.0022 16.8936 13.8678 16.2198 13.604C15.6135 13.3765 15.0728 13.0028 14.6458 12.516C14.1891 12.0606 13.8515 11.4997 13.6628 10.883C13.4168 10.24 13.3178 9.548 13.3178 8.756C13.3178 8.014 13.4168 7.322 13.6628 6.678C13.8993 6.05809 14.2493 5.48768 14.6948 4.996C15.1378 4.551 15.6788 4.156 16.2688 3.908C16.9255 3.64406 17.6271 3.50959 18.3348 3.512C19.1708 3.512 19.9088 3.661 20.5478 4.007C21.1878 4.353 21.6788 4.749 22.0728 5.343C22.4747 5.91353 22.7742 6.5497 22.9578 7.223C23.0558 7.915 23.1048 8.608 23.0558 9.399H15.9248C15.9248 10.191 16.2198 10.933 16.6138 11.329V11.328ZM19.7118 6.134C19.3678 5.788 18.8268 5.59 18.1868 5.59C17.8115 5.58437 17.4404 5.66909 17.1048 5.837C16.8098 5.986 16.6138 6.184 16.4168 6.382C16.2358 6.57326 16.116 6.81422 16.0728 7.074C16.0228 7.322 15.9738 7.519 15.9738 7.717H20.3998C20.3018 6.975 20.0558 6.481 19.7118 6.134ZM15.3838 0.94H20.8918V2.276H15.3848V0.94H15.3838Z" fill="#646F87"/>
</svg>
