<svg width="20" height="20" viewBox="0 0 20 20" fill="none" xmlns="http://www.w3.org/2000/svg">
<path d="M9.99731 13.3348C8.16111 13.3348 6.66262 11.8362 6.66262 10C6.66262 8.16376 8.16111 6.66525 9.99731 6.66525C11.8335 6.66525 13.332 8.16376 13.332 10C13.332 11.8362 11.8335 13.3348 9.99731 13.3348ZM19.9989 10C19.9989 11.3809 20.0114 12.7494 19.9338 14.1278C19.8563 15.7289 19.4911 17.1498 18.3203 18.3206C17.147 19.4939 15.7286 19.8567 14.1275 19.9342C12.7466 20.0118 11.3782 19.9993 9.99981 19.9993C8.61891 19.9993 7.25051 20.0118 5.8721 19.9342C4.27105 19.8567 2.85012 19.4914 1.67935 18.3206C0.506076 17.1473 0.143338 15.7289 0.0657868 14.1278C-0.0117642 12.7469 0.000744099 11.3784 0.000744099 10C0.000744099 8.62157 -0.0117642 7.25064 0.0657868 5.87221C0.143338 4.27113 0.508578 2.85017 1.67935 1.67938C2.85262 0.506086 4.27105 0.143341 5.8721 0.0657883C7.25301 -0.0117626 8.62141 0.000743866 9.99981 0.000743866C11.3807 0.000743866 12.7491 -0.0117626 14.1275 0.0657883C15.7286 0.143341 17.1495 0.508589 18.3203 1.67938C19.4936 2.85267 19.8563 4.27113 19.9338 5.87221C20.0139 7.25064 19.9989 8.61907 19.9989 10ZM9.99731 4.86903C7.15795 4.86903 4.86644 7.16058 4.86644 10C4.86644 12.8394 7.15795 15.131 9.99731 15.131C12.8367 15.131 15.1282 12.8394 15.1282 10C15.1282 7.16058 12.8367 4.86903 9.99731 4.86903ZM15.3383 14.1428C14.6754 14.1428 14.14 14.6782 14.14 15.3411C14.14 16.0041 14.6754 16.5394 15.3383 16.5394C16.0013 16.5394 16.5366 16.0041 16.5366 15.3411C16.5368 15.1837 16.5059 15.0278 16.4458 14.8823C16.3856 14.7368 16.2974 14.6046 16.1861 14.4933C16.0748 14.382 15.9426 14.2938 15.7971 14.2336C15.6516 14.1735 15.4957 14.1426 15.3383 14.1428Z" fill="#646F87"/>
</svg>
