<svg width="20" height="18" viewBox="0 0 20 18" fill="none" xmlns="http://www.w3.org/2000/svg">
<path d="M4.46997 2.00051C4.46971 2.53094 4.25874 3.03955 3.88348 3.41443C3.50822 3.78932 2.9994 3.99978 2.46897 3.99951C1.93854 3.99925 1.42994 3.78828 1.05505 3.41302C0.680165 3.03776 0.469706 2.52894 0.469971 1.99851C0.470236 1.46808 0.681204 0.959476 1.05646 0.584591C1.43172 0.209706 1.94054 -0.000753247 2.47097 -0.000488031C3.0014 -0.000222814 3.51001 0.210745 3.88489 0.586005C4.25978 0.961266 4.47024 1.47008 4.46997 2.00051ZM4.52997 5.48051H0.529971V18.0005H4.52997V5.48051ZM10.85 5.48051H6.86997V18.0005H10.81V11.4305C10.81 7.77051 15.58 7.43051 15.58 11.4305V18.0005H19.53V10.0705C19.53 3.90051 12.47 4.13051 10.81 7.16051L10.85 5.48051Z" fill="#646F87"/>
</svg>
