<svg width="24" height="24" viewBox="0 0 24 24" fill="none" xmlns="http://www.w3.org/2000/svg">
<path d="M23.8126 12.0676V12.002C23.8117 10.2498 23.4217 8.51962 22.6708 6.93645C21.9199 5.35329 20.8268 3.95663 19.4704 2.84732L19.4048 2.79263L19.3063 2.727C17.5732 1.35901 15.4911 0.504645 13.2966 0.261027C11.1021 0.0174087 8.88324 0.394305 6.89228 1.34888L6.72821 1.43638C5.11901 2.2414 3.71435 3.40244 2.62085 4.83138C1.52735 6.26031 0.773762 7.91959 0.417277 9.68325C0.261468 10.4463 0.184501 11.2233 0.187589 12.002C0.1897 13.8328 0.616534 15.6381 1.43452 17.2759C2.2525 18.9138 3.43933 20.3396 4.90165 21.4411C4.95909 21.4909 5.02138 21.5349 5.08759 21.5723H5.09853C6.63825 22.6843 8.4232 23.409 10.3023 23.685C12.1814 23.9611 14.0994 23.7804 15.8938 23.1583L16.036 23.1036C18.2976 22.2782 20.2536 20.7827 21.6431 18.8168C23.0326 16.8508 23.7894 14.5078 23.8126 12.1004V12.0676ZM21.1001 10.6895H20.7501C19.2271 10.6876 17.7097 10.875 16.2329 11.2473C15.9102 10.3544 15.5189 9.48774 15.0626 8.65513C16.3818 7.81794 17.5908 6.81846 18.661 5.68013C19.9688 7.06008 20.8204 8.80899 21.1001 10.6895ZM16.5938 4.05044C15.7079 4.95875 14.7207 5.76244 13.6517 6.44575C12.6881 5.15234 11.5634 3.98719 10.3048 2.97857C10.8631 2.86825 11.431 2.8133 12.0001 2.8145C13.614 2.81082 15.1997 3.23745 16.5938 4.05044ZM7.36259 4.08325C8.85846 5.05678 10.1849 6.26864 11.2892 7.67075C9.29906 8.51102 7.1603 8.94249 5.00009 8.9395C4.46415 8.9395 3.91728 8.90669 3.3704 8.852C4.1079 6.84759 5.51915 5.16182 7.36259 4.08325ZM2.81259 12.002C2.81259 11.8161 2.82353 11.6301 2.83446 11.4442C3.55372 11.5224 4.2766 11.5626 5.00009 11.5645C7.67365 11.5667 10.3171 11 12.7548 9.902C13.1279 10.5935 13.4532 11.3097 13.7282 12.0458C12.9185 12.3732 12.1327 12.7569 11.3767 13.1942C9.0673 14.5247 7.06564 16.3288 5.50321 18.4879C4.64995 17.6371 3.97304 16.6262 3.51132 15.5132C3.0496 14.4002 2.81215 13.207 2.81259 12.002ZM7.60321 20.0629C8.95224 18.1872 10.6862 16.621 12.6892 15.4692C13.2521 15.1385 13.8368 14.8462 14.4392 14.5942C14.6306 15.6039 14.7294 16.629 14.7345 17.6567C14.7347 18.7369 14.6248 19.8144 14.4063 20.8723C13.6218 21.084 12.8127 21.1906 12.0001 21.1895C10.4628 21.1919 8.94998 20.8043 7.60321 20.0629ZM17.261 19.527C17.3265 18.9057 17.3594 18.2814 17.3595 17.6567C17.3582 16.3478 17.2189 15.0426 16.9438 13.7629C18.1909 13.4665 19.4682 13.316 20.7501 13.3145H21.1001C20.9188 14.5575 20.4847 15.75 19.8244 16.8186C19.164 17.8871 18.2916 18.8089 17.261 19.527Z" fill="#646F87"/>
</svg>
