<svg width="14" height="15" viewBox="0 0 14 15" fill="none" xmlns="http://www.w3.org/2000/svg">
<g clip-path="url(#clip0_20_207)">
<path d="M14 7.125C14 10.5077 10.8658 13.25 7 13.25C6.3067 13.2509 5.61626 13.1609 4.94637 12.9823C4.43537 13.2413 3.262 13.7383 1.288 14.062C1.113 14.09 0.98 13.908 1.04912 13.7452C1.35888 13.0138 1.63888 12.039 1.72287 11.15C0.651 10.0738 0 8.665 0 7.125C0 3.74225 3.13425 1 7 1C10.8658 1 14 3.74225 14 7.125ZM4.375 7.125C4.375 6.89294 4.28281 6.67038 4.11872 6.50628C3.95462 6.34219 3.73206 6.25 3.5 6.25C3.26794 6.25 3.04538 6.34219 2.88128 6.50628C2.71719 6.67038 2.625 6.89294 2.625 7.125C2.625 7.35706 2.71719 7.57962 2.88128 7.74372C3.04538 7.90781 3.26794 8 3.5 8C3.73206 8 3.95462 7.90781 4.11872 7.74372C4.28281 7.57962 4.375 7.35706 4.375 7.125ZM7.875 7.125C7.875 6.89294 7.78281 6.67038 7.61872 6.50628C7.45462 6.34219 7.23206 6.25 7 6.25C6.76794 6.25 6.54538 6.34219 6.38128 6.50628C6.21719 6.67038 6.125 6.89294 6.125 7.125C6.125 7.35706 6.21719 7.57962 6.38128 7.74372C6.54538 7.90781 6.76794 8 7 8C7.23206 8 7.45462 7.90781 7.61872 7.74372C7.78281 7.57962 7.875 7.35706 7.875 7.125ZM10.5 8C10.7321 8 10.9546 7.90781 11.1187 7.74372C11.2828 7.57962 11.375 7.35706 11.375 7.125C11.375 6.89294 11.2828 6.67038 11.1187 6.50628C10.9546 6.34219 10.7321 6.25 10.5 6.25C10.2679 6.25 10.0454 6.34219 9.88128 6.50628C9.71719 6.67038 9.625 6.89294 9.625 7.125C9.625 7.35706 9.71719 7.57962 9.88128 7.74372C10.0454 7.90781 10.2679 8 10.5 8Z" fill="white"/>
</g>
<defs>
<clipPath id="clip0_20_207">
<rect width="14" height="14" fill="white" transform="translate(0 0.5)"/>
</clipPath>
</defs>
</svg>
