<svg xmlns="http://www.w3.org/2000/svg" xmlns:xlink="http://www.w3.org/1999/xlink" width="14.414" height="20" viewBox="0 0 14.414 20">
  <defs>
    <clipPath id="clip-path">
      <path id="Path_207" data-name="Path 207" d="M81.642,1.193V3.558H80.471V1.193H78.959V3.558H77.787V1.193H76.275V3.558H75.1V1.193H73.592V3.558H72.42V1.193h-2.6V20H84.238V1.193ZM73.882,15.867l-1.273-1.522.9-.752.5.593L75.218,13.1,76,13.97Zm0-3.369-1.273-1.523.9-.752.5.593,1.215-1.089L76,10.6Zm0-3.369L72.608,7.606l.9-.752.5.592,1.215-1.089L76,7.231Zm7.53,6.087h-4.53V14.044h4.53Zm0-3.369h-4.53V10.674h4.53Zm0-3.37h-4.53V7.3h4.53ZM73.592,0H72.42V1.193h1.172Zm2.684,0H75.1V1.193h1.172Zm2.684,0H77.787V1.193h1.172Zm2.684,0H80.471V1.193h1.172Z" transform="translate(-69.824)" fill="none"/>
    </clipPath>
    <linearGradient id="linear-gradient" x1="0.492" y1="1.195" x2="0.497" y2="0.787" gradientUnits="objectBoundingBox">
      <stop offset="0.001" stop-color="#e6e6e6"/>
      <stop offset="0.08" stop-color="#cbe1e7"/>
      <stop offset="0.259" stop-color="#93d7eb"/>
      <stop offset="0.434" stop-color="#64cfed"/>
      <stop offset="0.599" stop-color="#40c9f0"/>
      <stop offset="0.753" stop-color="#26c4f1"/>
      <stop offset="0.891" stop-color="#16c1f2"/>
      <stop offset="1" stop-color="#11c1f3"/>
    </linearGradient>
    <linearGradient id="linear-gradient-2" x1="0.388" y1="0.267" x2="0.592" y2="0.944" gradientUnits="objectBoundingBox">
      <stop offset="0" stop-color="#e6e6e6"/>
      <stop offset="1" stop-color="#fff"/>
    </linearGradient>
  </defs>
  <g id="icon-ordersaya" transform="translate(-69.824)">
    <g id="Group_274" data-name="Group 274" transform="translate(69.824)" clip-path="url(#clip-path)">
      <rect id="Rectangle_338" data-name="Rectangle 338" width="20" height="20" transform="translate(-2.793)" fill="url(#linear-gradient)"/>
      <path id="Path_206" data-name="Path 206" d="M0-120.41v17.96a11.837,11.837,0,0,1,10.68-4.32c9.76,1.28,12.779-10.112,10.2-14.84C15.84-130.85,0-120.41,0-120.41Z" transform="translate(-2.793 120.41)" fill="url(#linear-gradient-2)" style="mix-blend-mode: multiply;isolation: isolate"/>
    </g>
  </g>
</svg>
