<svg xmlns="http://www.w3.org/2000/svg" xmlns:xlink="http://www.w3.org/1999/xlink" width="17.188" height="20" viewBox="0 0 17.188 20">
  <defs>
    <clipPath id="clip-path">
      <path id="Path_199" data-name="Path 199" d="M51.249,5.457a.156.156,0,0,0-.156-.144H48.281V4.531a4.531,4.531,0,0,0-9.062,0v.781H36.406a.156.156,0,0,0-.156.144L35.156,19.832a.157.157,0,0,0,.156.168H52.187a.156.156,0,0,0,.156-.168ZM40.468,4.531a3.281,3.281,0,0,1,6.562,0v.781H40.468Zm-.625,5.156a1.564,1.564,0,0,1-1.563-1.562,1.475,1.475,0,0,1,.938-1.432V8.125a.625.625,0,0,0,1.25,0V6.694a1.479,1.479,0,0,1,.937,1.431,1.564,1.564,0,0,1-1.562,1.562Zm7.812,0a1.564,1.564,0,0,1-1.562-1.562,1.475,1.475,0,0,1,.937-1.432V8.125a.625.625,0,1,0,1.25,0V6.694a1.479,1.479,0,0,1,.938,1.431,1.564,1.564,0,0,1-1.563,1.562Zm0,0" transform="translate(-35.156)" fill="none"/>
    </clipPath>
    <linearGradient id="linear-gradient" x1="0.388" y1="0.267" x2="0.592" y2="0.944" gradientUnits="objectBoundingBox">
      <stop offset="0" stop-color="#e6e6e6"/>
      <stop offset="1" stop-color="#fff"/>
    </linearGradient>
  </defs>
  <g id="icon-belanja-active" transform="translate(-35.156)">
    <g id="Group_269" data-name="Group 269" transform="translate(35.156)" clip-path="url(#clip-path)">
      <rect id="Rectangle_334" data-name="Rectangle 334" width="20" height="20" transform="translate(-1.406)" fill="#fe9407"/>
      <path id="Path_198" data-name="Path 198" d="M0-120.41v17.96a11.837,11.837,0,0,1,10.68-4.32c9.76,1.28,12.779-10.112,10.2-14.84C15.84-130.85,0-120.41,0-120.41Z" transform="translate(-1.406 120.41)" fill="url(#linear-gradient)" style="mix-blend-mode: multiply;isolation: isolate"/>
    </g>
  </g>
</svg>
