<svg id="icon-superpoin" xmlns="http://www.w3.org/2000/svg" xmlns:xlink="http://www.w3.org/1999/xlink" width="20" height="20" viewBox="0 0 20 20">
  <defs>
    <clipPath id="clip-path">
      <path id="Path_215" data-name="Path 215" d="M10,0A10,10,0,1,0,20,10,10,10,0,0,0,10,0Zm6.223,16.223a8.768,8.768,0,1,1,1.886-2.8A8.771,8.771,0,0,1,16.223,16.223ZM10,1.619A8.381,8.381,0,1,0,18.381,10,8.381,8.381,0,0,0,10,1.619Zm-3.606,7.3a3.476,3.476,0,0,0,.97.432,5.957,5.957,0,0,1,1.141.481,1.917,1.917,0,0,1,1.085,1.725,1.635,1.635,0,0,1-.662,1.38,2.946,2.946,0,0,1-1.817.5,3.6,3.6,0,0,1-1.474-.292,2.221,2.221,0,0,1-.993-.8,2.085,2.085,0,0,1-.333-1.171H5.93a1.027,1.027,0,0,0,.278.793,1.315,1.315,0,0,0,.9.255,1.04,1.04,0,0,0,.632-.172.569.569,0,0,0,.232-.485.663.663,0,0,0-.251-.552,3.12,3.12,0,0,0-.881-.409,8.424,8.424,0,0,1-1.03-.409,1.951,1.951,0,0,1-1.3-1.757,1.576,1.576,0,0,1,.324-.982A2.1,2.1,0,0,1,5.755,6.8,3.57,3.57,0,0,1,7.089,6.56a3.124,3.124,0,0,1,1.295.258,2.051,2.051,0,0,1,.89.734,1.916,1.916,0,0,1,.317,1.088H7.981A.81.81,0,0,0,7.73,8a.977.977,0,0,0-.678-.225,1.1,1.1,0,0,0-.683.191.562.562,0,0,0,.025.952Zm8.594,1.568a2.911,2.911,0,0,1-1.925.586h-1.03v2.272H10.419v-6.7h2.672a3.113,3.113,0,0,1,1.359.283,2.133,2.133,0,0,1,.915.8,2.2,2.2,0,0,1,.324,1.184A1.938,1.938,0,0,1,14.988,10.49ZM13.109,7.9H12.033V9.83h1.058a1,1,0,0,0,.715-.235.872.872,0,0,0,.246-.662,1.078,1.078,0,0,0-.253-.75A.9.9,0,0,0,13.109,7.9Z" fill="none"/>
    </clipPath>
    <linearGradient id="linear-gradient" x1="0.492" y1="1.195" x2="0.497" y2="0.787" gradientUnits="objectBoundingBox">
      <stop offset="0.001" stop-color="#e6e6e6"/>
      <stop offset="0.08" stop-color="#cbe1e7"/>
      <stop offset="0.259" stop-color="#93d7eb"/>
      <stop offset="0.434" stop-color="#64cfed"/>
      <stop offset="0.599" stop-color="#40c9f0"/>
      <stop offset="0.753" stop-color="#26c4f1"/>
      <stop offset="0.891" stop-color="#16c1f2"/>
      <stop offset="1" stop-color="#11c1f3"/>
    </linearGradient>
    <linearGradient id="linear-gradient-2" x1="0.388" y1="0.267" x2="0.592" y2="0.944" gradientUnits="objectBoundingBox">
      <stop offset="0" stop-color="#e6e6e6"/>
      <stop offset="1" stop-color="#fff"/>
    </linearGradient>
  </defs>
  <g id="Group_278" data-name="Group 278" clip-path="url(#clip-path)">
    <rect id="Rectangle_342" data-name="Rectangle 342" width="20" height="20" fill="url(#linear-gradient)"/>
    <path id="Path_214" data-name="Path 214" d="M0-120.41v17.96a11.837,11.837,0,0,1,10.68-4.32c9.76,1.28,12.779-10.112,10.2-14.84C15.84-130.85,0-120.41,0-120.41Z" transform="translate(0 120.41)" fill="url(#linear-gradient-2)" style="mix-blend-mode: multiply;isolation: isolate"/>
  </g>
</svg>
