<svg xmlns="http://www.w3.org/2000/svg" width="27.001" height="27.001" viewBox="0 0 27.001 27.001">
  <path id="icon-superpoin-blue" d="M0,21.374v2.252C0,25.487,4.535,27,10.125,27s10.125-1.514,10.125-3.375V21.374c-2.178,1.535-6.16,2.252-10.125,2.252S2.178,22.908,0,21.374ZM16.875,6.75C22.465,6.75,27,5.237,27,3.375S22.465,0,16.875,0,6.75,1.514,6.75,3.375,11.285,6.75,16.875,6.75ZM0,15.842v2.721c0,1.862,4.535,3.375,10.125,3.375s10.125-1.514,10.125-3.375V15.842c-2.178,1.793-6.165,2.721-10.125,2.721S2.178,17.635,0,15.842Zm21.938.58C24.96,15.837,27,14.75,27,13.5V11.249a12.95,12.95,0,0,1-5.063,1.819ZM10.125,8.438C4.535,8.438,0,10.326,0,12.657s4.535,4.219,10.125,4.219,10.125-1.888,10.125-4.219S15.715,8.438,10.125,8.438ZM21.69,11.407C24.854,10.837,27,9.719,27,8.438V6.186c-1.872,1.324-5.089,2.036-8.475,2.2A5.906,5.906,0,0,1,21.69,11.407Z" fill="#11c1f3"/>
</svg>
