<svg xmlns="http://www.w3.org/2000/svg" xmlns:xlink="http://www.w3.org/1999/xlink" width="20" height="17.693" viewBox="0 0 20 17.693">
  <defs>
    <clipPath id="clip-path">
      <path id="Path_209" data-name="Path 209" d="M15.882,41.785l-.847-1.232A5.772,5.772,0,0,1,4.259,38.3h.548a.577.577,0,0,0,.475-.9l-.841-1.223L3.168,34.324a.577.577,0,0,0-.475-.25.574.574,0,0,0-.139.017.576.576,0,0,0-.336.233L.1,37.4a.577.577,0,0,0,.475.9h.6a8.847,8.847,0,0,0,15.083,5.678A8.927,8.927,0,0,0,17.43,42.53c-.041,0-.082,0-.123,0A1.73,1.73,0,0,1,15.882,41.785Zm4.052-4.326a.577.577,0,0,0-.511-.308h-.6A8.846,8.846,0,0,0,3.745,31.472,8.9,8.9,0,0,0,2.57,32.924c.04,0,.081,0,.122,0a1.731,1.731,0,0,1,1.426.75L4.965,34.9A5.772,5.772,0,0,1,15.741,37.15h-.548a.577.577,0,0,0-.475.9l.841,1.223,1.274,1.854a.577.577,0,0,0,.951,0l.764-1.111L19.9,38.054A.577.577,0,0,0,19.934,37.459ZM9.7,36.981a1.438,1.438,0,0,0,.187-.766,1.184,1.184,0,0,0-.444-.988,1.946,1.946,0,0,0-1.232-.35H6.463v4.43H7.531V37.741h.578l.782,1.567h1.144v-.046L9.11,37.474A1.328,1.328,0,0,0,9.7,36.981Zm-1.031-.222a.606.606,0,0,1-.458.16H7.531V35.7h.675a.6.6,0,0,1,.456.163.626.626,0,0,1,.155.45A.619.619,0,0,1,8.664,36.759Zm3.595,2.609a1.107,1.107,0,0,0,.932-.458,1.985,1.985,0,0,0,.345-1.225v-.049A2.01,2.01,0,0,0,13.2,36.4a1.116,1.116,0,0,0-.946-.449.949.949,0,0,0-.776.365l-.03-.3h-.958v4.558h1.025V39.037A.949.949,0,0,0,12.259,39.369Zm-.745-2.361A.483.483,0,0,1,12,36.746q.511,0,.511.876v.11q-.015.846-.505.846a.5.5,0,0,1-.493-.274Z" transform="translate(0 -28.881)" fill="none"/>
    </clipPath>
    <linearGradient id="linear-gradient" x1="0.492" y1="1.195" x2="0.497" y2="0.787" gradientUnits="objectBoundingBox">
      <stop offset="0.001" stop-color="#e6e6e6"/>
      <stop offset="0.08" stop-color="#cbe1e7"/>
      <stop offset="0.259" stop-color="#93d7eb"/>
      <stop offset="0.434" stop-color="#64cfed"/>
      <stop offset="0.599" stop-color="#40c9f0"/>
      <stop offset="0.753" stop-color="#26c4f1"/>
      <stop offset="0.891" stop-color="#16c1f2"/>
      <stop offset="1" stop-color="#11c1f3"/>
    </linearGradient>
    <linearGradient id="linear-gradient-2" x1="0.388" y1="0.267" x2="0.592" y2="0.944" gradientUnits="objectBoundingBox">
      <stop offset="0" stop-color="#e6e6e6"/>
      <stop offset="1" stop-color="#fff"/>
    </linearGradient>
  </defs>
  <g id="icon-transaksi" transform="translate(0 -28.881)">
    <g id="Group_275" data-name="Group 275" transform="translate(0 28.881)" clip-path="url(#clip-path)">
      <rect id="Rectangle_339" data-name="Rectangle 339" width="20" height="20" transform="translate(0 -1.155)" fill="url(#linear-gradient)"/>
      <path id="Path_208" data-name="Path 208" d="M0-120.41v17.96a11.837,11.837,0,0,1,10.68-4.32c9.76,1.28,12.779-10.112,10.2-14.84C15.84-130.85,0-120.41,0-120.41Z" transform="translate(0 119.255)" fill="url(#linear-gradient-2)" style="mix-blend-mode: multiply;isolation: isolate"/>
    </g>
  </g>
</svg>
