<svg xmlns="http://www.w3.org/2000/svg" xmlns:xlink="http://www.w3.org/1999/xlink" width="17" height="20" viewBox="0 0 17 20">
  <defs>
    <clipPath id="clip-path">
      <path id="Path_205" data-name="Path 205" d="M46,20a2.006,2.006,0,0,0,2-2H44a2.006,2.006,0,0,0,2,2Zm6.5-6V8.5a6.435,6.435,0,0,0-5-6.3V1.5a1.5,1.5,0,1,0-3,0v.7a6.435,6.435,0,0,0-5,6.3V14l-2,2v1h17V16Zm0,0" transform="translate(-37.501)" fill="none"/>
    </clipPath>
    <linearGradient id="linear-gradient" x1="0.388" y1="0.267" x2="0.592" y2="0.944" gradientUnits="objectBoundingBox">
      <stop offset="0" stop-color="#e6e6e6"/>
      <stop offset="1" stop-color="#fff"/>
    </linearGradient>
  </defs>
  <g id="icon-notifikasi-active" transform="translate(-37.501)">
    <g id="Group_273" data-name="Group 273" transform="translate(37.501)" clip-path="url(#clip-path)">
      <rect id="Rectangle_337" data-name="Rectangle 337" width="20" height="20" transform="translate(-1.5)" fill="#fe9407"/>
      <path id="Path_204" data-name="Path 204" d="M0-120.41v17.96a11.837,11.837,0,0,1,10.68-4.32c9.76,1.28,12.779-10.112,10.2-14.84C15.84-130.85,0-120.41,0-120.41Z" transform="translate(-1.5 120.41)" fill="url(#linear-gradient)" style="mix-blend-mode: multiply;isolation: isolate"/>
    </g>
  </g>
</svg>
