<svg xmlns="http://www.w3.org/2000/svg" xmlns:xlink="http://www.w3.org/1999/xlink" width="20" height="15.753" viewBox="0 0 20 15.753">
  <defs>
    <clipPath id="clip-path">
      <path id="Path_217" data-name="Path 217" d="M11.72,62.483h0ZM4.8,62.989c-.037.016-.068.031-.092.043a1.2,1.2,0,0,0-.583-.38,2.269,2.269,0,0,0-1.375-.011,2.727,2.727,0,0,0,.066-1.217,4.482,4.482,0,0,1-.028-.569c.018-.372.133-.515.2-.567a.164.164,0,0,1,.128-.04.3.3,0,0,1,.116.083.783.783,0,0,0,.472.239l.19.028c.367.057.714.111.868-.031.131-.121.126-.633.08-.959-.036-.256-.117-.581-.3-.672a3.955,3.955,0,0,0-2.3.316A7.846,7.846,0,0,0,1.09,61.383a11.592,11.592,0,0,1-.529,1.229c-.086.181-.175.369-.257.55a.7.7,0,0,0,.249.969c.034.028.066.054.093.08s.07.071.123.129a3.478,3.478,0,0,0,2.09,1.284c.183.008.359.012.524.012a10.458,10.458,0,0,0,1.342-.08l.064-.009.126-2.61Zm15.309.156c-.081-.181-.171-.369-.257-.55a11.6,11.6,0,0,1-.529-1.23,7.848,7.848,0,0,0-1.157-2.128,3.955,3.955,0,0,0-2.3-.316c-.181.091-.263.415-.3.672-.046.325-.051.838.08.959.154.142.5.088.868.031l.19-.028a.784.784,0,0,0,.472-.239.3.3,0,0,1,.116-.083.164.164,0,0,1,.128.04c.067.052.182.2.2.567a4.482,4.482,0,0,1-.028.569,2.726,2.726,0,0,0,.066,1.217,2.269,2.269,0,0,0-1.375.011,1.2,1.2,0,0,0-.583.38c-.024-.012-.055-.027-.092-.043l-.116-.051.126,2.61.064.009a10.473,10.473,0,0,0,1.342.08c.165,0,.341,0,.524-.012a3.477,3.477,0,0,0,2.09-1.284c.054-.058.1-.1.123-.129s.06-.052.093-.08A.7.7,0,0,0,20.11,63.146Zm-8.268-.472h0S11.841,62.675,11.843,62.674Zm3.245-4.024-.05-.036,1.653-3.27s.085-.18.251-.54a.5.5,0,0,0-.146-.553,1.083,1.083,0,0,0-1.246-.116,5.653,5.653,0,0,0-1.562,1.279l.037-.207a.078.078,0,0,0-.009-.053l-.456-.8.035-.247a.078.078,0,0,0-.064-.088l-1.995-.352a.078.078,0,0,0-.091.067l-.035.277-.869.567a.078.078,0,0,0-.034.053l-.2,1.2a1.939,1.939,0,0,0-.227.113,1.456,1.456,0,0,0-.519,0l-.457-1.6a.133.133,0,0,0,.061-.023.124.124,0,0,0,.051-.1.168.168,0,0,0-.029-.1.078.078,0,0,0,.028-.049l.068-.454a.079.079,0,0,0,0-.025.448.448,0,0,0-.227-.307.078.078,0,0,0-.025-.008l-.813-.106H8.2a.345.345,0,0,0-.305.254,2.037,2.037,0,0,0-.05.438.078.078,0,0,0,.012.042.172.172,0,0,0-.085.156.126.126,0,0,0,.073.091l-.564.865-.553-.388a.233.233,0,0,0-.152-.1.262.262,0,0,0-.218.086.183.183,0,0,0-.085.137.237.237,0,0,0,.066.169l.45,1.291-.01.065A4.139,4.139,0,0,0,4.745,55a.232.232,0,0,0-.32.06.265.265,0,0,0,.047.341l.781,1.11a3.807,3.807,0,0,0-2.208-.538.237.237,0,0,0-.178,0,.2.2,0,0,0-.107.14.264.264,0,0,0,.135.305,23.109,23.109,0,0,1,2.231,1.845l0,.006.27.31-.1.069a.078.078,0,0,0-.035.063L4.91,68.842a.078.078,0,0,0,.078.081H15.433a.078.078,0,0,0,.078-.081L15.12,58.71A.078.078,0,0,0,15.087,58.649ZM12.46,62.9a1.631,1.631,0,0,1-.4-.04c-.064-.013-.126-.029-.188-.046l-.09-.026-.042-.013-.018,0-.007,0h0l-.023,0-.011,0-.006,0-.01,0a.145.145,0,0,1-.071-.06.152.152,0,0,1-.011-.023l0-.012,0-.007a.159.159,0,0,1,0-.03c0-.005,0-.01,0-.015V62.6s0-.01,0-.015a.172.172,0,0,1,.019-.05l.013-.021a.5.5,0,0,1,.04-.05c.026-.027.049-.052.075-.074a1.649,1.649,0,0,1,.156-.125,1.384,1.384,0,0,1,.36-.189,1.723,1.723,0,0,1-.2.348c-.031.043-.063.084-.095.124l.023.01a1.867,1.867,0,0,1,.176.091A1.421,1.421,0,0,1,12.46,62.9ZM8.218,59.887c-.048-.576-.146-2.547.647-3.436a1.276,1.276,0,0,1,.991-.442c.875,0,1.554.6,1.962,1.737a7.543,7.543,0,0,1,.391,2.131.263.263,0,1,1-.236,0,7.281,7.281,0,0,0-.377-2.054,2.194,2.194,0,0,0-1.29-1.515l-.118.718a.751.751,0,0,0-.342-.4,2.2,2.2,0,0,1,.2-.224.645.645,0,0,1,.131.009.055.055,0,0,0,.017-.108l-.033,0,.025-.019a1.555,1.555,0,0,0-.319-.034,2.417,2.417,0,0,0-.178.2.943.943,0,0,0-.093-.171,1.03,1.03,0,0,0-.552.334c-.724.812-.63,2.722-.587,3.264a.263.263,0,1,1-.236.015Zm-.433,2.191c.162,0,.293.2.293.45s-.131.45-.293.45-.293-.2-.293-.45S7.623,62.077,7.785,62.077Zm5.953,2.135a5.823,5.823,0,0,1-.876,1.351,3.538,3.538,0,0,1-2.671,1.364,4.432,4.432,0,0,1-3.531-1.67.156.156,0,0,1,.255-.181h0a4.194,4.194,0,0,0,3.276,1.538c2.141,0,3.249-2.5,3.26-2.527a.156.156,0,0,1,.287.124Z" transform="translate(-0.207 -53.17)" fill="none"/>
    </clipPath>
    <linearGradient id="linear-gradient" x1="0.388" y1="0.267" x2="0.592" y2="0.944" gradientUnits="objectBoundingBox">
      <stop offset="0" stop-color="#e6e6e6"/>
      <stop offset="1" stop-color="#fff"/>
    </linearGradient>
  </defs>
  <g id="icon-about-active" transform="translate(-0.207 -53.17)">
    <g id="Group_279" data-name="Group 279" transform="translate(0.207 53.17)" clip-path="url(#clip-path)">
      <rect id="Rectangle_343" data-name="Rectangle 343" width="20.008" height="20.008" transform="translate(-0.008 -2.128)" fill="#fe9407"/>
      <path id="Path_216" data-name="Path 216" d="M0-120.408v17.967a11.842,11.842,0,0,1,10.684-4.322c9.764,1.281,12.784-10.117,10.2-14.846C15.847-130.852,0-120.408,0-120.408Z" transform="translate(-0.008 118.28)" fill="url(#linear-gradient)" style="mix-blend-mode: multiply;isolation: isolate"/>
    </g>
  </g>
</svg>
