<svg xmlns="http://www.w3.org/2000/svg" xmlns:xlink="http://www.w3.org/1999/xlink" width="20" height="20" viewBox="0 0 20 20">
  <defs>
    <clipPath id="clip-path">
      <path id="Path_211" data-name="Path 211" d="M9.073,16.514a2.19,2.19,0,0,0-2.187-2.221h-.3a.638.638,0,0,1-.613-.437.625.625,0,0,1,.372-.771l4.688-1.8a.625.625,0,0,0,.352-.826A38.355,38.355,0,0,1,9.071.493.626.626,0,0,0,7.928.2l-.9,1.355L5.67.648a.625.625,0,0,0-.953.368l-.41,1.639L3.17,1.9a.625.625,0,0,0-.953.368l-.41,1.639L.67,3.148a.625.625,0,0,0-.97.568,42.654,42.654,0,0,0,1.494,7.943,18.134,18.134,0,0,0,2.566,5.564,3.567,3.567,0,0,0,2.875,1.444h.218A2.209,2.209,0,0,0,9.073,16.514ZM2.867,7.65a.625.625,0,0,1,.348-.812l3.125-1.25A.625.625,0,0,1,6.8,6.748C3.421,8.1,3.62,8.043,3.448,8.043A.626.626,0,0,1,2.867,7.65Zm.625,2.5a.625.625,0,0,1,.348-.812l3.125-1.25A.625.625,0,0,1,7.43,9.248L4.3,10.5A.626.626,0,0,1,3.492,10.15Zm13.08.393c-.163,0,.16-.106-4.359,1.632-.005-.009-3.023,1.156-3.018,1.154a.313.313,0,0,0-.088.531,3.437,3.437,0,0,1-.743,5.723.176.176,0,0,0,.075.335,3.13,3.13,0,0,0,1.452-.353l6.739-2.775a.621.621,0,0,0,.339-.139c1.826-.752,1.741-.7,1.865-.826A3.131,3.131,0,0,0,16.573,10.543Zm-4.089-3.89h.554l.75,1.5h1.1V8.111L14,6.4a1.273,1.273,0,0,0,.562-.472,1.379,1.379,0,0,0,.179-.734,1.136,1.136,0,0,0-.426-.947,1.866,1.866,0,0,0-1.181-.335H11.46V8.155h1.024Zm0-1.957h.648a.576.576,0,0,1,.438.156.6.6,0,0,1,.149.431.594.594,0,0,1-.147.428.581.581,0,0,1-.439.154h-.648ZM16.3,7.9a.91.91,0,0,0,.715.318,1.062,1.062,0,0,0,.894-.439A1.9,1.9,0,0,0,18.242,6.6V6.554a1.927,1.927,0,0,0-.324-1.183,1.07,1.07,0,0,0-.907-.43.91.91,0,0,0-.744.35L16.238,5h-.919v4.37H16.3Zm0-1.946a.463.463,0,0,1,.467-.251q.49,0,.49.84v.105q-.015.811-.484.811a.478.478,0,0,1-.473-.263Z" transform="translate(0.302 0.082)" fill="none"/>
    </clipPath>
    <linearGradient id="linear-gradient" x1="0.492" y1="1.195" x2="0.497" y2="0.787" gradientUnits="objectBoundingBox">
      <stop offset="0.001" stop-color="#e6e6e6"/>
      <stop offset="0.08" stop-color="#cbe1e7"/>
      <stop offset="0.259" stop-color="#93d7eb"/>
      <stop offset="0.434" stop-color="#64cfed"/>
      <stop offset="0.599" stop-color="#40c9f0"/>
      <stop offset="0.753" stop-color="#26c4f1"/>
      <stop offset="0.891" stop-color="#16c1f2"/>
      <stop offset="1" stop-color="#11c1f3"/>
    </linearGradient>
    <linearGradient id="linear-gradient-2" x1="0.388" y1="0.267" x2="0.592" y2="0.944" gradientUnits="objectBoundingBox">
      <stop offset="0" stop-color="#e6e6e6"/>
      <stop offset="1" stop-color="#fff"/>
    </linearGradient>
  </defs>
  <g id="icon-topuptagihan" transform="translate(0.302 0.082)">
    <g id="Group_276" data-name="Group 276" transform="translate(-0.302 -0.082)" clip-path="url(#clip-path)">
      <rect id="Rectangle_340" data-name="Rectangle 340" width="19.988" height="19.988" transform="translate(0.012 0.003)" fill="url(#linear-gradient)"/>
      <path id="Path_210" data-name="Path 210" d="M0-120.413v17.949a11.83,11.83,0,0,1,10.674-4.317c9.754,1.279,12.771-10.106,10.194-14.831C15.83-130.847,0-120.413,0-120.413Z" transform="translate(0.012 120.416)" fill="url(#linear-gradient-2)" style="mix-blend-mode: multiply;isolation: isolate"/>
    </g>
  </g>
</svg>
