<svg xmlns="http://www.w3.org/2000/svg" xmlns:xlink="http://www.w3.org/1999/xlink" width="20" height="19.994" viewBox="0 0 20 19.994">
  <defs>
    <clipPath id="clip-path">
      <path id="Path_201" data-name="Path 201" d="M20,6.712a7,7,0,0,1-1.885,4.861h.01l-6.25,7.141c-.625.714-1.25,1.428-1.875,1.428s-1.25-.714-1.875-1.428l-6.25-7.141h.01A7,7,0,0,1,0,6.712C0,3.087,2.572.148,5.745.148A5.441,5.441,0,0,1,10,2.3,5.441,5.441,0,0,1,14.255.148C17.428.148,20,3.087,20,6.712Zm0,0" transform="translate(0 -0.148)" fill="none"/>
    </clipPath>
    <linearGradient id="linear-gradient" x1="0.492" y1="1.195" x2="0.497" y2="0.787" gradientUnits="objectBoundingBox">
      <stop offset="0.001" stop-color="#e6e6e6"/>
      <stop offset="0.08" stop-color="#cbe1e7"/>
      <stop offset="0.259" stop-color="#93d7eb"/>
      <stop offset="0.434" stop-color="#64cfed"/>
      <stop offset="0.599" stop-color="#40c9f0"/>
      <stop offset="0.753" stop-color="#26c4f1"/>
      <stop offset="0.891" stop-color="#16c1f2"/>
      <stop offset="1" stop-color="#11c1f3"/>
    </linearGradient>
    <linearGradient id="linear-gradient-2" y1="0.5" x2="1" y2="0.5" gradientUnits="objectBoundingBox">
      <stop offset="0" stop-color="#e6e6e6"/>
      <stop offset="1" stop-color="#fff"/>
    </linearGradient>
  </defs>
  <g id="icon-favorit" transform="translate(0 -0.148)">
    <g id="Group_271" data-name="Group 271" transform="translate(0 0.148)" clip-path="url(#clip-path)">
      <rect id="Rectangle_335" data-name="Rectangle 335" width="20" height="20" transform="translate(0 -0.006)" fill="url(#linear-gradient)"/>
      <path id="Path_200" data-name="Path 200" d="M0-120.41v17.96a11.837,11.837,0,0,1,10.68-4.32c9.76,1.28,12.779-10.112,10.2-14.84C15.84-130.85,0-120.41,0-120.41Z" transform="translate(0 120.404)" fill="url(#linear-gradient-2)" style="mix-blend-mode: multiply;isolation: isolate"/>
    </g>
  </g>
</svg>
