<svg width="24" height="24" viewBox="0 0 24 24" fill="none" xmlns="http://www.w3.org/2000/svg">
<path d="M12.679 14.2373C12.1612 14.3938 11.6052 14.3658 11.1059 14.1579C10.787 14.0257 10.5013 13.8243 10.2695 13.5685C10.0378 13.3126 9.86559 13.0085 9.76543 12.6781C9.66528 12.3476 9.63963 11.9991 9.69033 11.6576C9.74103 11.3161 9.86682 10.9901 10.0586 10.703C10.2505 10.4159 10.5036 10.175 10.7997 9.99745C11.0958 9.81993 11.4276 9.71028 11.7712 9.67639C12.1148 9.6425 12.4617 9.68522 12.7868 9.80146C13.1119 9.9177 13.4072 10.1046 13.6514 10.3486C14.0345 10.7304 14.2731 11.2334 14.3266 11.7716C14.38 12.3098 14.245 12.8499 13.9445 13.2996C13.644 13.7493 13.1967 14.0807 12.679 14.2373Z" fill="#2896D4"/>
<path fill-rule="evenodd" clip-rule="evenodd" d="M12 6.26127C13.869 6.26127 14.0905 6.26827 14.8286 6.302C15.5115 6.33318 15.8818 6.44709 16.1287 6.54318C16.4327 6.65532 16.7078 6.83405 16.9337 7.06627C17.1787 7.31127 17.3295 7.54482 17.4568 7.87127C17.5529 8.11818 17.6668 8.48855 17.698 9.17136C17.7317 9.90954 17.7387 10.131 17.7387 12C17.7387 13.869 17.7317 14.0905 17.698 14.8286C17.6668 15.5115 17.5529 15.8818 17.4568 16.1287C17.3448 16.4323 17.166 16.7078 16.9337 16.9337C16.6887 17.1787 16.4552 17.3295 16.1287 17.4568C15.8818 17.5529 15.5115 17.6668 14.8286 17.698C14.0905 17.7317 13.8696 17.7387 12 17.7387C10.1304 17.7387 9.90954 17.7317 9.17136 17.698C8.48855 17.6668 8.11818 17.5529 7.87127 17.4568C7.56773 17.3448 7.29218 17.166 7.06627 16.9337C6.834 16.7078 6.65518 16.4323 6.54318 16.1287C6.44709 15.8818 6.33318 15.5115 6.302 14.8286C6.26827 14.0905 6.26127 13.869 6.26127 12C6.26127 10.131 6.26827 9.90954 6.302 9.17136C6.33318 8.48855 6.44709 8.11818 6.54318 7.87127C6.6553 7.56727 6.83403 7.29221 7.06627 7.06627C7.31127 6.82127 7.54482 6.67045 7.87127 6.54318C8.11818 6.44709 8.48855 6.33318 9.17136 6.302C9.90954 6.26827 10.131 6.26127 12 6.26127ZM10.6231 8.67587C10.1866 8.85668 9.78992 9.12171 9.45582 9.45582C8.78106 10.1306 8.40198 11.0457 8.40198 12C8.40198 12.9543 8.78106 13.8694 9.45582 14.5442C10.1306 15.2189 11.0457 15.598 12 15.598C12.9543 15.598 13.8694 15.2189 14.5442 14.5442C14.8783 14.2101 15.1433 13.8134 15.3241 13.3769C15.505 12.9404 15.598 12.4725 15.598 12C15.598 11.5275 15.505 11.0596 15.3241 10.6231C15.1433 10.1866 14.8783 9.78992 14.5442 9.45582C14.2101 9.12171 13.8134 8.85668 13.3769 8.67587C12.9404 8.49505 12.4725 8.40198 12 8.40198C11.5275 8.40198 11.0596 8.49505 10.6231 8.67587ZM16.5909 8.66162C16.5451 8.7658 16.4788 8.85972 16.396 8.93782C16.235 9.08971 16.0211 9.17287 15.7998 9.16964C15.5784 9.16642 15.3671 9.07706 15.2106 8.92054C15.054 8.76401 14.9647 8.55265 14.9614 8.33132C14.9582 8.10999 15.0414 7.89611 15.1933 7.73509C15.2714 7.6523 15.3653 7.58602 15.4695 7.54017C15.5736 7.49433 15.686 7.46985 15.7998 7.46819C15.9136 7.46653 16.0266 7.48772 16.132 7.53051C16.2375 7.5733 16.3333 7.63682 16.4138 7.7173C16.4943 7.79778 16.5578 7.89359 16.6006 7.99906C16.6434 8.10453 16.6646 8.21751 16.6629 8.33132C16.6612 8.44513 16.6368 8.55744 16.5909 8.66162Z" fill="#2896D4"/>
<path fill-rule="evenodd" clip-rule="evenodd" d="M12 24C18.6274 24 24 18.6274 24 12C24 5.37258 18.6274 0 12 0C5.37258 0 0 5.37258 0 12C0 18.6274 5.37258 24 12 24ZM12 5C10.0985 5 9.86055 5.00764 9.11409 5.042C8.36954 5.07636 7.85982 5.19473 7.41436 5.36718C6.94757 5.5431 6.52475 5.81868 6.17536 6.17473C5.81908 6.52429 5.54328 6.94732 5.36718 7.41436C5.19473 7.85982 5.07573 8.36891 5.042 9.11473C5.00827 9.86055 5 10.0985 5 12C5 13.9008 5.00764 14.1388 5.042 14.8865C5.07636 15.6311 5.19473 16.1402 5.36718 16.5856C5.54302 17.0527 5.81861 17.4757 6.17473 17.8253C6.52461 18.1812 6.94786 18.4565 7.415 18.6322C7.86045 18.8053 8.36955 18.9243 9.11409 18.958C9.86055 18.9917 10.0985 19 12 19C13.9015 19 14.1395 18.9924 14.8865 18.958C15.6311 18.9236 16.1402 18.8053 16.5856 18.6322C17.0521 18.4565 17.4753 18.1816 17.8253 17.8253C18.1812 17.4754 18.4565 17.0522 18.6322 16.585C18.8053 16.1395 18.9243 15.6305 18.958 14.8859C18.9917 14.1395 19 13.9015 19 12C19 10.0992 18.9924 9.86118 18.958 9.11345C18.9236 8.36891 18.8053 7.85982 18.6322 7.41436C18.4565 6.94727 18.1816 6.52473 17.8253 6.17536C17.4753 5.819 17.0521 5.54345 16.5856 5.36718C16.1402 5.19473 15.6311 5.07573 14.8853 5.042C14.1395 5.00827 13.9015 5 12 5Z" fill="#2896D4"/>
</svg>
