<?xml version="1.0" standalone="no"?>
<!DOCTYPE svg PUBLIC "-//W3C//DTD SVG 20010904//EN"
 "http://www.w3.org/TR/2001/REC-SVG-20010904/DTD/svg10.dtd">
<svg version="1.0" xmlns="http://www.w3.org/2000/svg"
 width="512.000000pt" height="512.000000pt" viewBox="0 0 512.000000 512.000000"
 preserveAspectRatio="xMidYMid meet">
<metadata>
Created by potrace 1.14, written by Peter Selinger 2001-2017
</metadata>
<g transform="translate(0.000000,512.000000) scale(0.100000,-0.100000)"
fill="#000000" stroke="none">
<path d="M0 4545 l0 -575 23 14 c98 62 1209 697 1272 727 108 50 181 69 300
75 226 13 426 -79 561 -260 101 -133 146 -262 147 -416 0 -136 -40 -262 -119
-372 -19 -28 -32 -54 -27 -58 4 -4 202 -128 438 -275 237 -148 436 -273 443
-280 11 -10 -35 -41 -242 -160 -141 -81 -256 -151 -256 -155 0 -14 934 -952
938 -941 2 6 -76 299 -174 651 -103 372 -173 645 -168 650 27 25 848 490 854
483 4 -4 254 -435 555 -958 301 -522 554 -959 561 -970 12 -16 14 250 14 1688
l0 1707 -2560 0 -2560 0 0 -575z"/>
<path d="M1320 4132 c-19 -10 -124 -69 -232 -132 l-198 -114 30 -50 c16 -28
62 -108 102 -178 40 -71 76 -128 80 -128 15 0 424 242 450 267 37 35 50 58 59
107 15 84 -36 188 -111 226 -50 25 -133 26 -180 2z"/>
<path d="M0 1983 l0 -1983 2560 0 2560 0 0 846 c0 728 -2 845 -14 841 -8 -3
-148 -83 -311 -177 -164 -95 -301 -168 -305 -163 -4 4 -111 188 -238 408 -241
420 -329 586 -419 794 -49 114 -85 179 -69 126 29 -101 396 -1506 396 -1517 0
-9 -101 -73 -244 -155 l-244 -141 -568 559 c-312 307 -569 557 -572 555 -2 -3
40 -62 94 -133 54 -70 139 -191 190 -268 108 -164 526 -884 521 -898 -3 -10
-568 -340 -572 -335 -1 2 -253 437 -559 968 -307 531 -561 969 -566 974 -5 5
-113 -52 -256 -133 -135 -79 -250 -139 -254 -134 -4 4 -252 431 -550 948 -298
517 -550 954 -561 970 -18 29 -19 -6 -19 -1952z"/>
<path d="M1464 3153 l-111 -66 124 -215 c68 -119 160 -278 205 -354 l80 -139
31 19 c18 10 148 85 289 166 l257 149 -375 253 c-206 140 -378 254 -382 253
-4 0 -57 -30 -118 -66z"/>
</g>
</svg>
