<svg width="41" height="41" viewBox="0 0 41 41" fill="none" xmlns="http://www.w3.org/2000/svg">
<path d="M33.1708 11.41C34.9304 13.2789 35.8751 15.375 35.8751 18.7729C35.8751 24.7521 31.6777 30.1111 25.5739 32.7607L24.0483 30.4066C29.7456 27.3248 30.8594 23.3256 31.3036 20.8041C30.3862 21.279 29.1853 21.4447 28.0082 21.3354C24.9264 21.0501 22.4972 18.5201 22.4972 15.375C22.4972 13.7892 23.1271 12.2684 24.2484 11.1471C25.3697 10.0258 26.8905 9.39584 28.4763 9.39584C30.3094 9.39584 32.0621 10.2329 33.1708 11.41ZM16.0875 11.41C17.8471 13.2789 18.7918 15.375 18.7918 18.7729C18.7918 24.7521 14.5944 30.1111 8.49053 32.7607L6.96499 30.4066C12.6623 27.3248 13.7761 23.3256 14.2203 20.8041C13.3029 21.279 12.1019 21.4447 10.9249 21.3354C7.84307 21.0501 5.41553 18.5201 5.41553 15.375C5.41553 13.7892 6.04547 12.2684 7.16678 11.1471C8.2881 10.0258 9.80892 9.39584 11.3947 9.39584C13.2277 9.39584 14.9805 10.2329 16.0892 11.41H16.0875Z" fill="#00A78E"/>
</svg>
