<svg width="37" height="29" viewBox="0 0 37 29" fill="none" xmlns="http://www.w3.org/2000/svg">
<g clip-path="url(#clip0_20_191)">
<rect y="0.868423" width="37" height="27.2632" rx="3.89474" fill="#00A78E"/>
<path d="M11.8661 14.5C12.8524 14.5 13.7136 14.6185 14.4496 14.8556C15.1856 15.0926 15.7966 15.4112 16.2823 15.8112C16.7681 16.2112 17.1288 16.6853 17.3643 17.2335C17.5998 17.7669 17.7176 18.3299 17.7176 18.9226C17.7176 19.4115 17.6587 19.893 17.541 20.3671C17.4379 20.8412 17.2318 21.2931 16.9227 21.7228C16.6283 22.1524 16.2235 22.5525 15.7082 22.9229C15.2077 23.2784 14.56 23.5822 13.7651 23.834C14.1773 24.6045 14.5968 25.5379 15.0237 26.6342C15.4653 27.7306 15.8775 28.8789 16.2603 30.0789H12.5727C12.2341 29.0566 11.8882 28.0492 11.5349 27.0565C11.1963 26.049 10.8136 25.1823 10.3867 24.4563H8.66432L7.31736 30.0789H3.89478L7.49401 14.9C8.28894 14.7519 9.06178 14.6482 9.81254 14.5889C10.5633 14.5296 11.2478 14.5 11.8661 14.5ZM11.7557 17.4336C11.5054 17.4336 11.2478 17.441 10.9828 17.4558C10.7179 17.4706 10.4971 17.4854 10.3204 17.5002L9.32675 21.7228H10.4971C11.2037 21.7228 11.7999 21.6561 12.2856 21.5227C12.7714 21.3894 13.1615 21.2116 13.4559 20.9894C13.7504 20.7671 13.9564 20.5153 14.0742 20.2338C14.2067 19.9374 14.2729 19.6411 14.2729 19.3448C14.2729 19.0929 14.2361 18.8559 14.1625 18.6336C14.0889 18.3966 13.9564 18.1892 13.7651 18.0114C13.5737 17.8336 13.3161 17.6928 12.9922 17.5891C12.6684 17.4854 12.2562 17.4336 11.7557 17.4336Z" fill="white"/>
<path d="M25.9153 14.6778C26.0036 15.0778 26.114 15.6482 26.2465 16.389C26.3937 17.115 26.5409 17.9225 26.6881 18.8114C26.85 19.6856 27.012 20.5893 27.1739 21.5227C27.3358 22.4413 27.483 23.2858 27.6155 24.0563C28.116 23.2858 28.6607 22.4562 29.2495 21.5672C29.8384 20.6782 30.4198 19.8041 30.9939 18.9448C31.5681 18.0855 32.1127 17.2854 32.628 16.5446C33.1432 15.789 33.5848 15.1667 33.9528 14.6778H37C36.897 15.7001 36.7571 16.8483 36.5805 18.1225C36.4186 19.3967 36.2272 20.7153 36.0064 22.0783C35.8003 23.4414 35.5795 24.8119 35.3439 26.1898C35.1084 27.5676 34.8729 28.864 34.6373 30.0789H31.281C31.5901 28.5677 31.914 26.938 32.2526 25.1897C32.6059 23.4266 32.9297 21.6487 33.2241 19.856C32.8414 20.4634 32.4145 21.1449 31.9434 21.9006C31.4724 22.6414 31.0013 23.397 30.5302 24.1674C30.0592 24.923 29.6028 25.649 29.1612 26.3453C28.7196 27.0417 28.3368 27.6343 28.013 28.1232H25.4957C25.4221 27.6788 25.3338 27.1158 25.2308 26.4342C25.1277 25.7527 25.0099 25.0341 24.8775 24.2785C24.7597 23.5081 24.6346 22.7377 24.5021 21.9672C24.3696 21.182 24.2445 20.4782 24.1267 19.856C23.5526 21.6487 23.03 23.4266 22.5589 25.1897C22.1026 26.938 21.6757 28.5677 21.2782 30.0789H17.9439C18.2825 28.864 18.6505 27.5676 19.048 26.1898C19.4602 24.8119 19.8797 23.4414 20.3066 22.0783C20.7483 20.7005 21.1825 19.3744 21.6094 18.1003C22.0363 16.8261 22.4412 15.6853 22.8239 14.6778H25.9153Z" fill="white"/>
</g>
<defs>
<clipPath id="clip0_20_191">
<rect y="0.868423" width="37" height="27.2632" rx="3.89474" fill="white"/>
</clipPath>
</defs>
</svg>
